#N canvas 827 239 527 327 12;
#X obj 64 809 out~;
#X floatatom 64 -31 5 0 0 0 - - - 12;
#X floatatom 389 292 5 0 4 0 - - - 12;
#X floatatom 712 292 5 0 4 0 - - - 12;
#X obj 64 -103 notein;
#X obj 64 -63 mtof;
#X floatatom 740 206 5 0 0 0 - - - 12;
#X obj 740 174 / 127;
#X obj 273 -248 bs-random-MIDI;
#X obj 446 368 * -1;
#X obj 378 396 pm-scan 35 1.5 2;
#X obj 64 396 pm-scan 45 1.5 2;
#X obj 701 396 pm-scan 30 1.5 2;
#X obj 64 743 /~ 3;
#X obj 754 643 knob 50 0 1 0 1 empty empty #E4E4E4 #B7B7B7 #4D4D4D 1 0 0 0 1 270 0 0 0;
#X obj 701 674 *~;
#X obj 431 643 knob 50 0 1 0 1 empty empty #E4E4E4 #B7B7B7 #4D4D4D 1 0 0 0 1 270 0 0 0;
#X obj 378 674 *~;
#X obj 117 643 knob 50 0 1 0 1 empty empty #E4E4E4 #B7B7B7 #4D4D4D 1 0 0 0 1 270 0 0 0;
#X obj 64 674 *~;
#X obj -64 -16 hradio 20 1 0 2 empty empty empty 0 -8 0 10 #e4e4e4 #4d4d4d #373737 0;
#X obj 64 11 sig~;
#X obj -64 21 + 1;
#X obj 716 174 bng 19 250 50 0 empty empty empty 17 7 0 10 #e4e4e4 #4d4d4d #373737;
#X obj 378 324 *~ 1.5;
#X obj 701 324 *~ 2.5;
#X obj 246 292 hsl 128 17 0.01 1 1 1 empty empty empty -2 -8 0 10 #e4e4e4 #4d4d4d #373737 498 0;
#X floatatom 243 319 5 0 0 0 - - - 12;
#X obj 304 362 bng 25 250 50 0 empty empty empty 17 7 0 10 #e4e4e4 #4d4d4d #373737;
#X obj 477 320 hsl 128 17 0.01 1 1 1 empty empty empty -2 -8 0 10 #e4e4e4 #4d4d4d #373737 8234 0;
#X floatatom 474 347 5 0 0 0 - - - 12;
#X obj 618 362 bng 25 250 50 0 empty empty empty 17 7 0 10 #e4e4e4 #4d4d4d #373737;
#X obj 864 324 hsl 128 17 0.01 1 1 1 empty empty empty -2 -8 0 10 #e4e4e4 #4d4d4d #373737 506 0;
#X floatatom 861 351 5 0 0 0 - - - 12;
#X obj 941 362 bng 25 250 50 0 empty empty empty 17 7 0 10 #e4e4e4 #4d4d4d #373737;
#X obj -159 615 loadbang;
#X obj 44 52 select~ 2;
#X obj 80 -532 adc~;
#X obj 80 -489 fluid.ampslice~ -slowrampup 4410 -slowrampdown 4410 -fastrampup 10 -fastrampdown 10 -onthreshold 9 -offthreshold 6 -minslicelength 4410 -highpassfreq 20 -floor -40, f 38;
#X obj 102 -349 bng 15 250 50 0 empty empty empty 17 7 0 10 #ffe3c6 #000000 #000000;
#X floatatom 44 -241 5 0 0 0 - - - 12;
#X obj 80 -387 threshold~ 0.9 1 0.1 1;
#X connect 1 0 21 0;
#X connect 2 0 24 1;
#X connect 3 0 25 1;
#X connect 4 0 5 0;
#X connect 4 1 7 0;
#X connect 5 0 1 0;
#X connect 6 0 9 0;
#X connect 6 0 11 1;
#X connect 6 0 12 1;
#X connect 7 0 6 0;
#X connect 9 0 10 1;
#X connect 10 0 17 0;
#X connect 11 0 19 0;
#X connect 12 0 15 0;
#X connect 13 0 0 0;
#X connect 13 0 0 1;
#X connect 14 0 15 1;
#X connect 15 0 13 0;
#X connect 16 0 17 1;
#X connect 17 0 13 0;
#X connect 18 0 19 1;
#X connect 19 0 13 0;
#X connect 20 0 22 0;
#X connect 21 0 36 1;
#X connect 22 0 36 0;
#X connect 23 0 6 0;
#X connect 24 0 10 0;
#X connect 25 0 12 0;
#X connect 26 0 27 0;
#X connect 27 0 11 3;
#X connect 28 0 11 4;
#X connect 29 0 30 0;
#X connect 30 0 10 3;
#X connect 31 0 10 4;
#X connect 32 0 33 0;
#X connect 33 0 12 3;
#X connect 34 0 12 4;
#X connect 35 0 18 0;
#X connect 35 0 16 0;
#X connect 35 0 14 0;
#X connect 36 0 11 0;
#X connect 36 0 24 0;
#X connect 36 0 25 0;
#X connect 37 0 38 0;
#X connect 38 0 41 0;
#X connect 39 0 40 0;
#X connect 40 0 11 1;
#X connect 40 0 9 0;
#X connect 40 0 12 1;
#X connect 41 0 39 0;
