#N canvas 827 239 527 327 12;
#X floatatom 75 146 5 0 0 0 - - - 12;
#X obj 24 19 inlet;
#X floatatom 24 45 5 0 0 0 - - - 12;
#X obj 75 120 count;
#X msg 181 98 max \$1;
#X floatatom 181 72 5 0 0 0 - - - 12;
#X obj 181 45 - 1;
#X msg 1289 236;
#X obj 24 195 tabwrite \$1;
#X obj 181 19 array size \$1;
#X obj 24 72 t f b b;
#X text 284 18 Get current array size to set max value for counter in case array size has changed, f 25;
#X connect 0 0 8 1;
#X connect 1 0 2 0;
#X connect 2 0 10 0;
#X connect 3 0 0 0;
#X connect 4 0 3 0;
#X connect 5 0 4 0;
#X connect 6 0 5 0;
#X connect 9 0 6 0;
#X connect 10 0 8 0;
#X connect 10 1 3 0;
#X connect 10 2 9 0;
#X coords 0 0 1 1 176 139 0;
