#N canvas 827 239 527 327 12;
#X obj 59 36 inlet~;
#X obj 29 429 outlet~;
#X obj 59 126 car2pol~, f 11;
#X obj 59 311 pol2car~, f 11;
#X obj 59 78 snake~ out, f 11;
#X obj 59 351 snake~, f 10;
#X obj 234 60 knob 50 0 1 4 10 empty empty #E4E4E4 #B7B7B7 #4D4D4D 1 0 0 0 1 270 0 0 0;
#X floatatom 234 120 7 0 0 0 - - - 12;
#X obj 364 20 loadbang;
#X obj 29 385 select~;
#X obj 294 141 tgl 25 0 empty empty empty 17 7 0 10 #e4e4e4 #4d4d4d #373737 0 1;
#X obj 294 187 + 1;
#X floatatom 294 212 5 0 0 0 - - - 16;
#X obj 59 278 *~;
#X text 234 140 Enabled;
#X text 231 19 Average Amplitudes, f 12;
#X obj 59 229 sig~ 1;
#X obj 548 275 avg~;
#X obj 584 310 mov.avg~;
#X obj 722 294 print~;
#X obj 59 187 print~;
#X obj 79 154 bng 25 250 50 0 empty empty empty 17 7 0 10 #e4e4e4 #4d4d4d #373737;
#N canvas 0 0 450 250 (subpatch) 0;
#X array block 512 float 2;
#X coords 0 10 512 -10 200 140 1;
#X restore 645 27 graph;
#X obj 495 89 blocksize~;
#X obj 495 49 loadbang;
#X obj 463 49 bng 25 250 50 0 empty empty empty 17 7 0 10 #e4e4e4 #4d4d4d #373737;
#X floatatom 495 120 5 0 0 0 - - - 12;
#X msg 495 179 resize \$1;
#X obj 495 147 / 2;
#X obj 495 212 s block;
#X obj 330 354 tabsend~ block;
#X obj 722 242 expr~ avg("block");
#X obj 555 413 bng 25 250 50 0 empty empty empty 17 7 0 10 #e4e4e4 #4d4d4d #373737;
#X connect 0 0 4 0;
#X connect 0 0 9 0 32.................K.....7++++B.....++++2P....;
#X connect 2 0 20 0;
#X connect 2 0 30 0;
#X connect 2 1 3 1;
#X connect 3 0 5 0;
#X connect 3 1 5 1;
#X connect 4 0 2 0;
#X connect 4 1 2 1;
#X connect 5 0 9 1;
#X connect 6 0 7 0;
#X connect 7 0 13 1;
#X connect 8 0 10 0;
#X connect 8 0 6 0;
#X connect 9 0 1 0;
#X connect 10 0 11 0;
#X connect 11 0 12 0;
#X connect 12 0 9 0;
#X connect 13 0 3 0;
#X connect 16 0 13 0;
#X connect 21 0 20 0;
#X connect 23 0 26 0;
#X connect 24 0 23 0;
#X connect 25 0 23 0;
#X connect 26 0 28 0;
#X connect 27 0 29 0;
#X connect 28 0 27 0;
#X connect 31 0 19 0;
#X connect 32 0 19 0;
#X coords 0 0 1 1 106 160 2 221 10;
