#N canvas 827 239 527 327 12;
#X declare -stdpath ./;
#X obj 278 741 output~;
#X obj 1056 84 declare -stdpath ./;
#X obj 286 216 soundfiler;
#X obj 286 131 openpanel;
#X obj 286 96 bng 25 250 50 0 empty empty empty 17 7 0 10 #e4e4e4 #4d4d4d #373737;
#X msg 286 171 read -resize \$1 file;
#X obj 286 258 tgl 25 0 empty empty empty 17 7 0 10 #e4e4e4 #4d4d4d #373737 0 1;
#N canvas 0 0 450 250 (subpatch) 0;
#X array file 3.528e+06 float 2;
#X coords 0 1 3.528e+06 -1 200 140 1;
#X restore 426 96 graph;
#X obj 286 315 tabplayer~ -loop file;
#X obj 425 315 noise~;
#X obj 248 315 vradio 20 1 0 5 empty empty empty 0 -8 0 10 #e4e4e4 #4d4d4d #373737 0;
#X obj 286 363 select~ 4, f 63;
#X obj 705 315 sig~ 1;
#X obj 565 315 sig~ 0;
#X obj 757 553 dac~ 3 4;
#X obj 757 510 *~;
#X obj 768 442 knob 50 0 1 0 0 empty empty #E4E4E4 #B7B7B7 #4D4D4D 1 0 0 0 1 270 0 0 0;
#X obj 682 482 select~ 2;
#X obj 705 418 hradio 20 1 0 3 empty empty empty 0 -8 0 10 #e4e4e4 #4d4d4d #373737 0;
#X obj 278 699 select~ 2;
#X obj 208 657 hradio 20 1 1 3 empty empty empty 0 -8 0 10 #e4e4e4 #4d4d4d #373737 2;
#X obj 321 442 vari-block;
#X connect 3 0 5 0;
#X connect 4 0 3 0;
#X connect 5 0 2 0;
#X connect 6 0 8 0;
#X connect 8 0 11 0;
#X connect 9 0 11 1;
#X connect 10 0 11 0;
#X connect 11 0 19 0;
#X connect 11 0 17 0 32.................d....vX...fG....LF...PF....;
#X connect 11 0 21 0 32.................v....LB....L....i....vC....;
#X connect 12 0 11 3;
#X connect 13 0 11 2;
#X connect 15 0 14 0;
#X connect 15 0 14 1;
#X connect 16 0 15 1;
#X connect 17 0 15 0;
#X connect 18 0 17 0;
#X connect 19 0 0 0;
#X connect 20 0 19 0;
#X connect 21 0 19 1;
#X connect 21 0 17 1 48.................Q....3T...PD....NE...T2+++ujA...08+++KY....f++++;
