#N canvas 0 50 450 300 12;
#X obj 231 377 outlet;
#X obj 130 65 loadbang;
#X obj 6 20 bng 20 250 50 0 empty empty empty 17 7 0 10 #e4e4e4 #4d4d4d #373737;
#N canvas 0 50 450 300 links 1;
#X obj 32 45 inlet;
#X obj 88 109 for;
#X obj 32 72 bng 25 250 50 0 empty empty empty 17 7 0 10 #e4e4e4 #4d4d4d #373737;
#X obj 32 109 f \$1;
#X obj 32 141 - 1;
#X obj 88 187 t f f, f 6;
#X obj 88 254 pack, f 9;
#X obj 109 219 + 1;
#X obj 88 141 - 1;
#X obj 88 324 outlet;
#X msg 88 292 link link-\$1 \$1 \$2 0.5 0.5;
#X connect 0 0 2 0;
#X connect 1 1 8 0;
#X connect 2 0 3 0;
#X connect 3 0 4 0;
#X connect 4 0 1 0;
#X connect 5 0 6 0;
#X connect 5 1 7 0;
#X connect 6 0 10 0;
#X connect 7 0 6 1;
#X connect 8 0 5 0;
#X connect 10 0 9 0;
#X restore 165 236 pd links;
#N canvas 0 50 450 300 masses 1;
#X obj 68 48 inlet;
#X obj 159 201 outlet;
#X obj 68 131 for;
#X obj 159 48 bng 25 250 50 0 empty empty empty 17 7 0 10 #e4e4e4 #4d4d4d #373737;
#X obj 68 98 f \$1;
#X obj 68 162 - 1;
#X obj 159 129 pack f \$2;
#X msg 159 162 mass mass-\$1 1 \$2 0;
#X connect 0 0 4 0;
#X connect 2 1 5 0;
#X connect 3 0 4 0;
#X connect 4 0 2 0;
#X connect 5 0 6 0;
#X connect 6 0 7 0;
#X connect 7 0 1 0;
#X restore 200 196 pd masses;
#N canvas 0 50 450 300 fix-masses 1;
#X msg 165 310 setFixed 0;
#X msg 227 251 setFixed \$1;
#X obj 227 219 - 1;
#X obj 129 106 select 0 1 2, f 19;
#X obj 238 138 print can't fix that number of masses:;
#X obj 227 187 f \$1;
#X obj 129 37 inlet;
#X obj 165 372 outlet;
#X text 318 250 Fix the last mass;
#X text 42 309 Fix the first mass;
#X obj 129 75 f \$3;
#X connect 0 0 7 0;
#X connect 1 0 7 0;
#X connect 2 0 1 0;
#X connect 3 1 0 0;
#X connect 3 2 5 0;
#X connect 3 2 0 0;
#X connect 3 3 4 0;
#X connect 5 0 2 0;
#X connect 6 0 10 0;
#X connect 10 0 3 0;
#X restore 130 273 pd fix-masses;
#X msg 289 196 reset;
#X obj 130 134 t b b b b, f 18;
#X text 279 19 \$1: number of masses \, \$2: weight of masses \, \$3: number of ends to fix, f 22;
#X connect 1 0 7 0;
#X connect 2 0 7 0;
#X connect 3 0 0 0 32.................K....HD...vB....BA...nG....;
#X connect 4 0 0 0 32.................N....bL...fC....GC....P....;
#X connect 5 0 0 0;
#X connect 6 0 0 0;
#X connect 7 0 5 0;
#X connect 7 1 3 0;
#X connect 7 2 4 0;
#X connect 7 3 6 0;
#X coords 0 0 1 1 137 47 1 0 0;
