#N canvas 827 239 527 327 12;
#X obj 355 324 bng 19 250 50 0 empty empty empty 0 -8 0 10 #dfdfdf #000000 #000000;
#X obj 319 617 noteout;
#X obj 251 412 rand.i 48 72;
#X obj 319 499 makenote, f 20;
#X obj 352 354 t b b b;
#X obj 335 220 sel 0;
#X floatatom 440 532 5 0 0 0 - - - 12;
#X floatatom 319 532 5 0 0 0 - - - 12;
#X obj 349 412 rand.i 20 120;
#X floatatom 285 453 5 0 0 0 - - - 12;
#X floatatom 364 453 5 0 0 0 - - - 12;
#X floatatom 447 453 5 0 0 0 - - - 12;
#X floatatom 537 618 5 0 0 0 - - - 12;
#X obj 496 583 bng 25 250 50 0 empty empty empty 17 7 0 10 #e4e4e4 #4d4d4d #373737;
#X obj 319 569 t b f;
#X msg 537 583 set \$1;
#X obj 454 412 rand.i 10 200;
#X obj 335 197 spigot;
#X obj 62 92 tgl 25 0 empty empty empty 17 7 0 10 #e4e4e4 #4d4d4d #373737 0 1;
#X obj 125 1 loadbang;
#X obj 12 42 vsl 17 128 1 10000 1 0 empty empty Max\ Note\ Length 0 -9 0 10 #e4e4e4 #4d4d4d #373737 0 1;
#X floatatom 8 182 8 0 0 0 - - - 12;
#X obj 245 220 inlet;
#X obj 290 324 delay;
#X floatatom 245 257 5 0 0 0 - - - 12;
#X obj 139 221 inlet;
#X floatatom 139 258 5 0 0 0 - - - 12;
#X text 76 218 Min note length in msec, f 10;
#X obj 502 140 sel 1;
#X text 192 218 Release time, f 7;
#X msg 125 26 1000;
#X obj 125 182 * 0.3;
#X obj 230 182 * 0.1;
#X connect 0 0 4 0;
#X connect 2 0 9 0;
#X connect 3 0 7 0;
#X connect 3 1 6 0;
#X connect 4 0 2 0;
#X connect 4 1 8 0;
#X connect 4 2 16 0;
#X connect 5 0 23 0;
#X connect 6 0 1 1;
#X connect 6 0 15 0;
#X connect 7 0 14 0;
#X connect 8 0 10 0;
#X connect 9 0 3 0;
#X connect 10 0 3 1;
#X connect 11 0 3 2;
#X connect 12 0 17 0 64.................Z....nC...fF....5....Tq+++uN....05+++qC....N9+++27+++ii++++M++++J4+++C;
#X connect 13 0 12 0;
#X connect 14 0 13 0;
#X connect 14 1 1 0;
#X connect 15 0 12 0;
#X connect 16 0 11 0;
#X connect 17 0 5 0;
#X connect 18 0 17 1;
#X connect 18 0 28 0;
#X connect 19 0 30 0;
#X connect 20 0 21 0;
#X connect 21 0 16 2;
#X connect 22 0 24 0;
#X connect 23 0 0 0;
#X connect 24 0 23 1;
#X connect 25 0 26 0;
#X connect 26 0 16 1;
#X connect 28 0 0 0;
#X connect 30 0 20 0;
#X connect 30 0 31 0;
#X connect 30 0 32 0;
#X connect 31 0 26 0;
#X connect 32 0 24 0;
#X coords 0 0 1 1 103 204 1 0 0;
