#N canvas 827 239 527 327 12;
#X obj 219 87 inlet~;
#X obj 219 215 car2pol~, f 11;
#X obj 372 100 knob 50 0 1 2 1 empty empty #E4E4E4 #B7B7B7 #4D4D4D 1 0 0 0 1 270 0 0 0;
#X obj 219 167 snake~ out, f 11;
#X floatatom 372 159 5 0 0 0 - - - 12;
#X obj 463 66 loadbang;
#X obj 411 191 tgl 25 0 empty empty empty 17 7 0 10 #e4e4e4 #4d4d4d #373737 0 1;
#X obj 411 245 + 1;
#X floatatom 411 270 5 0 0 0 - - - 12;
#X text 358 197 Enabled;
#X obj 119 87 inlet~;
#X obj 90 452 outlet~;
#X obj 120 216 car2pol~, f 11;
#X obj 120 334 pol2car~, f 11;
#X obj 120 168 snake~ out, f 11;
#X obj 120 374 snake~, f 10;
#X obj 90 408 select~;
#X obj 120 270 *~;
#X obj 173 270 +~;
#X obj 219 131 *~;
#X text 372 65 Multiply;
#X connect 0 0 19 0;
#X connect 1 0 17 1;
#X connect 1 1 18 1;
#X connect 2 0 4 0;
#X connect 3 0 1 0;
#X connect 3 1 1 1;
#X connect 4 0 19 1;
#X connect 5 0 2 0;
#X connect 5 0 7 0;
#X connect 6 0 7 0;
#X connect 7 0 8 0;
#X connect 8 0 16 0;
#X connect 10 0 14 0;
#X connect 10 0 16 0 32.................Q....P9+++eD....j++++6R....;
#X connect 12 0 17 0;
#X connect 12 1 18 0;
#X connect 13 0 15 0;
#X connect 13 1 15 1;
#X connect 14 0 12 0;
#X connect 14 1 12 1;
#X connect 15 0 16 1;
#X connect 16 0 11 0;
#X connect 17 0 13 0;
#X connect 18 0 13 1;
#X connect 19 0 3 0;
#X coords 0 0 1 1 91 160 2 350 62;
