#N canvas 827 239 527 327 12;
#X obj 64 52 inlet~;
#X obj 34 445 outlet~;
#X obj 64 142 car2pol~, f 11;
#X obj 64 327 pol2car~, f 11;
#X obj 64 94 snake~ out, f 11;
#X obj 64 367 snake~, f 10;
#X obj 239 76 knob 50 0 4000 4 10 empty empty #E4E4E4 #B7B7B7 #4D4D4D 1 0 0 0 1 270 0 0 0;
#X floatatom 239 142 5 0 0 0 - - - 12;
#X obj 369 36 loadbang;
#X obj 34 401 select~;
#X obj 312 167 tgl 25 0 empty empty empty 17 7 0 10 #e4e4e4 #4d4d4d #373737 0 1;
#X obj 302 227 + 1;
#X floatatom 302 252 5 0 0 0 - - - 16;
#X text 253 42 Threshold;
#X obj 64 294 *~;
#X obj -102 193 fexpr~ $x1[0] < $f2;
#X obj -240 193 fexpr~ $x1[0] > $f2;
#X text 249 172 Enabled;
#X obj -240 227 select~;
#X obj 312 76 vradio 25 1 0 2 empty empty empty 0 -8 0 10 #e4e4e4 #4d4d4d #373737 0;
#X obj 369 76 + 1;
#X floatatom 369 101 5 0 0 0 - - - 16;
#X text 300 76 >;
#X text 300 101 <;
#X connect 0 0 4 0;
#X connect 0 0 9 0 32.................K.....7++++B.....++++2P....;
#X connect 2 0 14 0;
#X connect 2 0 15 0;
#X connect 2 0 16 0;
#X connect 2 1 3 1;
#X connect 3 0 5 0;
#X connect 3 1 5 1;
#X connect 4 0 2 0;
#X connect 4 1 2 1;
#X connect 5 0 9 1;
#X connect 6 0 7 0;
#X connect 7 0 15 1;
#X connect 7 0 16 1;
#X connect 8 0 10 0;
#X connect 8 0 6 0;
#X connect 8 0 19 0;
#X connect 9 0 1 0;
#X connect 10 0 11 0;
#X connect 11 0 12 0;
#X connect 12 0 9 0;
#X connect 14 0 3 0;
#X connect 15 0 18 1;
#X connect 16 0 18 0;
#X connect 18 0 14 1;
#X connect 19 0 20 0;
#X connect 20 0 21 0;
#X connect 21 0 18 0;
#X coords 0 0 1 1 112 163 2 231 36;
