#N canvas 827 239 527 327 12;
#X obj 370 85 inlet~;
#X obj 340 478 outlet~;
#X obj 370 175 car2pol~, f 11;
#X obj 370 360 pol2car~, f 11;
#X obj 370 127 snake~ out, f 11;
#X obj 370 400 snake~, f 10;
#X obj 545 109 knob 50 0 4000 4 10 empty empty #E4E4E4 #B7B7B7 #4D4D4D 1 0 0 0 1 270 0 0 0;
#X floatatom 545 175 5 0 0 0 - - - 12;
#X obj 675 69 loadbang;
#X obj 340 434 select~;
#X obj 618 200 tgl 25 0 empty empty empty 17 7 0 10 #e4e4e4 #4d4d4d #373737 0 1;
#X obj 608 260 + 1;
#X floatatom 608 285 5 0 0 0 - - - 16;
#X text 559 75 Threshold;
#X obj 370 327 *~;
#X text 555 205 Enabled;
#X obj 66 260 select~;
#X obj 618 109 vradio 25 1 0 2 empty empty empty 0 -8 0 10 #e4e4e4 #4d4d4d #373737 0;
#X obj 675 109 + 1;
#X floatatom 675 134 5 0 0 0 - - - 16;
#X text 606 109 >;
#X text 606 134 <;
#X obj 66 381 print~;
#X obj 16 381 bng 25 250 50 0 empty empty empty 17 7 0 10 #e4e4e4 #4d4d4d #373737;
#X obj 66 226 fexpr~ $x1 > $f2;
#X obj 204 226 fexpr~ $x1 < $f2;
#X text 66 145 Current sample (i.e. frequency bin) greater than (or less than) threshold parameter, f 35;
#X connect 0 0 4 0;
#X connect 0 0 9 0 32.................K.....7++++B.....++++2P....;
#X connect 2 0 14 0;
#X connect 2 0 24 0;
#X connect 2 0 25 0;
#X connect 2 1 3 1;
#X connect 3 0 5 0;
#X connect 3 1 5 1;
#X connect 4 0 2 0;
#X connect 4 1 2 1;
#X connect 5 0 9 1;
#X connect 6 0 7 0;
#X connect 7 0 24 1;
#X connect 7 0 25 1;
#X connect 8 0 10 0;
#X connect 8 0 6 0;
#X connect 8 0 17 0;
#X connect 9 0 1 0;
#X connect 10 0 11 0;
#X connect 11 0 12 0;
#X connect 12 0 9 0;
#X connect 14 0 3 0;
#X connect 16 0 14 1;
#X connect 17 0 18 0;
#X connect 18 0 19 0;
#X connect 19 0 16 0;
#X connect 23 0 22 0;
#X connect 24 0 16 0;
#X connect 24 0 22 0;
#X connect 25 0 16 1;
#X coords 0 0 1 1 112 162 2 537 67;
