#N canvas 827 239 527 327 12;
#X obj 174 302 cnv 15 482 188 empty empty empty 20 12 0 14 #00b795 #373737 0;
#N canvas 0 0 450 300 (subpatch) 0;
#X array \$0-hann 1024 float 0;
#X coords 0 1 1023 0 200 120 1;
#X restore 449 155 graph;
#X msg 270 383 0;
#X obj 210 383 osc~;
#X obj 217 255 samplerate~;
#X obj 210 417 *~ -0.5;
#X obj 210 440 +~ 0.5;
#X text 422 146 1;
#X text 422 263 0;
#X floatatom 210 350 15 0 0 0 - - - 12;
#X obj 207 319 /;
#X floatatom 132 150 10 0 0 0 - - - 16;
#X obj 132 183 t b f;
#X msg 663 155 const 1;
#X obj 240 120 pack f \$0;
#X obj 132 120 t f f;
#X obj 132 75 inlet;
#X msg 240 150 \; \$2-hann resize \$1;
#X obj 663 186 s \$0-hann;
#X obj 181 507 tabwrite~ \$0-hann;
#X obj 54 536 outlet;
#X obj 54 507 symbol \$0-hann;
#X obj 54 474 bng 25 250 50 0 empty empty empty 17 7 0 10 #e4e4e4 #4d4d4d #373737;
#X text 12 74 Current Block size;
#X text 494 276 Window Function;
#X text 340 319 Computing Hann window: Generate one period of of a cosine wave normalised between 0 and 1 \, with a frequency of Sample Rate / FFT Size (i.e. a period of (FFT Size / Sample Rate) seconds \, one block long at the current block size and sample rate), f 45;
#X obj 132 218 t b b b b, f 28;
#X connect 2 0 3 1;
#X connect 3 0 5 0;
#X connect 4 0 10 0;
#X connect 5 0 6 0;
#X connect 6 0 19 0;
#X connect 9 0 3 0;
#X connect 10 0 9 0;
#X connect 11 0 12 0;
#X connect 12 0 26 0;
#X connect 12 1 10 1;
#X connect 13 0 18 0;
#X connect 14 0 17 0;
#X connect 15 0 11 0;
#X connect 15 1 14 0;
#X connect 16 0 15 0;
#X connect 21 0 20 0;
#X connect 22 0 21 0;
#X connect 26 0 22 0;
#X connect 26 1 19 0;
#X connect 26 2 4 0;
#X connect 26 3 2 0;
#X coords 0 0 1 1 205 148 2 446 151;
