#N canvas 827 239 527 327 12;
#X obj 388 27 inlet~;
#X obj 106 436 outlet~;
#X obj 388 117 car2pol~, f 11;
#X obj 388 302 pol2car~, f 11;
#X obj 388 69 snake~ out, f 11;
#X obj 388 342 snake~, f 10;
#X obj 751 361 loadbang;
#X obj 106 376 select~, f 43;
#X obj 595 405 tgl 25 0 empty empty empty 17 7 0 10 #e4e4e4 #4d4d4d #373737 0 1;
#X obj 596 496 + 1;
#X floatatom 596 521 5 0 0 0 - - - 16;
#X text 532 408 Enabled;
#X obj 495 27 inlet;
#X obj 596 24 pack f \$0;
#X obj 495 85 t f f;
#X obj 495 211 range-knob;
#X msg 495 636 start \$1;
#X msg 751 636 start \$1;
#X floatatom 495 376 5 0 0 0 - - - 12;
#X floatatom 583 376 5 0 0 0 - - - 12;
#X msg 899 636 const 1;
#X obj 751 587 t f b;
#X msg 635 636 const 0;
#X obj 495 587 t f b;
#X obj 388 187 *~;
#X obj 814 636 sig~ 0;
#X obj 561 636 sig~ 1;
#X text 486 186 Frequency Bin Selector;
#X obj 495 55 / 2;
#X obj 714 24 inlet;
#X text 751 21 Knob exponent (power of two);
#X obj 495 689 tabwrite~ \$0-hi-pass;
#X obj 635 689 s \$0-hi-pass;
#X obj 751 689 tabwrite~ \$0-lo-pass;
#X obj 899 689 s \$0-lo-pass;
#X obj 156 302 tabsend~ \$0-filtered;
#X obj 596 69 s \$0-period;
#N canvas 0 0 450 250 (subpatch) 0;
#X array \$0-hi-pass 512 float 2;
#X coords 0 1.1 512 -0.1 200 140 1;
#X restore 1080 55 graph;
#N canvas 0 0 450 250 (subpatch) 0;
#X array \$0-lo-pass 512 float 2;
#X coords 0 1.1 512 -0.1 200 140 1;
#X restore 1080 222 graph;
#N canvas 0 0 450 250 (subpatch) 0;
#X array \$0-filtered 512 float 2;
#X coords 0 1.1 512 -0.1 200 140 1;
#X restore 1080 569 graph;
#N canvas 0 0 450 250 (subpatch) 0;
#X array \$0-band-pass 512 float 2;
#X coords 0 1.1 512 -0.1 200 140 1;
#X restore 1080 392 graph;
#X obj 498 844 tabreceive~ \$0-hi-pass;
#X obj 658 844 tabreceive~ \$0-lo-pass;
#X obj 498 895 *~;
#X msg 865 55 \; \$2-hi-pass resize \$1 \; \$2-lo-pass resize \$1 \; \$2-band-pass resize \$1 \; \$2-filtered resize \$1, f 25;
#X obj 156 134 tabreceive~ \$0-band-pass;
#X obj 248 689 write-bandpass \$0-band-pass;
#X connect 0 0 4 0;
#X connect 0 0 7 0 32.................K.....7++++B.....++++2P....;
#X connect 2 0 24 0;
#X connect 2 1 3 1;
#X connect 3 0 5 0;
#X connect 3 1 5 1;
#X connect 4 0 2 0;
#X connect 4 1 2 1;
#X connect 5 0 7 1;
#X connect 6 0 8 0;
#X connect 7 0 1 0;
#X connect 8 0 9 0;
#X connect 9 0 10 0;
#X connect 10 0 7 0;
#X connect 12 0 28 0;
#X connect 13 0 44 0;
#X connect 14 0 15 0;
#X connect 14 1 13 0;
#X connect 14 1 36 0;
#X connect 15 0 18 0;
#X connect 15 1 19 0;
#X connect 16 0 31 0;
#X connect 17 0 33 0;
#X connect 18 0 23 0;
#X connect 19 0 21 0;
#X connect 20 0 34 0;
#X connect 21 0 17 0;
#X connect 21 1 20 0;
#X connect 22 0 32 0;
#X connect 23 0 16 0;
#X connect 23 1 22 0;
#X connect 24 0 35 0;
#X connect 24 0 3 0;
#X connect 25 0 33 0;
#X connect 26 0 31 0;
#X connect 28 0 14 0;
#X connect 29 0 15 1;
#X connect 41 0 43 0;
#X connect 42 0 43 1;
#X connect 45 0 24 1;
#X coords 0 0 1 1 147 254 2 485 184;
