#N canvas 827 239 527 327 12;
#X obj 127 484 outlet~;
#X floatatom 349 332 5 0 0 0 - - - 12;
#X obj 349 302 unpack f f;
#X floatatom 412 332 5 0 0 0 - - - 12;
#X obj 213 393 select~;
#X msg 584 394 0.375;
#X obj 470 331 t b f;
#X obj 127 443 *~;
#X obj 213 347 sig~ 1;
#X floatatom 349 394 22 0 0 0 - - - 12;
#X obj 349 274 r \$0-block-params;
#X obj 551 285 t b f;
#X msg 554 394 1;
#X floatatom 470 303 5 0 0 0 - - - 12;
#X obj 551 239 r \$0-windowing;
#X obj 125 51 inlet~;
#X text 175 49 Signal after FFT;
#X obj 499 50 inlet;
#X obj 499 105 s \$0-block-params;
#X obj 366 50 inlet;
#X obj 366 105 s \$0-normalise;
#X text 314 49 On/Off:;
#X obj 160 316 r \$0-normalise;
#X obj 649 49 inlet;
#X obj 649 104 s \$0-windowing;
#X obj 160 347 + 1;
#X obj 281 347 sig~;
#X obj 551 331 router 2;
#X obj 349 362 expr 1/($f1 * $f2 * $f3);
#X connect 1 0 28 0;
#X connect 2 0 1 0;
#X connect 2 1 3 0;
#X connect 3 0 28 1;
#X connect 4 0 7 1;
#X connect 5 0 13 0;
#X connect 6 0 28 0;
#X connect 6 1 28 2;
#X connect 7 0 0 0;
#X connect 8 0 4 0;
#X connect 9 0 26 0;
#X connect 10 0 2 0;
#X connect 11 0 27 0;
#X connect 11 1 27 1;
#X connect 12 0 13 0;
#X connect 13 0 6 0;
#X connect 14 0 11 0;
#X connect 15 0 7 0;
#X connect 17 0 18 0;
#X connect 19 0 20 0;
#X connect 22 0 25 0;
#X connect 23 0 24 0;
#X connect 25 0 4 0;
#X connect 26 0 4 1;
#X connect 27 0 12 0;
#X connect 27 1 5 0;
#X connect 28 0 9 0;
