#N canvas 827 239 527 327 12;
#X obj 133 78 inlet~;
#X obj 133 333 outlet~;
#X obj 133 109 snake~ out;
#X obj 133 296 snake~, f 10;
#X obj 537 218 soundfiler;
#X obj 537 150 openpanel;
#X obj 537 115 bng 25 250 50 0 empty empty empty 17 7 0 10 #e4e4e4 #4d4d4d #373737;
#X msg 537 177 read -resize \$1 file;
#X obj 537 277 tgl 25 0 empty empty empty 17 7 0 10 #e4e4e4 #4d4d4d #373737 0 1;
#N canvas 0 0 450 250 (subpatch) 0;
#X array file 3.53954e+06 float 2;
#X coords 0 1 3.53954e+06 -1 200 140 1;
#X restore 677 115 graph;
#X obj 537 334 tabplayer~ -loop file;
#X floatatom 655 635 5 0 0 0 - - - 0;
#X obj 660 608 hsl 128 15 0.01 4 1 0 empty empty empty -2 -8 0 10 #dcdcdc #000000 #000000 0 1;
#X floatatom 570 631 5 0 0 0 - - - 16;
#X obj 575 573 hsl 128 15 0 1 1 0 empty empty empty -2 -8 0 12 #dcdcdc #000000 #000000 0 1;
#X text 600 570 Threshold;
#X obj 531 661 fftease/drown~ 2048 4;
#X obj 436 738 output~;
#X msg 578 448 adaptive \$1;
#X obj 578 419 tgl 17 0 empty empty empty 17 7 0 10 #dcdcdc #000000 #000000 0 1;
#X msg 600 505 mute \$1;
#X obj 600 479 tgl 17 0 empty empty empty 17 7 0 10 #dcdcdc #000000 #000000 0 1;
#X text 600 419 <= adaptive mode;
#X text 625 479 <= turns off the object (saving CPU cycles);
#X msg 629 608 1;
#X obj 393 456 pileup~;
#X connect 0 0 2 0;
#X connect 3 0 1 0;
#X connect 5 0 7 0;
#X connect 6 0 5 0;
#X connect 7 0 4 0;
#X connect 8 0 10 0;
#X connect 10 0 16 0;
#X connect 10 0 25 0;
#X connect 11 0 16 2;
#X connect 12 0 11 0;
#X connect 13 0 16 1;
#X connect 14 0 13 0;
#X connect 16 0 17 0;
#X connect 16 0 17 1;
#X connect 18 0 16 0;
#X connect 19 0 18 0;
#X connect 20 0 16 0;
#X connect 21 0 20 0;
#X connect 24 0 12 0;
