#N canvas 827 239 527 327 12;
#X obj 253 106 inlet~;
#X obj 253 488 outlet~;
#X obj 695 91 loadbang;
#X obj 253 444 select~;
#X obj 638 222 tgl 25 0 empty empty empty 17 7 0 10 #e4e4e4 #4d4d4d #373737 0 1;
#X obj 628 282 + 1;
#X floatatom 628 307 5 0 0 0 - - - 16;
#X text 575 225 Enabled;
#N canvas 0 0 450 250 (subpatch) 0;
#X array \$0-real 1024 float 2;
#X coords 0 1 1024 -1 200 140 1;
#X restore 877 53 graph;
#X obj 1091 53 r block-params;
#X obj 1091 82 unpack f;
#X msg 1091 130 resize \$1;
#X obj 1091 173 s \$0-real;
#N canvas 0 0 450 250 (subpatch) 0;
#X array \$0-imag 1024 float 2;
#X coords 0 1 1024 -1 200 140 1;
#X restore 877 220 graph;
#X obj 1172 173 s \$0-imag;
#X obj 283 393 tabreceive~ \$0-real \$0-imag;
#N canvas 0 50 450 300 freezer 0;
#X obj 115 52 inlet~;
#X obj 115 164 tabsend~ \$0-real \$0-imag;
#X obj 180 111 switch~;
#X obj 180 52 inlet;
#X obj 180 82 expr 1 - $i1;
#X connect 0 0 1 0;
#X connect 3 0 4 0;
#X connect 4 0 2 0;
#X restore 297 226 pd freezer;
#X obj 638 130 tgl 25 0 empty empty empty 17 7 0 10 #e4e4e4 #4d4d4d #373737 0 1;
#X connect 0 0 16 0;
#X connect 0 0 3 0;
#X connect 2 0 4 0;
#X connect 3 0 1 0;
#X connect 4 0 5 0;
#X connect 5 0 6 0;
#X connect 6 0 3 0 32.................q....nn++++J....J5+++OG....;
#X connect 9 0 10 0;
#X connect 10 0 11 0;
#X connect 11 0 12 0;
#X connect 11 0 14 0;
#X connect 15 0 3 1;
#X connect 17 0 16 1;
#X coords 0 0 1 1 117 158 2 559 103;
