#N canvas 827 239 527 327 12;
#X obj 203 75 inlet~;
#X obj 173 494 outlet~;
#X obj 203 165 car2pol~, f 11;
#X obj 203 376 pol2car~, f 11;
#X obj 203 117 snake~ out, f 11;
#X obj 203 416 snake~, f 10;
#X obj 610 75 loadbang;
#X obj 173 450 select~;
#X obj 535 142 tgl 25 0 empty empty empty 17 7 0 10 #e4e4e4 #4d4d4d #373737 0 1;
#X obj 535 278 + 1;
#X floatatom 535 303 5 0 0 0 - - - 12;
#X text 476 141 Enabled;
#N canvas 0 0 450 250 (subpatch) 0;
#X array \$0-mag 2048 float 2;
#X coords 0 100 2048 0 200 140 1;
#X restore 736 50 graph;
#X obj 1183 80 r block-params;
#X obj 1183 142 pack f \$0;
#X obj 1183 110 unpack f;
#X obj 654 287 bng 25 250 50 0 empty empty empty 17 7 0 10 #e4e4e4 #4d4d4d #373737;
#X obj 716 275 pack f \$0;
#X msg 716 316 \; \$2-normalise normalize;
#N canvas 0 0 450 250 (subpatch) 0;
#X array \$0-rect 2048 float 2;
#X coords 0 1 2048 -1 200 140 1;
#X restore 1241 579 graph;
#X msg 1454 177 \; \$2-rect resize \$1;
#X msg 738 522 0;
#X obj 736 493 loadbang;
#X floatatom 494 203 9 0 0 0 - - - 16;
#X obj 654 493 metro 500;
#X obj 654 450 tgl 25 0 empty empty empty 17 7 0 10 #e4e4e4 #4d4d4d #373737 0 1;
#X obj 656 677 bang~;
#X obj 22 215 tabsend~ \$0-mag;
#X msg 1183 177 \; \$2-mag resize \$1;
#N canvas 0 0 450 250 (subpatch) 0;
#X array \$0-phase 2048 float 2;
#X coords 0 7 2048 -7 200 140 1;
#X restore 956 50 graph;
#X msg 1314 177 \; \$2-phase resize \$1;
#X obj 284 215 tabsend~ \$0-phase;
#X obj 736 555 value max_mag;
#X obj 656 747 expr max_mag = max(abs($f1) \, max_mag);
#X obj 203 246 expr~ $v1/max_mag;
#X obj 656 711 array max \$0-mag;
#X floatatom 443 203 5 0 0 0 - - - 12;
#X obj 203 331 *~;
#X obj 768 425 loadbang;
#X text 476 116 Limiter;
#X text 495 176 Max:;
#X text 443 239 Reset:;
#X obj 494 240 bng 25 250 50 0 empty empty empty 17 7 0 10 #e4e4e4 #4d4d4d #373737;
#X connect 0 0 4 0;
#X connect 0 0 7 0 32.................O....L9++++C....i++++eP....;
#X connect 2 0 27 0;
#X connect 2 0 34 0;
#X connect 2 1 3 1;
#X connect 2 1 31 0;
#X connect 3 0 5 0;
#X connect 3 1 5 1;
#X connect 4 0 2 0;
#X connect 4 1 2 1;
#X connect 5 0 7 1;
#X connect 6 0 8 0;
#X connect 7 0 1 0;
#X connect 8 0 9 0;
#X connect 9 0 10 0;
#X connect 10 0 7 0;
#X connect 13 0 15 0;
#X connect 14 0 28 0;
#X connect 14 0 20 0;
#X connect 14 0 30 0;
#X connect 15 0 14 0;
#X connect 16 0 17 0;
#X connect 17 0 18 0;
#X connect 21 0 32 0;
#X connect 22 0 21 0;
#X connect 24 0 32 0;
#X connect 25 0 24 0;
#X connect 26 0 35 0;
#X connect 32 0 23 0;
#X connect 34 0 37 0;
#X connect 35 0 33 0;
#X connect 36 0 37 1;
#X connect 37 0 3 0;
#X connect 38 0 24 0;
#X connect 42 0 21 0;
#X coords 0 0 1 1 155 169 2 438 105;
