#N canvas 827 239 527 327 12;
#X obj 130 39 inlet~;
#X obj 100 365 outlet~;
#X obj 130 129 car2pol~, f 11;
#X obj 130 247 pol2car~, f 11;
#X obj 130 81 snake~ out, f 11;
#X obj 130 287 snake~, f 10;
#X obj 274 66 knob 50 0 1000 4 1 empty empty #E4E4E4 #B7B7B7 #4D4D4D 1 0 0 0 1 270 0 0 0;
#X obj 130 187 *~;
#X floatatom 274 129 5 0 0 0 - - - 12;
#X obj 386 39 loadbang;
#X obj 100 321 select~;
#X obj 311 164 tgl 25 0 empty empty empty 17 7 0 10 #e4e4e4 #4d4d4d #373737 0 1;
#X obj 311 195 + 1;
#X floatatom 311 220 5 0 0 0 - - - 12;
#X text 256 170 Enabled;
#X text 282 38 Gain;
#X connect 0 0 4 0;
#X connect 0 0 10 0 32.................K.....7++++B.....++++2P....;
#X connect 2 0 7 0 32.................U....n4+++eE....Z9+++KE....;
#X connect 2 1 3 1;
#X connect 3 0 5 0;
#X connect 3 1 5 1;
#X connect 4 0 2 0;
#X connect 4 1 2 1;
#X connect 5 0 10 1;
#X connect 6 0 8 0;
#X connect 7 0 3 0;
#X connect 8 0 7 1;
#X connect 9 0 6 0;
#X connect 9 0 11 0;
#X connect 10 0 1 0;
#X connect 11 0 12 0;
#X connect 12 0 13 0;
#X connect 13 0 10 0;
#X coords 0 0 1 1 91 160 2 251 32;
