#N canvas 827 239 527 327 12;
#X obj 388 27 inlet~;
#X obj 358 420 outlet~;
#X obj 388 117 car2pol~, f 11;
#X obj 388 302 pol2car~, f 11;
#X obj 388 69 snake~ out, f 11;
#X obj 388 342 snake~, f 10;
#X obj 564 214 knob 50 0 511 0 0 empty empty #E4E4E4 #B7B7B7 #4D4D4D 1 0 0 0 1 270 0 0 0;
#X floatatom 564 295 5 0 0 0 - - - 12;
#X obj 694 157 loadbang;
#X obj 358 376 select~;
#X obj 637 320 tgl 25 0 empty empty empty 17 7 0 10 #e4e4e4 #4d4d4d #373737 0 1;
#X obj 627 380 + 1;
#X floatatom 627 405 5 0 0 0 - - - 16;
#X obj 388 269 *~;
#X text 574 325 Enabled;
#X obj 637 229 vradio 25 1 0 2 empty empty empty 0 -8 0 10 #e4e4e4 #4d4d4d #373737 0;
#X obj 694 229 + 1;
#X floatatom 694 254 5 0 0 0 - - - 16;
#X text 625 229 >;
#X text 625 254 <;
#X obj 84 323 print~;
#X obj 34 323 bng 25 250 50 0 empty empty empty 17 7 0 10 #e4e4e4 #4d4d4d #373737;
#X text 543 188 Frequency bin;
#X obj 495 27 inlet;
#X msg 495 157 range 0 \$1;
#X obj 495 117 - 1;
#N canvas 0 0 450 250 (subpatch) 0;
#X array \$0-bin-amps 512 float 2;
#X coords 0 1 512 0 200 140 1;
#X restore 496 483 graph;
#X obj 826 88 pack f \$0;
#X msg 826 133 \; \$2-bin-amps resize \$1;
#X obj 117 196 tabreceive~ \$0-bin-amps;
#X obj 907 352 tabwrite \$0-bin-amps;
#X floatatom 907 320 5 0 1 0 - - - 12;
#X obj 495 56 / 2;
#X obj 495 88 t f f;
#X msg 1165 343 const 0, f 10;
#X obj 1165 396 s \$0-bin-amps;
#X obj 801 320 t b f b;
#X obj 564 272 int;
#X connect 0 0 4 0;
#X connect 0 0 9 0 32.................K.....7++++B.....++++2P....;
#X connect 2 0 13 0;
#X connect 2 1 3 1;
#X connect 3 0 5 0;
#X connect 3 1 5 1;
#X connect 4 0 2 0;
#X connect 4 1 2 1;
#X connect 5 0 9 1;
#X connect 6 0 37 0;
#X connect 7 0 36 0;
#X connect 8 0 10 0;
#X connect 8 0 15 0;
#X connect 8 0 6 0;
#X connect 9 0 1 0;
#X connect 10 0 11 0;
#X connect 11 0 12 0;
#X connect 12 0 9 0;
#X connect 13 0 3 0;
#X connect 15 0 16 0;
#X connect 16 0 17 0;
#X connect 21 0 20 0;
#X connect 23 0 32 0;
#X connect 24 0 6 0;
#X connect 25 0 24 0;
#X connect 27 0 28 0;
#X connect 29 0 13 1;
#X connect 31 0 30 0;
#X connect 32 0 33 0;
#X connect 33 0 25 0;
#X connect 33 1 27 0;
#X connect 34 0 35 0;
#X connect 36 0 31 0;
#X connect 36 1 30 1;
#X connect 36 2 34 0;
#X connect 37 0 7 0;
#X coords 0 0 1 1 225 458 2 483 182;
