#N canvas 827 239 527 327 12;
#X obj 64 809 out~;
#X obj 64 20 bs-fm;
#X floatatom 64 -19 5 0 0 0 - - - 12;
#X floatatom 389 292 5 0 4 0 - - - 12;
#X floatatom 712 292 5 0 4 0 - - - 12;
#X obj 64 -103 notein;
#X obj 64 -63 mtof;
#X floatatom 740 206 5 0 0 0 - - - 12;
#X obj 740 174 / 127;
#X obj 283 -211 bs-random-MIDI;
#X obj 446 368 * -1;
#X obj 378 396 pm-scan 35 1.5 2;
#X obj 64 396 pm-scan 45 1.5 2;
#X obj 701 396 pm-scan 30 1.5 2;
#X obj 64 743 /~ 3;
#X obj 754 643 knob 50 0 1 0 1 empty empty #E4E4E4 #B7B7B7 #4D4D4D 1 0 0 0 1 270 0 0 0;
#X obj 701 674 *~;
#X obj 431 643 knob 50 0 1 0 1 empty empty #E4E4E4 #B7B7B7 #4D4D4D 1 0 0 0 1 270 0 0 0;
#X obj 378 674 *~;
#X obj 117 643 knob 50 0 1 0 1 empty empty #E4E4E4 #B7B7B7 #4D4D4D 1 0 0 0 1 270 0 0 0;
#X obj 64 674 *~;
#X obj -144 171 hradio 20 1 0 3 empty empty empty 0 -8 0 10 #e4e4e4 #4d4d4d #373737 0;
#X obj -16 248 select~ 3;
#X obj 13 20 sig~;
#X obj -144 208 + 1;
#X obj 716 174 bng 19 250 50 0 empty empty empty 17 7 0 10 #e4e4e4 #4d4d4d #373737;
#X obj 378 324 *~ 1.5;
#X obj 701 324 *~ 2.5;
#X obj 84 319 hsl 128 17 0.01 1 1 1 empty empty empty -2 -8 0 10 #e4e4e4 #4d4d4d #373737 8670 0;
#X floatatom 81 346 5 0 0 0 - - - 12;
#X obj 304 362 bng 25 250 50 0 empty empty empty 17 7 0 10 #e4e4e4 #4d4d4d #373737;
#X obj 477 320 hsl 128 17 0.01 1 1 1 empty empty empty -2 -8 0 10 #e4e4e4 #4d4d4d #373737 6831 0;
#X floatatom 474 347 5 0 0 0 - - - 12;
#X obj 618 362 bng 25 250 50 0 empty empty empty 17 7 0 10 #e4e4e4 #4d4d4d #373737;
#X obj 864 324 hsl 128 17 0.01 1 1 1 empty empty empty -2 -8 0 10 #e4e4e4 #4d4d4d #373737 8948 0;
#X floatatom 861 351 5 0 0 0 - - - 12;
#X obj 941 362 bng 25 250 50 0 empty empty empty 17 7 0 10 #e4e4e4 #4d4d4d #373737;
#X msg -45 396 0;
#X obj -159 615 loadbang;
#X connect 1 0 22 2;
#X connect 2 0 1 0;
#X connect 2 0 23 0;
#X connect 3 0 26 1;
#X connect 4 0 27 1;
#X connect 5 0 6 0;
#X connect 5 1 8 0;
#X connect 6 0 2 0;
#X connect 7 0 10 0;
#X connect 7 0 12 1;
#X connect 7 0 13 1;
#X connect 8 0 7 0;
#X connect 10 0 11 1;
#X connect 11 0 18 0;
#X connect 12 0 20 0;
#X connect 13 0 16 0;
#X connect 14 0 0 0;
#X connect 14 0 0 1;
#X connect 15 0 16 1;
#X connect 16 0 14 0;
#X connect 17 0 18 1;
#X connect 18 0 14 0;
#X connect 19 0 20 1;
#X connect 20 0 14 0;
#X connect 21 0 24 0;
#X connect 22 0 12 0;
#X connect 22 0 26 0;
#X connect 22 0 27 0;
#X connect 23 0 22 1;
#X connect 24 0 22 0;
#X connect 25 0 7 0;
#X connect 26 0 11 0;
#X connect 27 0 13 0;
#X connect 28 0 29 0;
#X connect 29 0 12 2;
#X connect 30 0 12 3;
#X connect 31 0 32 0;
#X connect 32 0 11 2;
#X connect 33 0 11 3;
#X connect 34 0 35 0;
#X connect 35 0 13 2;
#X connect 36 0 13 3;
#X connect 37 0 29 0;
#X connect 38 0 19 0;
#X connect 38 0 17 0;
#X connect 38 0 15 0;
