#N canvas 827 239 527 327 12;
#X obj 107 1057 osc~;
#X obj 107 1129 dac~;
#X obj 105 716 notein;
#X obj 105 747 mtof;
#X obj 792 803 bs-adsr;
#X obj 107 1093 *~;
#X obj 792 1051 s~ env;
#X obj 165 1057 r~ env;
#X obj 471 801 r~ env;
#X obj 105 834 bs-fm;
#X obj 1125 803 bs-random-MIDI;
#X obj 558 69 array define output-buffer 8;
#X obj 28 21 vsl 17 128 0 1 0 0 empty empty empty 0 -9 0 10 #e4e4e4 #4d4d4d #373737 0 1;
#X obj 78 21 vsl 17 128 0 1 0 0 empty empty empty 0 -9 0 10 #e4e4e4 #4d4d4d #373737 0 1;
#X obj 24 175 pack f 0;
#X obj 74 207 pack f 1;
#X obj -69 289 tabwrite input-buffer;
#X obj 94 431 vsl 17 128 0.01 1 0 0 empty empty empty 0 -9 0 10 #e4e4e4 #4d4d4d #373737 0 1;
#X obj 144 431 vsl 17 128 0.01 1 1 0 empty empty empty 0 -9 0 10 #e4e4e4 #4d4d4d #373737 0 1;
#X obj 195 431 vsl 17 128 0.01 1 1 0 empty empty empty 0 -9 0 10 #e4e4e4 #4d4d4d #373737 0 1;
#X obj 245 431 vsl 17 128 0.01 1 1 0 empty empty empty 0 -9 0 10 #e4e4e4 #4d4d4d #373737 0 1;
#X obj 287 431 vsl 17 128 0.01 1 1 0 empty empty empty 0 -9 0 10 #e4e4e4 #4d4d4d #373737 0 1;
#X obj 337 431 vsl 17 128 0.01 1 1 0 empty empty empty 0 -9 0 10 #e4e4e4 #4d4d4d #373737 0 1;
#X obj 381 431 vsl 17 128 0.01 1 1 0 empty empty empty 0 -9 0 10 #e4e4e4 #4d4d4d #373737 0 1;
#X obj 431 431 vsl 17 128 0.01 1 1 0 empty empty empty 0 -9 0 10 #e4e4e4 #4d4d4d #373737 0 1;
#X text 21 800 Carrier Frequency;
#X text 208 802 Multiplier;
#X text 345 802 Depth;
#X text 445 772 Depth Envelope;
#X text 572 800 LFO Width;
#X text 683 800 LFO Speed;
#X obj -140 627 pack f 0;
#X obj -69 627 pack f 1;
#X obj 1 627 pack f 2;
#X obj 80 627 pack f 3;
#X obj 151 627 pack f 4;
#X obj 221 627 pack f 5;
#X obj 298 627 pack f 6;
#X obj 368 627 pack f 7;
#X obj -140 679 tabwrite output-buffer;
#X obj 558 214 fluid.dataset input-data;
#X obj 731 214 fluid.dataset output-data;
#X msg 558 185 addpoint \$1 input-buffer;
#X msg 731 185 addpoint \$1 output-buffer;
#X obj 558 116 bng 25 250 50 0 empty empty empty 17 7 0 10 #e4e4e4 #4d4d4d #373737;
#X obj 558 148 f;
#X obj 602 148 + 1;
#X obj 245 21 vsl 17 128 0 1 0 0 empty empty empty 0 -9 0 10 #e4e4e4 #4d4d4d #373737 0 1;
#X obj 285 21 vsl 17 128 0 1 0 0 empty empty empty 0 -9 0 10 #e4e4e4 #4d4d4d #373737 0 1;
#X obj 241 175 pack f 2;
#X obj 281 207 pack f 3;
#X msg 558 289 fit input-data output-data;
#X obj 606 431 list, f 5;
#X listbox 606 459 15 0 0 0 - - - 12;
#X msg 1036 259 print;
#X msg 74 289 predictpoint input-buffer output-buffer;
#X obj 558 398 route predictpoint fit;
#X obj 558 429 t b;
#X obj 211 350 array get output-buffer;
#X obj 211 380 unpack f f f f f f f f;
#X msg 739 289 clear;
#X obj 558 21 array define input-buffer 2;
#X obj 677 431 print;
#X obj 74 259 spigot;
#X obj 133 253 tgl 25 0 empty empty empty 17 7 0 10 #e4e4e4 #4d4d4d #373737 0 1;
#X obj 24 259 t l b;
#X obj 90 380 bng 25 250 50 0 empty empty empty 17 7 0 10 #e4e4e4 #4d4d4d #373737;
#X obj 658 520 spigot;
#X obj 681 485 tgl 25 0 empty empty empty 17 7 0 10 #e4e4e4 #4d4d4d #373737 0 1;
#X obj 658 549 t b;
#X obj 658 582 delay 250;
#X obj 165 803 * 12;
#X obj 307 784 * 10000;
#X obj 669 756 * 30;
#X obj 773 756 * 1000;
#X obj 832 756 * 1000;
#X obj 983 756 * 1000;
#X obj 558 335 fluid.mlpregressor regressor -hiddenlayers 5 -activation 1 -outputactivation 1 -batchsize 1 -maxiter 10000 -learnrate 0.1 -validation 0, f 42;
#X connect 0 0 5 0;
#X connect 2 0 3 0;
#X connect 2 1 4 0;
#X connect 3 0 9 0;
#X connect 4 0 6 0;
#X connect 5 0 1 0;
#X connect 5 0 1 1;
#X connect 7 0 5 1;
#X connect 8 0 9 3;
#X connect 9 0 0 0;
#X connect 12 0 14 0;
#X connect 13 0 15 0;
#X connect 14 0 65 0;
#X connect 15 0 65 0;
#X connect 17 0 31 0;
#X connect 17 0 71 0;
#X connect 18 0 32 0;
#X connect 18 0 72 0;
#X connect 19 0 33 0;
#X connect 19 0 9 4;
#X connect 20 0 34 0;
#X connect 20 0 73 0;
#X connect 21 0 35 0;
#X connect 21 0 74 0;
#X connect 22 0 36 0;
#X connect 22 0 75 0;
#X connect 23 0 4 3;
#X connect 23 0 37 0;
#X connect 24 0 38 0;
#X connect 24 0 76 0;
#X connect 31 0 39 0;
#X connect 32 0 39 0;
#X connect 33 0 39 0;
#X connect 34 0 39 0;
#X connect 35 0 39 0;
#X connect 36 0 39 0;
#X connect 37 0 39 0;
#X connect 38 0 39 0;
#X connect 42 0 40 0;
#X connect 43 0 41 0;
#X connect 44 0 45 0;
#X connect 45 0 46 0;
#X connect 45 0 42 0;
#X connect 45 0 43 0;
#X connect 46 0 45 1;
#X connect 47 0 49 0;
#X connect 48 0 50 0;
#X connect 51 0 77 0;
#X connect 52 0 53 0;
#X connect 53 0 67 0;
#X connect 54 0 41 0;
#X connect 54 0 40 0;
#X connect 55 0 77 0;
#X connect 56 0 57 0;
#X connect 56 1 52 0;
#X connect 56 2 62 0;
#X connect 57 0 58 0;
#X connect 58 0 59 0;
#X connect 59 0 17 0;
#X connect 59 1 18 0;
#X connect 59 2 19 0;
#X connect 59 3 20 0;
#X connect 59 4 21 0;
#X connect 59 5 22 0;
#X connect 59 6 23 0;
#X connect 59 7 24 0;
#X connect 60 0 77 0;
#X connect 63 0 55 0;
#X connect 64 0 63 1;
#X connect 65 0 16 0;
#X connect 65 1 63 0;
#X connect 66 0 17 0;
#X connect 66 0 18 0;
#X connect 66 0 19 0;
#X connect 66 0 20 0;
#X connect 66 0 21 0;
#X connect 66 0 22 0;
#X connect 66 0 23 0;
#X connect 66 0 24 0;
#X connect 67 0 69 0;
#X connect 68 0 67 1;
#X connect 69 0 70 0;
#X connect 70 0 51 0;
#X connect 71 0 9 1;
#X connect 72 0 9 2;
#X connect 73 0 9 5;
#X connect 74 0 4 1;
#X connect 75 0 4 2;
#X connect 76 0 4 4;
#X connect 77 0 56 0;
