#N canvas 827 239 527 327 12;
#X obj 172 59 inlet~;
#X obj 172 187 car2pol~, f 11;
#X obj 172 139 snake~ out, f 11;
#X obj 436 163 loadbang;
#X obj 364 163 tgl 25 0 empty empty empty 17 7 0 10 #e4e4e4 #4d4d4d #373737 0 1;
#X obj 368 205 + 1;
#X floatatom 368 230 5 0 0 0 - - - 12;
#X text 311 169 Enabled;
#X obj 72 59 inlet~;
#X obj 43 424 outlet~;
#X obj 73 188 car2pol~, f 11;
#X obj 73 306 pol2car~, f 11;
#X obj 73 140 snake~ out, f 11;
#X obj 73 346 snake~, f 10;
#X obj 43 380 select~;
#X text 310 37 Phase Swap;
#X obj 153 424 outlet~;
#X obj 172 306 pol2car~, f 11;
#X obj 172 346 snake~, f 10;
#X obj 153 380 select~;
#X obj 574 59 inlet;
#X obj 627 59 pack f \$0;
#X obj 574 117 t f f;
#N canvas 0 0 450 250 (subpatch) 0;
#X array \$0-phase-1 1024 float 2;
#X coords 0 7 1024 0 200 140 1;
#X restore 916 59 graph;
#N canvas 0 0 450 250 (subpatch) 0;
#X array \$0-phase-2 1024 float 2;
#X coords 0 1.1 1024 -0.1 200 140 1;
#X restore 916 220 graph;
#X msg 708 59 \; \$2-phase-1 resize \$1 \; \$2-phase-2 resize \$1, f 25;
#X obj 618 283 tabsend~ \$0-phase-1;
#X obj 618 318 tabsend~ \$0-phase-2;
#X obj 574 87 / 1;
#X connect 0 0 19 0 32.................O....39++++C....t++++6R....;
#X connect 0 0 2 0;
#X connect 1 0 17 0;
#X connect 1 1 11 1;
#X connect 1 1 27 0;
#X connect 2 0 1 0;
#X connect 2 1 1 1;
#X connect 3 0 5 0;
#X connect 4 0 5 0;
#X connect 5 0 6 0;
#X connect 6 0 14 0;
#X connect 6 0 19 0;
#X connect 8 0 12 0;
#X connect 8 0 14 0 32.................Q....P9+++eD....j++++6R....;
#X connect 10 0 11 0;
#X connect 10 1 17 1;
#X connect 10 1 26 0;
#X connect 11 0 13 0;
#X connect 11 1 13 1;
#X connect 12 0 10 0;
#X connect 12 1 10 1;
#X connect 13 0 14 1;
#X connect 14 0 9 0;
#X connect 17 0 18 0;
#X connect 17 1 18 1;
#X connect 18 0 19 1;
#X connect 19 0 16 0;
#X connect 20 0 28 0;
#X connect 21 0 25 0;
#X connect 22 1 21 0;
#X connect 28 0 22 0;
#X coords 0 0 1 1 89 161 2 305 30;
