#N canvas 827 239 527 327 12;
#X obj 438 88 inlet~;
#X obj 408 414 outlet~;
#X obj 438 178 car2pol~, f 11;
#X obj 438 296 pol2car~, f 11;
#X obj 438 130 snake~ out, f 11;
#X obj 438 336 snake~, f 10;
#X obj 720 81 loadbang;
#X obj 408 370 select~;
#X obj 672 212 tgl 25 0 empty empty empty 17 7 0 10 #e4e4e4 #4d4d4d #373737 0 1;
#X obj 672 248 + 1;
#X floatatom 672 273 5 0 0 0 - - - 12;
#X text 615 217 Enabled;
#X obj 611 150 pi;
#X floatatom 628 115 5 0 0 0 - - - 12;
#X floatatom 611 185 11 0 0 0 - - - 12;
#X obj 662 150 t b f;
#X text 616 87 Shift Phase, f 10;
#X obj 535 174 osc~;
#X obj 480 237 *~;
#X floatatom 535 115 5 0 0 0 - - - 12;
#X obj 535 218 *~;
#X connect 0 0 4 0;
#X connect 0 0 7 0 32.................K.....7++++B.....++++2P....;
#X connect 2 0 3 0;
#X connect 2 1 18 0;
#X connect 3 0 5 0;
#X connect 3 1 5 1;
#X connect 4 0 2 0;
#X connect 4 1 2 1;
#X connect 5 0 7 1;
#X connect 6 0 8 0;
#X connect 7 0 1 0;
#X connect 8 0 9 0;
#X connect 9 0 10 0;
#X connect 10 0 7 0;
#X connect 12 0 14 0;
#X connect 13 0 15 0;
#X connect 14 0 20 1;
#X connect 15 0 12 0;
#X connect 15 1 12 1;
#X connect 17 0 20 0;
#X connect 18 0 3 1;
#X connect 19 0 17 0;
#X connect 20 0 18 1;
#X coords 0 0 1 1 98 162 2 604 80;
