#N canvas 827 239 527 327 12;
#X obj -334 -19 cnv 15 315 186 empty empty empty 20 12 0 14 #b7b7b7 #373737 0;
#X obj 267 495 pmpd;
#X msg 267 435 reset;
#X msg 321 435 print;
#X obj 381 336 bng 25 250 50 0 empty empty empty 17 7 0 10 #e4e4e4 #4d4d4d #373737;
#X msg 421 336 stop;
#X obj 381 368 metro 20;
#N canvas 0 0 450 250 (subpatch) 0;
#X array \$0-masses 200 float 0;
#X coords 0 1 199 -1 200 140 1;
#X restore 12 28 graph;
#X obj 226 30 vsl 16 134 -1 1 0 0 empty empty empty 0 -9 0 10 #e4e4e4 #4d4d4d #373737 0 0;
#X obj 12 314 pack;
#X floatatom 15 280 5 0 0 0 - - - 12;
#X floatatom 221 189 5 0 0 0 - - - 12;
#X obj 18 189 hsl 194 18 0 199 0 0 empty empty empty -2 -8 0 10 #e4e4e4 #4d4d4d #373737 0 0;
#X obj 381 400 f \$0;
#X msg 381 435 bang \, massPosT \$1-masses;
#X msg 532 95 cos, f 5;
#X msg 574 95 spline, f 7;
#X msg 709 95 cubic, f 6;
#X msg 634 95 lagrange, f 9;
#X msg 498 95 lin, f 4;
#X msg 449 95 none, f 6;
#X obj 377 178 tabreader~ \$0-masses;
#X obj 377 216 outlet~;
#X obj 377 11 inlet;
#X obj 210 314 bs-init-pm \$1 \$2 \$3;
#X obj 323 11 inlet~;
#X msg -323 75 \; \$1 resize \$2;
#X obj -323 -5 symbol \$0-masses;
#X obj -323 39 pack s f;
#X obj -173 -5 f \$1;
#X obj -323 -59 t b b b;
#X obj -323 -127 loadbang;
#X msg -122 75 range 0 \$1;
#X obj -122 32 - 1;
#X text -323 123 Resize array according to the number of masses specified, f 42;
#X text 13 -70 \$2 weight of each mass.;
#X text 13 -95 \$1: Number of masses to use., f 31;
#X text 13 -40 \$3: 2 to fix both ends of system \, 1 to fix only one end \, 0 to not fix at all;
#X obj 575 11 inlet;
#N canvas 0 50 450 300 set-damping 0;
#X obj 88 46 inlet;
#X obj 88 245 until;
#X obj 88 284 f;
#X obj 155 200 + 1;
#X msg 199 236 0;
#X obj 88 470 outlet;
#X obj 197 200 select;
#X obj 153 84 loadmess \$1;
#X obj 153 143 t f f;
#X obj 153 47 bng 25 250 50 0 empty empty empty 17 7 0 10 #e4e4e4 #4d4d4d #373737;
#X obj 88 200 f;
#X obj 88 330 t f f, f 6;
#X msg 88 412 setD \$1 \$2;
#X obj 88 374 pack f f, f 10;
#X obj 88 81 t b f;
#X obj 162 444 print;
#X obj 153 114 - 1;
#X connect 0 0 14 0;
#X connect 1 0 2 0;
#X connect 2 0 11 0;
#X connect 3 0 6 0;
#X connect 4 0 2 1;
#X connect 6 0 4 0;
#X connect 6 1 2 1;
#X connect 7 0 16 0;
#X connect 8 0 10 1;
#X connect 8 1 6 1;
#X connect 9 0 7 0;
#X connect 10 0 1 0;
#X connect 11 0 13 0;
#X connect 11 1 3 0;
#X connect 12 0 5 0;
#X connect 13 0 12 0;
#X connect 14 0 10 0;
#X connect 14 1 13 1 32.................R....HB...fD....h....HQ....;
#X connect 16 0 8 0;
#X restore 579 435 pd set-damping;
#N canvas 0 50 450 300 reset-masses 0;
#X obj 35 33 inlet;
#X msg 35 246 setPos \$1 \$2;
#X obj 35 283 outlet;
#X obj 35 140 for;
#X obj 35 99 f \$1;
#X obj 35 177 - 1;
#X obj 35 211 pack f 0;
#X obj 35 59 bng 25 250 50 0 empty empty empty 17 7 0 10 #e4e4e4 #4d4d4d #373737;
#X connect 0 0 7 0;
#X connect 1 0 2 0;
#X connect 3 1 5 0;
#X connect 4 0 3 0;
#X connect 5 0 6 0;
#X connect 6 0 1 0;
#X connect 7 0 4 0;
#X restore 703 435 pd reset-masses;
#X obj 681 11 inlet;
#X obj 684 45 bng 19 250 50 0 empty empty empty 17 7 0 10 #e4e4e4 #4d4d4d #373737;
#X obj 575 45 s \$0-damping;
#X obj 579 400 r \$0-damping;
#X obj 703 400 r \$0-reset-masses;
#X obj 709 45 s \$0-reset-masses;
#X obj 377 45 s \$0-force;
#X obj 187 3 r \$0-force;
#X obj 460 11 inlet;
#X obj 502 11 * \$1;
#X obj 460 45 s \$0-mass-id;
#X obj -106 189 r \$0-mass-id;
#X msg 12 394 setForce \$2 \$1;
#X obj 15 216 + 0.5;
#X obj 15 248 int;
#X obj 221 220 hradio 20 1 0 2 empty empty empty 0 -8 0 10 #e4e4e4 #4d4d4d #373737 0;
#X obj 221 257 + 1;
#X obj 319 129 select~ 2;
#X obj 302 95 phasor~;
#X obj 368 95 osc~, f 8;
#X connect 2 0 1 0;
#X connect 3 0 1 0;
#X connect 4 0 6 0;
#X connect 5 0 6 0;
#X connect 6 0 13 0;
#X connect 8 0 11 0;
#X connect 9 0 53 0;
#X connect 10 0 9 1;
#X connect 11 0 9 0;
#X connect 12 0 54 0;
#X connect 13 0 14 0;
#X connect 14 0 1 0;
#X connect 15 0 21 0;
#X connect 16 0 21 0;
#X connect 17 0 21 0;
#X connect 18 0 21 0;
#X connect 19 0 21 0;
#X connect 20 0 21 0;
#X connect 21 0 22 0;
#X connect 23 0 47 0;
#X connect 24 0 1 0;
#X connect 25 0 59 0;
#X connect 25 0 60 0;
#X connect 27 0 28 0;
#X connect 28 0 26 0;
#X connect 29 0 28 1;
#X connect 29 0 33 0;
#X connect 30 0 4 0 48.................O....r8++++C....a++++qU....vB...ZE....r....dA...;
#X connect 30 1 27 0;
#X connect 30 2 29 0;
#X connect 31 0 30 0;
#X connect 31 0 56 0;
#X connect 32 0 12 0;
#X connect 33 0 32 0;
#X connect 38 0 43 0;
#X connect 39 0 1 0;
#X connect 40 0 1 0;
#X connect 41 0 42 0;
#X connect 42 0 46 0;
#X connect 44 0 39 0;
#X connect 45 0 40 0;
#X connect 48 0 8 0;
#X connect 49 0 50 0;
#X connect 50 0 51 0;
#X connect 52 0 12 0;
#X connect 53 0 1 0;
#X connect 54 0 55 0;
#X connect 55 0 10 0;
#X connect 56 0 57 0;
#X connect 57 0 58 0;
#X connect 58 0 21 0;
#X connect 59 0 58 0;
#X connect 60 0 58 1;
#X coords 0 0 1 1 269 249 1 0 0;
