#N canvas 827 239 527 327 12;
#X obj 253 466 vsl 15 128 -2 2 0 0 empty empty empty 0 -8 0 8 #fcfcfc #000000 #000000 0 0;
#X obj 171 466 vsl 15 128 -0.75 0.75 0 0 empty empty empty 0 -8 0 8 #fcfcfc #000000 #000000 0 0;
#X obj 66 396 link \$0-link 0 1 0 200;
#X obj 253 396 mass \$0-mass 10000 0;
#X floatatom 364 475 5 0 0 0 - - - 12;
#X floatatom 72 454 5 0 0 0 - - - 12;
#X obj 16 45 loadbang;
#X obj 45 133 s \$0-link;
#X obj 16 97 t b b;
#X obj 16 197 s \$0-mass;
#X obj 92 45 bng 15 250 50 0 empty empty empty 0 -6 0 8 #fcfcfc #000000 #000000;
#X msg 127 117 reset;
#X msg 92 91 resetL \, resetF;
#X obj 92 65 t b b;
#X obj 66 316 bng 25 250 50 0 empty empty empty 17 7 0 10 #e4e4e4 #4d4d4d #373737;
#X obj 66 348 t b b;
#X msg 658 430 setXmin -1 \, setXmax 1;
#X obj 249 654 outlet;
#X msg 374 312 setK 0.05 \, setD 0 \, setD2 30;
#X msg 393 285 setK 1 \, setD 0 \, setD2 30;
#X msg 413 257 setK 1 \, setD 0 \, setD2 200;
#X msg 433 227 setK 300 \, setD 300 \, setD2 5;
#X obj 374 162 sel 2 1 0 3 4;
#X msg 453 197 setK 3000 \, setD 1000 \, setD2 5000;
#X obj 193 464 vradio 20 1 0 4 empty empty empty 0 -8 0 10 #e4e4e4 #4d4d4d #373737 0;
#X obj 16 70 metro 20;
#X obj 225 61 bng 25 250 50 0 empty empty empty 17 7 0 10 #e4e4e4 #4d4d4d #373737;
#X connect 0 0 17 0;
#X connect 1 0 2 0;
#X connect 2 0 5 0;
#X connect 2 1 3 0;
#X connect 3 0 0 0;
#X connect 3 0 2 1;
#X connect 3 0 4 0;
#X connect 6 0 25 0;
#X connect 8 0 9 0;
#X connect 8 1 7 0;
#X connect 10 0 13 0;
#X connect 11 0 9 0;
#X connect 12 0 7 0;
#X connect 13 0 12 0;
#X connect 13 1 11 0;
#X connect 14 0 15 0;
#X connect 15 0 3 0;
#X connect 15 1 2 0;
#X connect 16 0 3 0;
#X connect 18 0 2 0;
#X connect 19 0 2 0;
#X connect 20 0 2 0;
#X connect 21 0 2 0;
#X connect 22 0 18 0;
#X connect 22 1 19 0;
#X connect 22 2 20 0;
#X connect 22 3 21 0;
#X connect 22 4 23 0;
#X connect 23 0 2 0;
#X connect 24 0 22 0;
#X connect 25 0 8 0;
#X connect 26 0 25 0;
#X coords 0 0 1 1 67 169 1 155 442;
