#N canvas 827 239 527 327 12;
#X floatatom 110 110 8 0 0 0 - - - 16;
#X msg 22 79 2;
#X obj 51 79 pow;
#X obj 20 41 t b f;
#X obj 110 148 outlet;
#X obj 126 19 inlet;
#X obj 181 148 outlet;
#X obj 126 54 knob 50 -10 20 0 0 empty empty #E4E4E4 #B7B7B7 #4D4D4D 1 0 31 1 1 270 0 0 2;
#X obj 259 19 inlet;
#X msg 259 85 range \$1 \$2;
#X msg 259 128 ticks \$1;
#X obj 259 54 t a a;
#X obj 439 58 unpack;
#X obj 439 85 expr ($f2 - $f1) + 1;
#X text 301 18 (Min \, max) values for knob range;
#X floatatom 439 114 5 0 0 0 - - - 12;
#X obj 541 20 inlet;
#X text 586 19 Any messages understood by the knob;
#X connect 0 0 4 0;
#X connect 1 0 2 0;
#X connect 2 0 0 0;
#X connect 3 0 1 0;
#X connect 3 1 2 1;
#X connect 5 0 7 0;
#X connect 7 0 6 0;
#X connect 7 0 3 0;
#X connect 8 0 11 0;
#X connect 9 0 7 0;
#X connect 10 0 7 0;
#X connect 11 0 9 0;
#X connect 11 1 12 0;
#X connect 12 0 13 0;
#X connect 12 1 13 1;
#X connect 13 0 15 0;
#X connect 15 0 10 0;
#X connect 16 0 7 0;
#X coords 0 0 1 1 101 87 2 100 50;
