#N canvas 827 239 527 327 12;
#X floatatom 110 110 8 0 0 0 - - - 16;
#X msg 22 79 2;
#X obj 51 79 pow;
#X floatatom 110 80 5 0 20 0 - - - 12;
#X obj 20 41 t b f;
#X obj 110 148 outlet;
#X obj 110 17 inlet;
#X obj 181 148 outlet;
#X connect 0 0 5 0;
#X connect 1 0 2 0;
#X connect 2 0 0 0;
#X connect 3 0 4 0;
#X connect 3 0 7 0;
#X connect 4 0 1 0;
#X connect 4 1 2 1;
#X connect 6 0 3 0;
#X coords 0 0 1 1 98 77 1 100 60;
