#N canvas 827 239 527 327 12;
#X floatatom 110 110 8 0 0 0 - - - 16;
#X msg 22 79 2;
#X obj 51 79 pow;
#X obj 20 41 t b f;
#X obj 110 148 outlet;
#X obj 126 19 inlet;
#X obj 181 148 outlet;
#X obj 126 54 knob 50 -10 20 0 0 empty empty #E4E4E4 #B7B7B7 #4D4D4D 1 0 31 1 1 270 0 0 0;
#X connect 0 0 4 0;
#X connect 1 0 2 0;
#X connect 2 0 0 0;
#X connect 3 0 1 0;
#X connect 3 1 2 1;
#X connect 5 0 7 0;
#X connect 7 0 6 0;
#X connect 7 0 3 0;
#X coords 0 0 1 1 101 87 2 100 50;
