#N canvas 827 239 527 327 12;
#X obj 286 744 cnv 15 428 240 empty empty empty 20 12 0 14 #efec00 #373737 0;
#X obj 588 102 cnv 15 126 343 empty empty empty 20 12 0 14 #00b74b #373737 0;
#X obj 340 24 loadbang;
#X msg 230 116 0;
#X text 307 191 Lower;
#X text 381 191 Upper;
#X obj 303 870 outlet;
#X obj 491 870 outlet;
#X msg 199 151 exp \$1;
#X obj 199 24 inlet;
#X floatatom 394 320 5 0 0 0 - - - 12;
#X text 359 318 Exp:;
#X obj 199 348 unpack s f;
#X obj 297 221 knob 50 0 1 4 0 empty empty #E4E4E4 #B7B7B7 #4D4D4D 1 0 0 0 1 270 0 0 0 empty empty 0 0 0 0 0 0 0 0;
#X obj 381 221 knob 50 0 1 4 0 empty empty #E4E4E4 #B7B7B7 #4d4d4d 1 0 0 0 1 270 0 0 0 empty empty 0 0 0 0 0 0 0 0;
#X obj 303 415 t f f f;
#X obj 387 415 t f f;
#X obj 609 365 -;
#X obj 609 332 t b f;
#X floatatom 609 391 5 0 0 0 - - - 12;
#X obj 609 199 spigot;
#X obj 352 234 tgl 25 0 empty empty empty 17 7 0 10 #e4e4e4 #4d4d4d #373737 0 1;
#X obj 609 236 +;
#X floatatom 609 267 5 0 0 0 - - - 12;
#X floatatom 609 167 5 0 0 0 - - - 12;
#X floatatom 303 289 5 0 0 0 - - - 12;
#X floatatom 387 289 5 0 0 0 - - - 12;
#X text 609 100 Logic to link knobs at a given range, f 14;
#X msg 297 116 0;
#X obj 340 65 t b b b;
#X msg 381 116 1;
#X obj 611 494 bang~;
#X obj 599 526 cnv 15 426 85 empty empty empty 20 12 0 14 #14a8b7 #373737 0;
#X obj 611 617 t b b;
#X obj 303 790 t f f;
#X obj 491 790 t f f;
#X obj 303 759 value start_\$0;
#X obj 491 759 value finish_\$0;
#X obj 324 822 value prev_start_\$0;
#X obj 519 822 value prev_finish_\$0;
#X obj 611 533 expr (start_\$0 == prev_start_\$0) && (finish_\$0 == prev_finish_\$0 );
#X obj 611 569 select 0;
#X text 688 553 Don't send knob values to outlets unless the start or finish value has been changed since last DSP cycle, f 42;
#X text 303 908 Don't send knob values directly to outlets \, just store in value objects until next DSP cycle completes. This makes sure that a cascade of messages only happens once per DSP cycle even if knob has been moved about alot, f 54;
#X obj 124 24 inlet;
#X text 79 -7 Lowest magnitude, f 11;
#X text 199 -7 Exponent factor for knobs, f 14;
#X connect 2 0 29 0;
#X connect 3 0 8 0;
#X connect 8 0 13 0;
#X connect 8 0 14 0;
#X connect 8 0 12 0;
#X connect 9 0 8 0;
#X connect 12 1 10 0;
#X connect 13 0 25 0;
#X connect 14 0 26 0;
#X connect 15 0 36 0;
#X connect 15 1 18 0;
#X connect 15 2 24 0;
#X connect 16 0 37 0;
#X connect 16 1 17 0;
#X connect 17 0 19 0;
#X connect 18 0 17 0;
#X connect 18 1 17 1;
#X connect 19 0 22 1 48.................G....jD...vA....IA...Xz+++uE....F8+++aA...PT++++;
#X connect 20 0 22 0;
#X connect 21 0 20 1;
#X connect 22 0 23 0;
#X connect 23 0 14 0;
#X connect 24 0 20 0;
#X connect 25 0 15 0;
#X connect 26 0 16 0;
#X connect 28 0 13 0;
#X connect 29 0 3 0;
#X connect 29 1 28 0;
#X connect 29 2 30 0;
#X connect 30 0 14 0;
#X connect 31 0 40 0;
#X connect 33 0 36 0;
#X connect 33 1 37 0;
#X connect 34 0 6 0;
#X connect 34 1 38 0;
#X connect 35 0 7 0;
#X connect 35 1 39 0;
#X connect 36 0 34 0;
#X connect 37 0 35 0;
#X connect 40 0 41 0;
#X connect 41 0 33 0;
#X connect 44 0 13 0 48.................nB...HH....p....BB...fJ...Pq....nB...zJ...fr....;
#X coords 0 0 1 1 144 158 2 292 185;
