#N canvas 827 239 527 327 12;
#X obj 426 82 cnv 15 126 343 empty empty empty 20 12 0 14 #00b74b #373737 0;
#X obj 178 4 loadbang;
#X msg 68 96 0;
#X text 145 172 Lower;
#X text 219 172 Upper;
#X obj 141 453 outlet;
#X obj 225 453 outlet;
#X msg 37 131 exp \$1;
#X obj 37 4 inlet;
#X floatatom 232 300 5 0 0 0 - - - 12;
#X text 197 299 Exp:;
#X obj 37 328 unpack s f;
#X obj 135 201 knob 50 0 1 2 0 empty empty #E4E4E4 #B7B7B7 #4D4D4D 1 0 0 0 1 270 0 0 0 empty empty 0 0 0 0 0 0 0 0;
#X obj 219 201 knob 50 0 1 2 0 empty empty #E4E4E4 #B7B7B7 #4d4d4d 1 0 0 0 1 270 0 0 0 empty empty 0 0 0 0 0 0 0 0;
#X obj 141 395 t f f f;
#X obj 225 395 t f f;
#X obj 447 345 -;
#X obj 447 312 t b f;
#X floatatom 447 371 5 0 0 0 - - - 12;
#X obj 447 179 spigot;
#X obj 190 214 tgl 25 0 empty empty empty 17 7 0 10 #e4e4e4 #4d4d4d #373737 0 1;
#X obj 447 216 +;
#X floatatom 447 247 5 0 0 0 - - - 12;
#X floatatom 447 147 5 0 0 0 - - - 12;
#X floatatom 141 269 5 0 0 0 - - - 12;
#X floatatom 225 269 5 0 0 0 - - - 12;
#X text 447 81 Logic to link knobs at a given range, f 14;
#X msg 135 96 0;
#X obj 178 45 t b b b;
#X msg 219 96 1;
#X obj 674 599 cnv 15 279 134 empty empty empty 20 12 0 14 #efec00 #373737 0;
#X obj 206 607 cnv 15 328 81 empty empty empty 20 12 0 14 #14a8b7 #373737 0;
#X obj 218 568 bang~;
#X msg 686 607 set \$1;
#X floatatom 686 635 5 0 0 0 - - - 12;
#X msg 814 607 set \$1;
#X floatatom 814 635 5 0 0 0 - - - 12;
#X obj 218 650 select 0;
#X obj 657 557 t f f f;
#X obj 785 557 t f f f;
#X text 681 687 Update prev_start and prev_finish values only when table has been updated, f 37;
#X text 295 635 Don't rewrite table unless the start or finish value has been changed since last table write, f 30;
#X obj 686 661 value \$0-prev_start;
#X obj 814 661 value \$0-prev_finish;
#X obj 218 614 expr ($f2 == \$0-prev_start) && ($f3 == \$0-prev_finish);
#X obj 218 785 value \$0-prev_start;
#X obj 379 785 value \$0-prev_finish;
#X obj 218 690 t b b b, f 14;
#X connect 1 0 28 0;
#X connect 2 0 7 0;
#X connect 7 0 12 0;
#X connect 7 0 13 0;
#X connect 7 0 11 0;
#X connect 8 0 7 0;
#X connect 11 1 9 0;
#X connect 12 0 24 0;
#X connect 13 0 25 0;
#X connect 14 0 5 0;
#X connect 14 1 17 0;
#X connect 14 2 23 0;
#X connect 15 0 6 0;
#X connect 15 1 16 0;
#X connect 16 0 18 0;
#X connect 17 0 16 0;
#X connect 17 1 16 1;
#X connect 18 0 21 1 48.................G....jD...vA....IA...Xz+++uE....F8+++aA...PT++++;
#X connect 19 0 21 0;
#X connect 20 0 19 1;
#X connect 21 0 22 0;
#X connect 22 0 13 0;
#X connect 23 0 19 0;
#X connect 24 0 14 0;
#X connect 25 0 15 0;
#X connect 27 0 12 0;
#X connect 28 0 2 0;
#X connect 28 1 27 0;
#X connect 28 2 29 0;
#X connect 29 0 13 0;
#X connect 32 0 44 0;
#X connect 33 0 34 0;
#X connect 34 0 42 0;
#X connect 35 0 36 0;
#X connect 36 0 43 0;
#X connect 37 0 47 0;
#X connect 38 0 44 1;
#X connect 38 2 33 0;
#X connect 39 0 44 2;
#X connect 39 2 35 0;
#X connect 44 0 37 0;
#X connect 47 0 45 0;
#X connect 47 1 46 0;
#X connect 47 2 34 0;
#X connect 47 2 36 0;
#X coords 0 0 1 1 143 155 2 130 170;
