#N canvas 827 239 527 327 12;
#X obj -68 548 cnv 15 344 254 empty empty empty 20 12 0 14 #b774a1 #373737 0;
#X obj -71 391 cnv 15 545 143 empty empty empty 20 12 0 14 #00b7ab #373737 0;
#X obj 49 191 knob 50 0 4096 4 0 empty empty #E4E4E4 #B7B7B7 #4D4D4D 1 0 0 0 1 270 0 0 0;
#X obj 111 191 knob 50 0 4096 4 0 empty empty #E4E4E4 #B7B7B7 #4d4d4d 1 0 0 0 1 270 0 0 0;
#X obj 91 501 spigot;
#X floatatom 111 364 5 0 0 0 - - - 12;
#X floatatom 49 364 5 0 0 0 - - - 12;
#X msg 49 88 range 0 \$1;
#X obj 224 19 loadbang;
#X floatatom 224 88 8 0 0 0 - - - 16;
#X obj 224 129 v min_delta;
#X obj 289 455 expr ($f1 - min_delta) < $f2;
#X obj 48 407 t f f f;
#X obj 303 501 spigot;
#X obj 260 407 t f f f;
#X obj 77 455 expr ($f1 + min_delta) > $f2;
#X msg 226 59 0;
#X text 50 169 Lower;
#X text 111 169 Upper;
#X obj 49 59 float \$1;
#X obj 50 772 outlet;
#X obj 171 772 outlet;
#X obj 8 59 inlet;
#X msg 140 88 exp \$1;
#X obj 140 59 inlet;
#X floatatom 124 253 5 0 0 0 - - - 12;
#X text 83 252 Exp:;
#X obj 189 224 unpack s f;
#X obj 136 280 tgl 25 0 empty empty empty 17 7 0 10 #e4e4e4 #4d4d4d #373737 0 1;
#X obj 105 601 t f f;
#X obj 50 660 bs-select, f 11;
#X obj 171 660 bs-select, f 11;
#X obj 105 695 int;
#X floatatom 105 730 5 0 0 0 - - - 12;
#X floatatom 50 730 5 0 0 0 - - - 12;
#X obj 226 695 int;
#X floatatom 226 730 5 0 0 0 - - - 12;
#X floatatom 171 730 5 0 0 0 - - - 12;
#X obj 189 305 s \$0-int-out;
#X obj 105 564 r \$0-int-out;
#X text -71 440 Logic to keep both knobs in sync, f 12;
#X text -58 579 Allow float or integer output to be selected, f 15;
#X text 40 279 Integer output:;
#X connect 2 0 6 0;
#X connect 3 0 5 0;
#X connect 4 0 3 0;
#X connect 5 0 14 0;
#X connect 6 0 12 0;
#X connect 7 0 2 0;
#X connect 7 0 3 0;
#X connect 8 0 16 0;
#X connect 8 0 19 0;
#X connect 9 0 10 0;
#X connect 11 0 13 1;
#X connect 12 0 11 1;
#X connect 12 0 30 0;
#X connect 12 1 4 0;
#X connect 12 2 15 0;
#X connect 13 0 2 0;
#X connect 14 0 15 1;
#X connect 14 0 31 0;
#X connect 14 1 13 0;
#X connect 14 2 11 0;
#X connect 15 0 4 1;
#X connect 16 0 9 0;
#X connect 16 0 23 0;
#X connect 19 0 7 0;
#X connect 22 0 7 0;
#X connect 23 0 2 0;
#X connect 23 0 3 0;
#X connect 23 0 27 0 32.................N....zC...fC....8....LI....;
#X connect 24 0 23 0;
#X connect 27 1 25 0;
#X connect 28 0 38 0;
#X connect 29 0 30 1;
#X connect 29 1 31 1;
#X connect 30 0 34 0;
#X connect 30 1 32 0;
#X connect 31 0 37 0;
#X connect 31 1 35 0;
#X connect 32 0 33 0;
#X connect 33 0 20 0;
#X connect 34 0 20 0;
#X connect 35 0 36 0;
#X connect 36 0 21 0;
#X connect 37 0 21 0;
#X connect 39 0 29 0;
#X coords 0 0 1 1 130 154 2 36 159;
