#N canvas 827 239 527 327 12;
#X obj 426 82 cnv 15 126 343 empty empty empty 20 12 0 14 #00b74b #373737 0;
#X obj 177 23 loadbang;
#X msg 179 50 0;
#X text 145 172 Lower;
#X text 219 172 Upper;
#X obj 141 453 outlet;
#X obj 225 453 outlet;
#X msg 134 92 exp \$1;
#X obj 134 50 inlet;
#X floatatom 232 300 5 0 0 0 - - - 12;
#X text 197 299 Exp:;
#X obj 37 328 unpack s f;
#X obj 135 201 knob 50 0 1 2 0 empty empty #E4E4E4 #B7B7B7 #4D4D4D 1 0 0 0 1 270 0 0 0;
#X obj 219 201 knob 50 0 1 2 0 empty empty #E4E4E4 #B7B7B7 #4d4d4d 1 0 0 0 1 270 0 0 0;
#X obj 141 395 t f f f;
#X obj 225 395 t f f;
#X obj 447 345 -;
#X obj 447 312 t b f;
#X floatatom 447 371 5 0 0 0 - - - 12;
#X obj 447 179 spigot;
#X obj 190 214 tgl 25 0 empty empty empty 17 7 0 10 #e4e4e4 #4d4d4d #373737 0 1;
#X obj 447 216 +;
#X floatatom 447 247 5 0 0 0 - - - 12;
#X floatatom 447 147 5 0 0 0 - - - 12;
#X floatatom 141 269 5 0 0 0 - - - 12;
#X floatatom 225 269 5 0 0 0 - - - 12;
#X text 447 81 Logic to link knobs at a given range, f 14;
#X connect 1 0 2 0;
#X connect 2 0 7 0;
#X connect 7 0 12 0;
#X connect 7 0 13 0;
#X connect 7 0 11 0 32.................H....ry+++OB....67+++WM....;
#X connect 8 0 7 0;
#X connect 11 1 9 0;
#X connect 12 0 24 0;
#X connect 13 0 25 0;
#X connect 14 0 5 0;
#X connect 14 1 17 0;
#X connect 14 2 23 0;
#X connect 15 0 6 0;
#X connect 15 1 16 0;
#X connect 16 0 18 0;
#X connect 17 0 16 0;
#X connect 17 1 16 1;
#X connect 18 0 21 1 48.................G....jD...vA....IA...Xz+++uE....F8+++aA...PT++++;
#X connect 19 0 21 0;
#X connect 20 0 19 1;
#X connect 21 0 22 0;
#X connect 22 0 13 0;
#X connect 23 0 19 0;
#X connect 24 0 14 0;
#X connect 25 0 15 0;
#X coords 0 0 1 1 143 155 2 130 170;
