#N canvas 0 50 450 300 12;
#X obj 87 80 inlet~;
#X obj 87 177 dac~;
#X obj 173 166 print~;
#X obj 173 121 bng 25 250 50 0 empty empty empty 17 7 0 10 #e4e4e4 #4d4d4d #373737;
#X obj 673 342 power-of-two;
#X obj 786 342 power-of-two;
#X obj 673 249 t b b b, f 36;
#X obj 790 453 t b f;
#X obj 801 511 pack f f f;
#X msg 801 546 set \$1 \$2 \$3;
#X obj 842 453 t b f;
#X text 673 317 block size;
#X text 786 317 overlap ratio;
#X obj 900 342 power-of-two;
#X msg 900 281 0, f 6;
#X obj 673 208 loadbang;
#X msg 673 281 6;
#X msg 788 281 0;
#X text 900 302 Upsampling ratio, f 12;
#X obj 801 609 switch~;
#X obj 732 574 tgl 25 0 empty empty empty 17 7 0 10 #e4e4e4 #4d4d4d #373737 0 1;
#X obj 732 627 bng 25 250 50 0 empty empty empty 17 7 0 10 #e4e4e4 #4d4d4d #373737;
#X obj 276 127 bang~;
#X connect 0 0 1 0;
#X connect 0 0 1 1;
#X connect 0 0 2 0;
#X connect 3 0 2 0;
#X connect 4 0 8 0;
#X connect 5 0 7 0;
#X connect 6 0 16 0;
#X connect 6 1 17 0;
#X connect 6 2 14 0;
#X connect 7 0 8 0;
#X connect 7 1 8 1;
#X connect 8 0 9 0;
#X connect 9 0 19 0;
#X connect 10 0 8 0;
#X connect 10 1 8 2;
#X connect 13 0 10 0;
#X connect 14 0 13 0;
#X connect 15 0 6 0;
#X connect 16 0 4 0;
#X connect 17 0 5 0;
#X connect 20 0 19 0;
#X connect 21 0 19 0;
