#N canvas 827 239 527 327 12;
#X obj 77 25 osc.receive 5005;
#X obj 152 228 unpack f f f f;
#X floatatom 138 269 5 0 0 0 - - - 12;
#X floatatom 180 269 5 0 0 0 - - - 12;
#X floatatom 225 269 5 0 0 0 - - - 12;
#X floatatom 272 269 5 0 0 0 - - - 12;
#X obj 77 63 osc.route /0 /1 /2 /3 /4;
#X obj 195 104 print Unrecognised OSC;
#X obj 228 188 print Unrecognised OSC;
#X obj 77 151 osc.route /raw/ /quaternion/;
#X obj 45 349 smooth-meta;
#X obj -251 349 smooth-meta;
#X obj 319 349 smooth-meta;
#X obj 586 349 smooth-meta;
#X obj -251 1110 out~;
#X obj -251 282 * 2;
#X obj -251 315 - 1;
#X obj -251 1054 +~;
#X obj -251 955 *~;
#X obj -223 923 tgl 18 0 empty empty empty 17 7 0 10 #e4e4e4 #4d4d4d #373737 0 1;
#X obj 45 955 *~;
#X obj 73 923 tgl 18 0 empty empty empty 17 7 0 10 #e4e4e4 #4d4d4d #373737 0 1;
#X obj 319 955 *~;
#X obj 347 923 tgl 18 0 empty empty empty 17 7 0 10 #e4e4e4 #4d4d4d #373737 0 1;
#X obj 586 955 *~;
#X obj 614 923 tgl 18 0 empty empty empty 17 7 0 10 #e4e4e4 #4d4d4d #373737 0 1;
#X floatatom 448 1016 5 0 0 0 - - - 12;
#X obj 448 1061 pm-scan 200 75 2;
#X floatatom 776 984 5 0 1 0 - - - 12;
#X msg 776 1017 set \$1;
#X msg 776 1045 0.2;
#X connect 0 0 6 0;
#X connect 1 0 2 0;
#X connect 1 1 3 0;
#X connect 1 2 4 0;
#X connect 1 3 5 0;
#X connect 2 0 15 0;
#X connect 3 0 10 0;
#X connect 4 0 12 0;
#X connect 5 0 13 0;
#X connect 6 0 9 0;
#X connect 6 5 7 0;
#X connect 9 1 1 0;
#X connect 9 2 8 0;
#X connect 10 0 20 0;
#X connect 11 0 18 0;
#X connect 12 0 22 0;
#X connect 13 0 24 0;
#X connect 15 0 16 0;
#X connect 16 0 11 0;
#X connect 17 0 14 0;
#X connect 17 0 14 1;
#X connect 18 0 17 0;
#X connect 19 0 18 1;
#X connect 20 0 17 1;
#X connect 21 0 20 1;
#X connect 22 0 17 1;
#X connect 23 0 22 1;
#X connect 24 0 17 1;
#X connect 25 0 24 1;
#X connect 26 0 27 0;
#X connect 27 0 14 1;
#X connect 28 0 29 0;
#X connect 29 0 30 0;
#X connect 30 0 27 3;
