#N canvas 827 239 527 327 12;
#X obj 345 192 vsl 17 128 -1 1 0 0 empty empty empty 0 -9 0 10 #e4e4e4 #4d4d4d #373737 0 1;
#X obj 374 192 vsl 17 128 -1 1 0 0 empty empty empty 0 -9 0 10 #e4e4e4 #4d4d4d #373737 0 1;
#X obj 370 35 osc.receive 5005;
#X obj 587 74 print Unrecognised OSC;
#X obj 370 130 unpack f f f f;
#X obj 409 192 vsl 17 128 -1 1 0 0 empty empty empty 0 -9 0 10 #e4e4e4 #4d4d4d #373737 0 1;
#X obj 384 468 vsl 17 128 -1 1 0 0 empty empty empty 0 -9 0 10 #e4e4e4 #4d4d4d #373737 0 1;
#X obj 370 74 osc.route /0/fusion/ /1/fusion/, f 28;
#X obj 576 192 vsl 17 128 -1 1 0 0 empty empty empty 0 -9 0 10 #e4e4e4 #4d4d4d #373737 0 1;
#X obj 606 192 vsl 17 128 -1 1 0 0 empty empty empty 0 -9 0 10 #e4e4e4 #4d4d4d #373737 0 1;
#X obj 572 130 unpack f f f f;
#X obj 641 192 vsl 17 128 -1 1 0 0 empty empty empty 0 -9 0 10 #e4e4e4 #4d4d4d #373737 0 1;
#X obj 493 468 vsl 17 128 -1 1 0 0 empty empty empty 0 -9 0 10 #e4e4e4 #4d4d4d #373737 0 1;
#X floatatom 380 611 5 0 0 0 - - - 12;
#X floatatom 489 611 5 0 0 0 - - - 12;
#X obj 671 192 vsl 17 128 -1 1 0 0 empty empty empty 0 -9 0 10 #e4e4e4 #4d4d4d #373737 0 1;
#X obj 436 192 vsl 17 128 -1 1 0 0 empty empty empty 0 -9 0 10 #e4e4e4 #4d4d4d #373737 0 1;
#X floatatom 290 350 5 0 0 0 - - - 12;
#X floatatom 342 350 5 0 0 0 - - - 12;
#X floatatom 394 350 5 0 0 0 - - - 12;
#X floatatom 446 350 5 0 0 0 - - - 12;
#X floatatom 534 350 5 0 0 0 - - - 12;
#X floatatom 586 350 5 0 0 0 - - - 12;
#X floatatom 638 350 5 0 0 0 - - - 12;
#X floatatom 690 350 5 0 0 0 - - - 12;
#X obj 534 393 expr $f1 + $f2 + $f3 + $f4;
#X obj 267 405 expr $f1 + $f2 + $f3 + $f4;
#X obj 23 130 bs-random-MIDI;
#X obj 258 732 bs-fm;
#X obj 258 670 notein;
#X obj 912 732 adsr~;
#X obj 258 1087 dac~;
#X obj 258 1037 *~;
#X obj 258 952 osc~;
#X obj 258 699 mtof;
#X obj 638 460 pmpd-test;
#X connect 0 0 17 0;
#X connect 1 0 18 0;
#X connect 2 0 7 0;
#X connect 4 0 0 0;
#X connect 4 1 1 0;
#X connect 4 2 5 0;
#X connect 4 3 16 0;
#X connect 5 0 19 0;
#X connect 6 0 13 0;
#X connect 7 0 4 0;
#X connect 7 1 10 0;
#X connect 7 2 3 0;
#X connect 8 0 21 0;
#X connect 9 0 22 0;
#X connect 10 0 8 0;
#X connect 10 1 9 0;
#X connect 10 2 11 0;
#X connect 10 3 15 0;
#X connect 11 0 23 0;
#X connect 12 0 14 0;
#X connect 13 0 28 1;
#X connect 14 0 28 2;
#X connect 15 0 24 0;
#X connect 16 0 20 0;
#X connect 17 0 26 0;
#X connect 18 0 26 1;
#X connect 19 0 26 2;
#X connect 20 0 26 3;
#X connect 21 0 25 0;
#X connect 22 0 25 1;
#X connect 23 0 25 2;
#X connect 24 0 25 3;
#X connect 25 0 12 0;
#X connect 26 0 6 0;
#X connect 28 0 33 0;
#X connect 29 0 34 0;
#X connect 29 1 30 0;
#X connect 30 0 32 1;
#X connect 32 0 31 0;
#X connect 32 0 31 1;
#X connect 33 0 32 0;
#X connect 34 0 28 0;
#X connect 35 0 12 0;
