#N canvas 827 239 527 327 12;
#X msg 400 612 history \$1;
#X obj 400 571 int;
#X floatatom 540 542 5 0 0 0 - - - 0;
#X obj 405 542 hsl 128 15 10 1000 1 1 empty empty History -2 -8 0 10 #fcfcfc #000000 #000000 6735 0;
#X obj 29 90 fluid.stats -history 10, f 27;
#X floatatom 29 118 5 0 0 0 - - - 12;
#X floatatom 198 118 5 0 0 0 - - - 12;
#N canvas 0 22 450 278 (subpatch) 0;
#X array \$0-mean 500 float 2;
#X coords 0 1 500 -1 200 140 1 0 0;
#X restore 402 215 graph;
#N canvas 0 22 450 278 (subpatch) 0;
#X array \$0-std-dev 500 float 2;
#X coords 0 1 500 -1 200 140 1 0 0;
#X restore 402 389 graph;
#X obj 29 7 inlet;
#N canvas 0 22 450 278 (subpatch) 0;
#X array \$0-value 500 float 2;
#X coords 0 1 500 -1 200 140 1 0 0;
#X restore 402 41 graph;
#X obj 400 643 s \$0-history;
#X obj 65 41 r \$0-history;
#X obj 29 150 array-write \$0-mean;
#X obj 198 150 array-write \$0-std-dev;
#X obj 92 7 array-write \$0-value;
#X msg 937 67 cos, f 5;
#X msg 979 67 spline, f 7;
#X msg 1114 67 cubic, f 6;
#X msg 1039 67 lagrange, f 9;
#X msg 903 67 lin, f 4;
#X msg 854 67 none, f 6;
#X obj 782 188 outlet~;
#X obj 737 90 phasor~;
#X floatatom 581 542 5 0 0 0 - - - 12;
#X obj 782 150 tabreader~ \$0-mean;
#X connect 0 0 11 0;
#X connect 1 0 2 0;
#X connect 2 0 0 0;
#X connect 3 0 1 0;
#X connect 4 0 5 0;
#X connect 4 1 6 0;
#X connect 5 0 13 0;
#X connect 6 0 14 0;
#X connect 9 0 4 0;
#X connect 9 0 15 0;
#X connect 12 0 4 0;
#X connect 16 0 25 0;
#X connect 17 0 25 0;
#X connect 18 0 25 0;
#X connect 19 0 25 0;
#X connect 20 0 25 0;
#X connect 21 0 25 0;
#X connect 23 0 25 0;
#X connect 24 0 23 0;
#X connect 25 0 22 0;
#X coords 0 0 1 1 240 563 1 380 1;
