#N canvas 827 239 527 327 12;
#X declare -stdpath ./;
#X obj 286 741 output~;
#X obj 832 32 declare -stdpath ./;
#X obj 286 216 soundfiler;
#X obj 286 131 openpanel;
#X obj 286 96 bng 25 250 50 0 empty empty empty 17 7 0 10 #e4e4e4 #4d4d4d #373737;
#X msg 286 171 read -resize \$1 file;
#X obj 286 258 tgl 25 0 empty empty empty 17 7 0 10 #e4e4e4 #4d4d4d #373737 0 1;
#N canvas 0 0 450 250 (subpatch) 0;
#X array file 2.0412e+08 float 2;
#X coords 0 1 2.0412e+08 -1 200 140 1;
#X restore 426 96 graph;
#X obj 286 315 tabplayer~ -loop file;
#X obj 425 315 noise~;
#X obj 248 315 vradio 20 1 1 5 empty empty empty 0 -8 0 10 #e4e4e4 #4d4d4d #373737 3;
#X obj 286 363 select~ 4, f 63;
#X obj 200 656 hradio 20 1 1 4 empty empty empty 0 -8 0 10 #e4e4e4 #4d4d4d #373737 1;
#X obj 178 32 loadbang;
#X obj 307 444 spec-son;
#X obj 286 699 select~ 3;
#X obj 565 315 adc~, f 11;
#X msg 171 54 read -resize /home/brian/Acoustic\ Data/Bernie\ Krause\ The\ Great\ Animal\ Orchestra.wav file, f 83;
#X connect 2 0 6 0;
#X connect 3 0 5 0;
#X connect 4 0 3 0;
#X connect 5 0 2 0;
#X connect 6 0 8 0;
#X connect 8 0 11 0;
#X connect 9 0 11 1;
#X connect 10 0 11 0;
#X connect 11 0 14 0 32.................v....LB....L....i....vC....;
#X connect 11 0 15 0;
#X connect 12 0 15 0;
#X connect 13 0 17 0;
#X connect 14 0 15 1;
#X connect 14 1 0 1;
#X connect 15 0 0 0;
#X connect 16 0 11 2;
#X connect 16 1 11 3;
#X connect 17 0 2 0;
