#N canvas 827 239 527 327 12;
#X declare -stdpath ./;
#X obj 286 743 output~;
#X obj 7 10 declare -stdpath ./;
#X obj 286 216 soundfiler;
#X obj 286 131 openpanel;
#X obj 286 96 bng 25 250 50 0 empty empty empty 17 7 0 10 #e4e4e4 #4d4d4d #373737;
#X obj 286 258 tgl 25 0 empty empty empty 17 7 0 10 #e4e4e4 #4d4d4d #373737 0 1;
#N canvas 0 0 450 250 (subpatch) 0;
#X array file-1 1.58855e+07 float 2;
#X coords 0 1 1.58855e+07 -1 200 140 1;
#X restore 426 96 graph;
#X obj 425 315 noise~;
#X obj 248 315 vradio 20 1 1 5 empty empty empty 0 -8 0 10 #e4e4e4 #4d4d4d #373737 1;
#X obj 286 363 select~ 4, f 63;
#X obj 200 656 hradio 20 1 1 4 empty empty empty 0 -8 0 10 #e4e4e4 #4d4d4d #373737 2;
#X obj 171 16 loadbang;
#X obj 341 434 spec-son;
#X obj 286 699 select~ 3;
#X obj 565 315 adc~, f 11;
#X msg 286 171 read -resize \$1 file-1;
#X obj 286 315 tabplayer~ -loop file-1;
#X obj 2007 344 soundfiler;
#X obj 1887 131 openpanel;
#X obj 1887 96 bng 25 250 50 0 empty empty empty 17 7 0 10 #e4e4e4 #4d4d4d #373737;
#X obj 2007 375 tgl 25 0 empty empty empty 17 7 0 10 #e4e4e4 #4d4d4d #373737 0 1;
#N canvas 0 0 450 250 (subpatch) 0;
#X array file-2 5.27201e+06 float 2;
#X coords 0 1 5.27201e+06 -1 200 140 1;
#X restore 2027 96 graph;
#X obj 1772 22 loadbang;
#X msg 1887 164 read -resize \$1 file-2;
#X obj 2007 409 tabplayer~ -loop file-2;
#X msg 171 54 read -resize /home/brian/Acoustic\ Data/Bernie\ Krause\ The\ Great\ Animal\ Orchestra.wav file-1, f 83;
#X msg 1772 54 read -resize /home/brian/Acoustic\ Data/noaa-passive-bioacoustic/adeon_ble_amar501.1/audio/MAR501.1.20180601T010031Z.wav file-2, f 118;
#X obj 1916 375 unpack f;
#X obj 1865 344 array size file-2;
#X obj 1865 375 /;
#X obj 2007 301 t b a;
#X obj 1865 403 * 1000;
#X msg 1865 438 play 0 \$1 -100;
#X msg 1770 438 play 0 \$1 100;
#X msg 171 734 level 1;
#X obj 171 707 loadbang;
#X obj 598 774 fft-window;
#X obj 598 734 unpack f;
#X obj 598 944 s \$0-window-array;
#X obj 846 396 r \$0-window-array;
#X obj 899 774 fft-window;
#X obj 899 734 unpack f;
#X obj 899 944 s \$0-window-array-nested;
#X obj 1096 387 r \$0-window-array-nested;
#X connect 2 0 5 0;
#X connect 3 0 15 0;
#X connect 4 0 3 0;
#X connect 5 0 16 0;
#X connect 7 0 9 1;
#X connect 8 0 9 0;
#X connect 9 0 13 0;
#X connect 9 0 12 0 32.................H....7C....B....+....DA....;
#X connect 10 0 13 0;
#X connect 11 0 25 0;
#X connect 12 0 13 1;
#X connect 12 1 37 0;
#X connect 12 2 41 0;
#X connect 12 3 0 1;
#X connect 13 0 0 0;
#X connect 14 0 9 2;
#X connect 14 1 9 3;
#X connect 15 0 2 0;
#X connect 16 0 9 0;
#X connect 17 0 20 0;
#X connect 17 1 27 0;
#X connect 18 0 23 0;
#X connect 19 0 18 0;
#X connect 20 0 24 0;
#X connect 22 0 26 0;
#X connect 23 0 30 0;
#X connect 25 0 2 0;
#X connect 26 0 17 0;
#X connect 27 0 29 1;
#X connect 28 0 29 0;
#X connect 29 0 31 0;
#X connect 30 0 28 0;
#X connect 30 1 17 0;
#X connect 31 0 32 0;
#X connect 31 0 33 0;
#X connect 34 0 0 0;
#X connect 35 0 34 0;
#X connect 36 0 38 0;
#X connect 37 0 36 0;
#X connect 39 0 12 2;
#X connect 40 0 42 0;
#X connect 41 0 40 0;
#X connect 43 0 12 3;
