#N canvas 827 239 527 327 12;
#X declare -stdpath ./;
#X obj 99 991 output~;
#X obj -218 -122 declare -stdpath ./;
#X obj 7 915 hradio 20 1 1 4 empty empty empty 0 -8 0 10 #e4e4e4 #4d4d4d #373737 2;
#X obj 99 949 select~ 3, f 18;
#X obj 99 162 adc~, f 11;
#X obj 958 74 fft-window;
#X obj 958 34 unpack f;
#X obj -10 991 loadmess 1;
#X msg -10 1016 level \$1;
#X obj 449 74 block-control;
#X obj 449 239 s \$0-block-params;
#X obj 958 7 r \$0-block-params;
#X obj 435 359 r \$0-block-params;
#X obj 204 162 noise~;
#X obj -35 162 hradio 20 1 1 5 empty empty empty 0 -8 0 10 #e4e4e4 #4d4d4d #373737 1;
#X obj 273 -75 samplerate~;
#X obj 273 -52 / 2;
#X obj 273 83 line~;
#X obj 273 10 t a b, f 8;
#X msg 308 47 0;
#X obj 273 -142 bng 25 250 50 0 empty empty empty 17 7 0 10 #e4e4e4 #4d4d4d #373737;
#X msg 308 -136 stop;
#X obj 273 111 osc~;
#X obj 273 -101 metro 5000;
#X msg 273 -20 \$1 5000;
#X obj 286 162 osc~ 220;
#X obj 99 197 select~ 4, f 28;
#X obj 586 991 MT6\ Abstractions/bs-detect-frequencies;
#X obj 249 390 spec-son-test-load;
#X connect 2 0 3 0;
#X connect 3 0 0 0;
#X connect 4 0 26 0;
#X connect 5 0 28 4;
#X connect 6 0 5 0;
#X connect 7 0 8 0;
#X connect 8 0 0 0;
#X connect 9 0 10 0;
#X connect 9 1 28 2;
#X connect 9 2 28 3;
#X connect 11 0 6 0;
#X connect 12 0 28 1;
#X connect 13 0 26 1;
#X connect 14 0 26 0;
#X connect 15 0 16 0;
#X connect 16 0 24 0;
#X connect 17 0 22 0;
#X connect 18 0 17 0;
#X connect 18 1 19 0;
#X connect 19 0 17 0;
#X connect 20 0 23 0;
#X connect 21 0 23 0;
#X connect 22 0 26 2;
#X connect 23 0 15 0;
#X connect 24 0 18 0;
#X connect 25 0 26 3;
#X connect 26 0 3 0;
#X connect 26 0 28 0;
#X connect 28 0 27 0;
#X connect 28 0 3 1;
#X connect 28 1 0 1;
#X coords 0 0 1 1 482 158 1 446 70;
