#N canvas 827 239 527 327 12;
#X obj 310 569 inlet~;
#X obj 310 718 rfft~;
#X obj 214 1687 tabreceive~ \$0-hann;
#X obj 374 1999 outlet~;
#N canvas 0 0 450 300 (subpatch) 0;
#X array \$0-hann 1024 float 0;
#X coords 0 1 1023 0 200 120 1;
#X restore 1414 119 graph;
#X msg 1276 209 0;
#X obj 1167 533 osc~;
#X obj 1164 209 samplerate~;
#X obj 1167 567 *~ -0.5;
#X obj 1167 590 +~ 0.5;
#X obj 1149 615 tabwrite~ \$0-hann;
#X text 1374 108 1;
#X text 1367 226 0;
#X obj 1152 93 bng 19 250 50 0 empty empty empty 0 -6 0 8 #dfdfdf #000000 #000000;
#X text 1647 117 Hann window;
#X text 1195 82 recalculate Hann;
#X text 1230 97 window table;
#X obj 1149 59 loadbang;
#X floatatom 1167 500 15 0 0 0 - - - 12;
#X obj 192 410 s block-params;
#X obj 192 435 r block-params;
#X obj 192 497 block~;
#X obj 37 162 power-of-two;
#X obj 150 162 power-of-two;
#X msg 37 100 10;
#X obj 37 57 t b b b;
#X msg 152 100 2;
#X obj 450 759 tabsend~ \$0-real;
#X obj 582 759 tabsend~ \$0-imaginary;
#X obj 1164 469 /;
#X obj 1197 245 r block-params;
#X floatatom 1197 396 10 0 0 0 - - - 16;
#X obj 1197 429 t b f;
#X obj 539 1790 r block-params;
#X floatatom 539 1848 5 0 0 0 - - - 12;
#X obj 1197 272 unpack f f;
#X obj 539 1818 unpack f f;
#X floatatom 602 1848 5 0 0 0 - - - 12;
#X obj 374 1784 *~;
#X obj 181 313 t b f;
#X obj 732 170 samplerate~;
#X obj 711 207 /;
#X obj 711 136 t f b;
#X floatatom 711 233 5 0 0 0 - - - 12;
#X text 1149 23 Computing Hann window;
#X obj 192 355 pack f f f;
#X msg 192 468 set \$1 \$2 \$3;
#X obj 310 777 snake~;
#X obj 374 1648 snake~ out;
#X obj 374 1698 rifft~;
#X obj 1197 369 /;
#X obj 1149 132 t b b b;
#X obj 711 279 /;
#X floatatom 711 305 5 0 0 0 - - - 12;
#X obj 711 331 expr 1/$f1;
#X floatatom 711 357 6 0 0 0 - - - 12;
#X text 557 354 Overlap frequency (Hz):;
#X text 557 230 Window Size (seconds):;
#X msg 1613 54 const 1;
#X obj 1613 85 s \$0-hann;
#N canvas 0 50 450 300 arrays 0;
#N canvas 0 0 450 250 (subpatch) 0;
#X array \$0-real 513 float 2;
#X coords 0 1 513 -1 200 140 1;
#X restore 448 100 graph;
#N canvas 0 0 450 300 (subpatch) 0;
#X array \$0-gain 1024 float 1;
#A 0 1 1 1 1 1 1 1 1 1 1 1 1 1 1 1 1 1 1 1 1 1 1 1 1 1 1 1 1 1 1 1 1 1 1 1 1 1 1 1 1 1 1 1 1 1 1 1 1 1 1 1 1 1 1 1 1 1 1 1 1 1 1 1 1 1 1 1 1 1 1 1 1 1 1 1 1 1 1 1 1 1 1 1 1 1 1 1 1 1 1 1 1 1 1 1 1 1 1 1 1 1 1 1 1 1 1 1 1 1 1 1 1 1 1 1 1 1 1 1 1 1 1 1 1 1 1 1 1 1 1 1 1 1 1 1 1 1 1 1 1 1 1 1 1 1 1 1 1 1 1 1 1 1 1 1 1 1 1 1 1 1 1 1 1 1 1 1 1 1 1 1 1 1 1 1 1 1 1 1 1 1 1 1 1 1 1 1 1 1 1 1 1 1 1 1 1 1 1 1 1 1 1 1 1 1 1 1 1 1 1 1 1 1 1 1 1 1 1 1 1 1 1 1 1 1 1 1 1 1 1 1 1 1 1 1 1 1 1 1 1 1 1 1 1 1 1 1 1 1 1 1 1 1 1 1 1 1 1 1 1 1 1 1 1 1 1 1 1 1 1 1 1 1 1 1 1 1 1 1 1 1 1 1 1 1 1 1 1 1 1 1 1 1 1 1 1 1 1 1 1 1 1 1 1 1 1 1 1 1 1 1 1 1 1 1 1 1 1 1 1 1 1 1 1 1 1 1 1 1 1 1 1 1 1 1 1 1 1 1 1 1 1 1 1 1 1 1 1 1 1 1 1 1 1 1 1 1 1 1 1 1 1 1 1 1 1 1 1 1 1 1 1 1 1 1 1 1 1 1 1 1 1 1 1 1 1 1 1 1 1 1 1 1 1 1 1 1 1 1 1 1 1 1 1 1 1 1 1 1 1 1 1 1 1 1 1 1 1 1 1 1 1 1 1 1 1 1 1 1 1 1 1 1 1 1 1 1 1 1 1 1 1 1 1 1 1 1 1 1 1 1 1 1 1 1 1 1 1 1 1 1 1 1 1 1 1 1 1 1 1 1 1 1 1 1 1 1 1 1 1 1 1 1 1 1 1 1 1 1 1 1 1 1 1 1 1 1 1 1 1 1 1 1 1 1 1 1 1 1 1 1 1 1 1 1 1 1 1 1 1 1 1 1 1 1 1 1 1 1 1 1 1 1 1 1 1 1 1 1 1 1 1 1 1 1 1 1 1 1 1 1 1 1 1 1 1 1 1 1 1 1 1 1 1 1 1 1 1 1 1 1 1 1 1 1 1 1 1 1 1 1 1 1 1 1 1 1 1 1 1 1 1 1 1 1 1 1 1 1 1 1 1 1 1 1 1 1 1 1 1 1 1 1 1 1 1 1 1 1 1 1 1 1 1 1 1 1 1 1 1 1 1 1 1 1 1 1 1 1 1 1 1 1 1 1 1 1 1 1 1 1 1 1 1 1 1 1 1 1 1 1 1 1 1 1 1 1 1 1 1 1 1 1 1 1 1 1 1 1 1 1 1 1 1 1 1 1 1 1 1 1 1 1 1 1 1 1 1 1 1 1 1 1 1 1 1 1 1 1 1 1 1 1 1 1 1 1 1 1 1 1 1 1 1 1 1 1 1 1 1 1 1 1 1 1 1 1 1 1 1 1 1 1 1 1 1 1 1 1 1 1 1 1 1 1 1 1 1 1 1 1 1 1 1 1 1 1 1 1 1 1 1 1 1 1 1 1 1 1 1 1 1 1 1 1 1 1 1 1 1 1 1 1 1 1 1 1 1 1 1 1 1 1 1 1 1 1 1 1 1 1 1 1 1 1 1 1 1 1 1 1 1 1 1 1 1 1 1 1 1 1 1 1 1 1 1 1 1 1 1 1 1 1 1 1 1 1 1 1 1 1 1 1 1 1 1 1 1 1 1 1 1 1 1 1 1 1 1 1 1 1 1 1 1 1 1 1 1 1 1 1 1 1 1 1 1 1 1 1 1 1 1 1 1 1 1 1 1 1 1 1 1 1 1 1 1 1 1 1 1 1 1 1 1 1 1 1 1 1 1 1 1 1 1 1 1 1 1 1 1 1 1 1 1 1 1 1 1 1 1 1 1 1 1 1 1 1 1 1 1 1 1 1 1 1 1 1 1 1 1 1 1 1 1 1 1 1 1 1 1 1 1 1 1 1 1 1 1 1 1 1 1 1 1 1 1 1 1 1 1 1 1 1 1 1 1 1 1 1 1;
#A 1000 1 1 1 1 1 1 1 1 1 1 1 1 1 1 1 1 1 1 1 1 1 1 1 1;
#X coords 0 1 1023 -0.01 512 100 1 0 0;
#X restore 448 500 graph;
#X msg 426 652 const 0;
#X obj 426 681 s \$0-gain;
#X text 432 583 0;
#X text 432 484 1;
#X text 445 593 0;
#X text 942 596 22K;
#X text 661 469 GAIN;
#X text 484 645 <= reset gain;
#X msg 316 652 const 1;
#X msg 381 621 const 0.5;
#N canvas 0 0 450 250 (subpatch) 0;
#X array \$0-imaginary 511 float 2;
#X coords 0 1 511 -1 200 140 1;
#X restore 448 263 graph;
#N canvas 0 0 450 250 (subpatch) 0;
#X array \$0-full-block 1024 float 2;
#X coords 0 2 1024 -2 200 140 1;
#X restore 707 263 graph;
#X obj 152 50 r block-params;
#X obj 152 211 pack f \$0;
#X msg 30 326 \; \$2-real resize \$1, f 18;
#X msg 30 374 \; \$2-imaginary resize \$1;
#X msg 156 263 \; \$2-gain resize \$1;
#X obj 251 180 pack f \$0;
#X msg 279 263 \; \$2-full-block resize \$1;
#X obj 152 142 / 2;
#X obj 318 211 t b a;
#X obj 152 100 unpack f;
#X obj 30 211 pack f \$0;
#X obj 30 180 + 1;
#X obj 152 174 - 1;
#X connect 2 0 3 0;
#X connect 10 0 3 0;
#X connect 11 0 3 0;
#X connect 14 0 23 0;
#X connect 15 0 17 0;
#X connect 19 0 22 0;
#X connect 21 0 25 0;
#X connect 21 0 26 0;
#X connect 22 0 10 0;
#X connect 22 1 20 0;
#X connect 22 1 18 0;
#X connect 23 0 19 0;
#X connect 23 0 21 0;
#X connect 24 0 16 0;
#X connect 25 0 24 0;
#X connect 26 0 15 0;
#X restore 450 718 pd arrays;
#X msg 1328 348 \; \$2-hann resize \$1;
#X obj 1328 318 pack f \$0;
#X obj 1197 318 t f f;
#X obj 374 569 r windowing;
#X obj 403 1909 select~;
#X obj 471 1863 sig~ 1;
#X obj 339 257 tgl 25 0 empty empty empty 17 7 0 10 #e4e4e4 #4d4d4d #373737 0 1;
#X obj 337 313 + 1;
#X obj 390 273 loadbang;
#X obj 471 1909 /~;
#X msg 707 1818 0.375;
#X floatatom 707 1848 8 0 0 0 - - - 12;
#X obj 707 1884 t b f;
#X obj 707 1790 loadbang;
#X obj 711 64 r block-params, f 15;
#X obj 711 102 unpack f f, f 29;
#X obj 233 313 t b f;
#X obj 880 159 /;
#X floatatom 880 185 5 0 0 0 - - - 12;
#X obj 776 273 s size-in-secs;
#X obj 711 389 s overlaps-per-sec;
#X obj -117 251 r size-in-secs;
#X obj -117 371 r overlaps-per-sec;
#X floatatom 47 264 5 0 0 0 - - - 12;
#X floatatom 154 264 6 0 0 0 - - - 12;
#X floatatom 207 264 5 0 0 0 - - - 12;
#X obj 264 162 power-of-two;
#X msg 264 100 0, f 6;
#X obj 374 1958 *~;
#X obj 403 1863 sig~ 1;
#X floatatom 539 1910 22 0 0 0 - - - 12;
#X obj 539 1878 expr $f1 * $f2 * $f3;
#X obj 310 634 *~;
#X obj 37 27 loadbang;
#X obj 598 1001 scale-phase;
#X obj 132 1720 select~;
#X obj 132 1687 sig~ 1;
#X obj 107 1648 hradio 20 1 0 3 empty empty empty 0 -8 0 10 #e4e4e4 #4d4d4d #373737 0;
#X obj 494 639 tabreceive~ \$0-hann;
#X obj 412 672 select~;
#X obj 412 639 sig~ 1;
#X obj 374 604 hradio 20 1 0 3 empty empty empty 0 -8 0 10 #e4e4e4 #4d4d4d #373737 0;
#X obj 337 371 s normalise;
#X obj 278 1863 r normalise;
#X obj 717 1001 fft-gain;
#X obj 107 1620 r windowing;
#X obj 278 257 tgl 25 0 empty empty empty 17 7 0 10 #e4e4e4 #4d4d4d #373737 0 1;
#X obj 278 313 + 1;
#X obj 278 342 s windowing;
#X text 254 257 win;
#X text 305 257 norm;
#X text 313 465 If [block~] has a size of 512 and overlap 4 \, this window will compute blocks of 512 samples at intervals of 128 samples computed on the parent patch., f 58;
#X text 313 517 The inlet~ re-uses 3/4 of the previous block \, along with the 128 new samples., f 49;
#X obj 154 1002 c_sq;
#X obj 262 1002 fft-freq-select;
#X obj 204 923 r block-params;
#X obj 204 954 unpack f;
#X obj 689 624 outlet~;
#X text 748 623 Unprocessed output;
#X obj 428 1001 threshold;
#X obj 748 538 knob 50 0 1 0 0 empty empty #E4E4E4 #B7B7B7 #4D4D4D 1 0 0 0 1 270 0 0 0;
#X obj 737 594 *~;
#X obj 317 889 power-of-two;
#X obj 484 889 power-of-two;
#X text 264 137 Sampling ratio, f 13;
#X text 37 137 Block size;
#X text 150 137 Overlap ratio;
#N canvas 0 50 450 300 other_filters 0;
#X obj 208 243 avg-amp;
#X obj 330 243 phase-shift;
#X restore 1149 749 pd other_filters;
#X obj 1033 569 inlet~;
#X obj 1022 624 *~;
#X obj 1022 718 rfft~;
#X obj 1022 759 snake~;
#X obj 927 1418 fft-gain;
#X obj 927 1159 phase-swap;
#X obj 1155 889 r block-params;
#X obj 1155 920 unpack f;
#X obj 959 816 fft-freeze;
#X obj 959 981 scale-phase;
#X obj 145 672 tabsend~ \$0-full-block;
#X obj 47 1002 fft-gain;
#X obj 192 383 t a a;
#X obj 880 252 s block-interval;
#X obj -117 342 r block-interval;
#X obj 1013 220 /;
#X obj 1031 191 samplerate~;
#X obj 1013 159 t f b;
#X obj 1013 252 s block-interval-in-s;
#X obj -117 286 r block-interval-in-s;
#X floatatom 101 264 5 0 0 0 - - - 12;
#X connect 0 0 122 0;
#X connect 0 0 93 0;
#X connect 1 0 27 0;
#X connect 1 0 47 0;
#X connect 1 1 47 1;
#X connect 1 1 28 0;
#X connect 2 0 96 1;
#X connect 5 0 6 1;
#X connect 6 0 8 0;
#X connect 7 0 29 0;
#X connect 8 0 9 0;
#X connect 9 0 10 0;
#X connect 13 0 51 0;
#X connect 17 0 13 0;
#X connect 18 0 6 0;
#X connect 20 0 46 0;
#X connect 22 0 45 0;
#X connect 23 0 39 0;
#X connect 24 0 22 0;
#X connect 25 0 88 0;
#X connect 25 1 26 0;
#X connect 25 2 24 0;
#X connect 26 0 23 0;
#X connect 29 0 18 0;
#X connect 30 0 35 0;
#X connect 31 0 32 0;
#X connect 32 0 13 0;
#X connect 32 1 29 1;
#X connect 33 0 36 0;
#X connect 34 0 92 0;
#X connect 35 0 63 0;
#X connect 35 1 50 1;
#X connect 36 0 34 0;
#X connect 36 1 37 0;
#X connect 37 0 92 1;
#X connect 38 0 89 0;
#X connect 39 0 45 0;
#X connect 39 1 45 1;
#X connect 40 0 41 1;
#X connect 41 0 43 0;
#X connect 42 0 41 0;
#X connect 42 1 40 0;
#X connect 43 0 52 0;
#X connect 43 0 80 0;
#X connect 45 0 141 0;
#X connect 46 0 21 0;
#X connect 47 0 140 0;
#X connect 48 0 49 0;
#X connect 48 1 49 1;
#X connect 49 0 38 0;
#X connect 50 0 31 0;
#X connect 51 0 10 0;
#X connect 51 1 5 0;
#X connect 51 2 7 0;
#X connect 52 0 53 0;
#X connect 53 0 54 0;
#X connect 54 0 55 0;
#X connect 55 0 81 0;
#X connect 58 0 59 0;
#X connect 62 0 61 0;
#X connect 63 0 50 0;
#X connect 63 1 62 0;
#X connect 64 0 102 0;
#X connect 65 0 89 1;
#X connect 66 0 70 0;
#X connect 67 0 68 0;
#X connect 68 0 103 0;
#X connect 69 0 67 0;
#X connect 69 0 107 0;
#X connect 70 0 65 1;
#X connect 71 0 72 0;
#X connect 72 0 73 0;
#X connect 73 0 92 0;
#X connect 73 1 92 2;
#X connect 74 0 71 0;
#X connect 75 0 76 0;
#X connect 76 0 42 0;
#X connect 76 0 78 0;
#X connect 76 1 78 1;
#X connect 76 1 52 1;
#X connect 77 0 45 0;
#X connect 77 1 45 2;
#X connect 78 0 79 0;
#X connect 79 0 142 0;
#X connect 79 0 146 0;
#X connect 82 0 84 0;
#X connect 83 0 86 0;
#X connect 87 0 77 0;
#X connect 88 0 87 0;
#X connect 89 0 3 0;
#X connect 90 0 65 0;
#X connect 91 0 70 1;
#X connect 92 0 91 0;
#X connect 93 0 1 0;
#X connect 93 0 139 0;
#X connect 94 0 25 0;
#X connect 95 0 105 0;
#X connect 96 0 38 1;
#X connect 97 0 96 0;
#X connect 98 0 96 0;
#X connect 99 0 100 1;
#X connect 100 0 93 1;
#X connect 100 0 130 0;
#X connect 101 0 100 0;
#X connect 102 0 100 0;
#X connect 104 0 65 0;
#X connect 105 0 134 0;
#X connect 106 0 98 0;
#X connect 107 0 108 0;
#X connect 108 0 109 0;
#X connect 114 0 115 0;
#X connect 115 0 120 0;
#X connect 116 0 117 0;
#X connect 117 0 115 1;
#X connect 120 0 95 0;
#X connect 121 0 122 1;
#X connect 122 0 118 0;
#X connect 123 0 115 2;
#X connect 124 0 120 1;
#X connect 129 0 130 1;
#X connect 130 0 131 0;
#X connect 131 0 132 0;
#X connect 131 1 132 1;
#X connect 132 0 137 0;
#X connect 133 0 48 0;
#X connect 134 0 133 0;
#X connect 135 0 136 0;
#X connect 136 0 134 2;
#X connect 137 0 138 0;
#X connect 138 0 134 1;
#X connect 140 0 114 0;
#X connect 140 0 114 1;
#X connect 141 0 19 0;
#X connect 143 0 85 0;
#X connect 144 0 147 0;
#X connect 145 0 144 1;
#X connect 146 0 144 0;
#X connect 146 1 145 0;
#X connect 148 0 149 0;
#X coords 0 0 1 1 340 156 2 31 134;
