#N canvas 443 42 623 510 12;
#X declare -stdpath ./;
#X text 753 489 updated for Pd version 0.39;
#X obj -56 613 output~;
#X text 445 50 FOURIER RESYNTHESIS;
#X text 428 86 Using Fourier resynthesis you can take an incoming sound \, operate on its spectrum \, and hear the result. Here we start with white noise and apply a frequency-dependent gain \, which works as a graphic equalizer. There are N/2 = 256 points \, each spaced SR/512 Hz. apart (although their frequency ranges overlap). Open the "fft-analysis" patch to see the workings., f 68;
#X obj 816 42 declare -stdpath ./;
#X obj 46 174 soundfiler;
#X obj 46 89 openpanel;
#X obj 46 54 bng 25 250 50 0 empty empty empty 17 7 0 10 #e4e4e4 #4d4d4d #373737;
#X msg 46 129 read -resize \$1 file;
#X obj 46 216 tgl 25 0 empty empty empty 17 7 0 10 #e4e4e4 #4d4d4d #373737 0 1;
#N canvas 0 0 450 250 (subpatch) 0;
#X array file 3.528e+06 float 2;
#X coords 0 1 3.528e+06 -1 200 140 1;
#X restore 186 54 graph;
#X obj 46 273 tabplayer~ -loop file;
#X obj 46 397 osc~;
#X obj 46 447 *~;
#X obj 108 397 knob 50 0 1 0 0 empty empty #E4E4E4 #B7B7B7 #4D4D4D 1 0 0 0 1 270 0 0 0;
#X obj 46 362 fft-analysis;
#X obj 185 273 noise~;
#X obj 8 273 vradio 20 1 0 5 empty empty empty 0 -8 0 10 #e4e4e4 #4d4d4d #373737 0;
#X obj 46 321 select~ 4, f 63;
#X obj 465 273 sig~ 1;
#X obj 325 273 sig~ 0;
#X obj 474 508 dac~ 3 4;
#X obj 474 465 *~;
#X obj 485 397 knob 50 0 1 0 0 empty empty #E4E4E4 #B7B7B7 #4D4D4D 1 0 0 0 1 270 0 0 0;
#X obj 399 437 select~ 2;
#X obj 399 397 hradio 20 1 0 3 empty empty empty 0 -8 0 10 #e4e4e4 #4d4d4d #373737 0;
#X obj 46 497 +~;
#X obj -56 575 select~ 2;
#X obj -56 535 hradio 20 1 1 3 empty empty empty 0 -8 0 10 #e4e4e4 #4d4d4d #373737 2;
#X connect 6 0 8 0;
#X connect 7 0 6 0;
#X connect 8 0 5 0;
#X connect 9 0 11 0;
#X connect 11 0 18 0;
#X connect 12 0 13 0;
#X connect 13 0 26 0;
#X connect 14 0 13 1;
#X connect 15 0 12 0;
#X connect 15 1 26 1;
#X connect 16 0 18 1;
#X connect 17 0 18 0;
#X connect 18 0 15 0;
#X connect 18 0 24 0;
#X connect 18 0 27 0;
#X connect 19 0 18 3;
#X connect 20 0 18 2;
#X connect 22 0 21 0;
#X connect 22 0 21 1;
#X connect 23 0 22 1;
#X connect 24 0 22 0;
#X connect 25 0 24 0;
#X connect 26 0 24 1;
#X connect 26 0 27 1;
#X connect 27 0 1 0;
#X connect 28 0 27 0;
