#N canvas 827 239 527 327 12;
#X obj 69 42 knob 50 0 4000 4 10 empty empty #E4E4E4 #B7B7B7 #4D4D4D 1 0 0 0 1 270 0 0 0;
#X obj 141 133 t b f;
#X floatatom 141 104 5 0 0 0 - - - 12;
#X floatatom 69 106 5 0 0 0 - - - 12;
#X obj 141 42 knob 50 0 1 0 0 empty empty #E4E4E4 #B7B7B7 #4D4D4D 1 0 0 0 1 270 0 0 0;
#X msg 289 115 1000;
#X obj 347 74 loadbang;
#X obj 69 191 -;
#X obj 152 170 *;
#X floatatom 69 233 5 0 0 0 - - - 12;
#X floatatom 58 431 5 0 0 0 - - - 12;
#X obj 58 329 expr max($f1 - ($f2 * $f3) \, 0);
#X connect 0 0 3 0;
#X connect 1 0 7 0;
#X connect 1 0 11 0;
#X connect 1 1 8 0;
#X connect 1 1 11 1;
#X connect 2 0 1 0;
#X connect 3 0 11 0;
#X connect 3 0 7 0;
#X connect 4 0 2 0;
#X connect 5 0 8 1;
#X connect 5 0 11 2;
#X connect 6 0 5 0;
#X connect 7 0 9 0;
#X connect 8 0 7 1;
#X connect 11 0 10 0;
