#N canvas 827 239 527 327 12;
#N canvas 0 0 450 250 (subpatch) 0;
#X array X 500 float 2;
#X coords 0 1 500 -1 200 140 1;
#X restore 232 772 graph;
#X obj 77 25 osc.receive 5005;
#X obj 924 323 print Unrecognised OSC;
#X obj 520 279 print MAC;
#X obj 77 58 osc.route /start;
#X obj 77 87 s start;
#N canvas 0 50 450 300 counts 1;
#X obj 395 165 count;
#X floatatom 395 239 5 0 0 0 - - - 12;
#X obj 481 165 count;
#X floatatom 455 239 5 0 0 0 - - - 12;
#X obj 571 165 count;
#X floatatom 524 239 5 0 0 0 - - - 12;
#X obj 373 165 bng 18 250 50 0 empty empty empty 17 7 0 10 #e4e4e4 #4d4d4d #373737;
#X obj 455 165 bng 18 250 50 0 empty empty empty 17 7 0 10 #e4e4e4 #4d4d4d #373737;
#X obj 546 165 bng 18 250 50 0 empty empty empty 17 7 0 10 #e4e4e4 #4d4d4d #373737;
#X obj 118 66 inlet;
#X text 19 65 Start message:;
#X obj 370 66 inlet;
#X obj 451 66 inlet;
#X obj 542 66 inlet;
#X obj 840 66 inlet;
#X obj 901 66 inlet;
#X obj 967 66 inlet;
#X floatatom 395 286 5 0 0 0 - - - 12;
#X floatatom 455 286 5 0 0 0 - - - 12;
#X msg 120 111 0;
#X text 395 213 ACC;
#X text 455 213 GYRO;
#X floatatom 524 286 5 0 0 0 - - - 12;
#X text 768 25 Sample counts from script;
#X text 451 25 OSC samples received;
#X text 194 238 Samples Received:;
#X text 222 285 Samples Sent:;
#X obj 650 165 count;
#X obj 625 165 bng 18 250 50 0 empty empty empty 17 7 0 10 #e4e4e4 #4d4d4d #373737;
#X obj 621 66 inlet;
#X floatatom 588 239 5 0 0 0 - - - 12;
#X text 588 213 FUSE;
#X text 524 213 MAG;
#X obj 1026 66 inlet;
#X floatatom 588 286 5 0 0 0 - - - 12;
#X obj 320 165 count;
#X obj 295 165 bng 18 250 50 0 empty empty empty 17 7 0 10 #e4e4e4 #4d4d4d #373737;
#X obj 291 66 inlet;
#X floatatom 327 239 5 0 0 0 - - - 12;
#X floatatom 327 286 5 0 0 0 - - - 12;
#X text 319 213 FUSION;
#X obj 782 66 inlet;
#X connect 0 0 1 0;
#X connect 2 0 3 0;
#X connect 4 0 5 0;
#X connect 6 0 0 0;
#X connect 7 0 2 0;
#X connect 8 0 4 0;
#X connect 9 0 19 0;
#X connect 11 0 6 0;
#X connect 12 0 7 0;
#X connect 13 0 8 0;
#X connect 14 0 17 0;
#X connect 15 0 18 0;
#X connect 16 0 22 0;
#X connect 19 0 18 0;
#X connect 19 0 17 0;
#X connect 19 0 22 0;
#X connect 19 0 34 0;
#X connect 19 0 0 0;
#X connect 19 0 2 0;
#X connect 19 0 4 0;
#X connect 19 0 27 0;
#X connect 19 0 35 0;
#X connect 19 0 39 0;
#X connect 27 0 30 0;
#X connect 28 0 27 0;
#X connect 29 0 28 0;
#X connect 33 0 34 0;
#X connect 35 0 38 0;
#X connect 36 0 35 0;
#X connect 37 0 36 0;
#X connect 41 0 39 0;
#X coords 0 0 1 1 489 138 1 161 195;
#X restore 239 372 pd counts;
#X obj 239 336 r start;
#X obj 77 142 osc.route /fusion/wxyz /acc/xyz /gyro/xyz /mag/xyz /fuse/acc-gyro-mag, f 73;
#X obj 520 241 osc.route /MAC /fusion/n-samps /acc/n-samps /gyro/n-samps /mag/n-samps /fuse/n-samps, f 79;
#X obj 31 539 unpack f f f f;
#X floatatom 17 580 5 0 0 0 - - - 12;
#X floatatom 59 580 5 0 0 0 - - - 12;
#X floatatom 104 580 5 0 0 0 - - - 12;
#X floatatom 151 580 5 0 0 0 - - - 12;
#N canvas 0 0 450 250 (subpatch) 0;
#X array W 500 float 2;
#X coords 0 1 500 -1 200 140 1;
#X restore 17 772 graph;
#N canvas 0 0 450 250 (subpatch) 0;
#X array Y 500 float 2;
#X coords 0 1 500 -1 200 140 1;
#X restore 446 772 graph;
#N canvas 0 0 450 250 (subpatch) 0;
#X array Z 500 float 2;
#X coords 0 1 500 -1 200 140 1;
#X restore 668 772 graph;
#X obj 17 688 array-write W;
#X obj 155 688 array-write X;
#X obj 293 688 array-write Y;
#X obj 432 688 array-write Z;
#X connect 1 0 4 0;
#X connect 4 0 5 0;
#X connect 4 1 8 0;
#X connect 7 0 6 0;
#X connect 8 0 6 1;
#X connect 8 0 10 0;
#X connect 8 1 6 2;
#X connect 8 2 6 3;
#X connect 8 3 6 4;
#X connect 8 4 6 5;
#X connect 8 5 9 0;
#X connect 9 0 3 0;
#X connect 9 1 6 6;
#X connect 9 2 6 7;
#X connect 9 3 6 8;
#X connect 9 4 6 9;
#X connect 9 5 6 10;
#X connect 9 6 2 0;
#X connect 10 0 11 0;
#X connect 10 1 12 0;
#X connect 10 2 13 0;
#X connect 10 3 14 0;
#X connect 11 0 18 0;
#X connect 12 0 19 0;
#X connect 13 0 20 0;
#X connect 14 0 21 0;
