#N canvas 827 239 527 327 12;
#X obj 50 25 inlet~;
#X obj 20 418 outlet~;
#X obj 50 115 car2pol~, f 11;
#X obj 50 300 pol2car~, f 11;
#X obj 50 67 snake~ out, f 11;
#X obj 50 340 snake~, f 10;
#X obj 392 25 loadbang, f 9;
#X obj 20 374 select~;
#X obj 559 328 tgl 25 0 empty empty empty 17 7 0 10 #e4e4e4 #4d4d4d #373737 0 1;
#X obj 563 370 + 1, f 5;
#X floatatom 563 395 7 0 0 0 - - - 16;
#X obj 50 267 *~;
#X text 140 100 Current sample (i.e. frequency bin) greater than (or less than) threshold parameter, f 35;
#X obj 140 159 fexpr~ ($f2 <= $x1) && ($x1 <= $f3);
#X msg 466 25 4000, f 6;
#X msg 523 25 range 0 \$1;
#X obj 140 197 bng 19 250 50 0 empty empty empty 17 7 0 10 #e4e4e4 #4d4d4d #373737;
#X obj 165 197 print~;
#X obj 454 140 range-knob 4000;
#X floatatom 454 302 5 0 0 0 - - - 12;
#X floatatom 547 302 5 0 0 0 - - - 12;
#X text 501 334 Enabled:;
#X text 454 113 Magnitude Threshold;
#X obj 405 114 t b a;
#X obj 155 25 inlet;
#X text 195 24 Exponential for knobs;
#X connect 0 0 4 0;
#X connect 0 0 7 0 32.................K.....7++++B.....++++2P....;
#X connect 2 0 11 0;
#X connect 2 0 13 0;
#X connect 2 1 3 1;
#X connect 3 0 5 0;
#X connect 3 1 5 1;
#X connect 4 0 2 0;
#X connect 4 1 2 1;
#X connect 5 0 7 1;
#X connect 6 0 14 0;
#X connect 7 0 1 0;
#X connect 8 0 9 0;
#X connect 9 0 10 0;
#X connect 10 0 7 0;
#X connect 11 0 3 0;
#X connect 13 0 17 0;
#X connect 13 0 11 1;
#X connect 14 0 15 0;
#X connect 15 0 23 0;
#X connect 16 0 17 0;
#X connect 18 0 19 0;
#X connect 18 1 20 0;
#X connect 19 0 13 1;
#X connect 20 0 13 2;
#X connect 23 0 8 0;
#X connect 23 1 18 0;
#X connect 24 0 18 1;
#X coords 0 0 1 1 140 254 2 447 106;
