#N canvas 827 239 734 565 12;
#X obj -125 250 scope~ 200 100 256 3 128 0 1 0 0 0 0 77 77 77 228 228 228 183 183 183 0 empty;
#X obj 223 846 snapshot~;
#X obj 123 771 bng 25 250 50 0 empty empty empty 17 7 0 10 #e4e4e4 #4d4d4d #373737;
#X msg 155 784 stop;
#X floatatom 223 890 5 0 0 0 - - - 12;
#X obj 223 634 +~ 1;
#X obj 223 680 /~ 2;
#X text 72 626 Normalise to between 0 and 1, f 17;
#X obj 516 854 scope~ 200 100 256 3 128 0 0.05 0 0 0 0 77 77 77 228 228 228 183 183 183 0 empty;
#X obj 223 735 *~;
#X obj 730 291 osc~;
#X floatatom 730 50 5 0 0 0 - - - 12;
#X obj 787 83 *~;
#X obj 730 143 +~;
#X obj 787 200 *~;
#X obj 730 258 +~;
#X obj 798 50 r~ osc-1;
#X obj 798 168 r~ osc-2;
#X obj 730 328 s~ osc-3;
#X obj 556 652 line~;
#X obj 556 610 t f b;
#X floatatom 329 641 14 0 0 0 - - - 12;
#X obj 223 788 +~;
#X msg 631 568 20000;
#X msg 488 581 0;
#X msg 556 568 0.05;
#X obj 787 116 *~;
#X obj 869 50 knob 50 0 1 0 1 empty empty #E4E4E4 #B7B7B7 #4D4D4D 1 0 0 0 1 270 0 0 0 empty empty 0 12 6 -15 0 1 0 0;
#X obj 787 234 *~;
#X obj 153 291 osc~;
#X floatatom 153 50 5 0 0 0 - - - 12;
#X obj 210 83 *~;
#X obj 153 143 +~;
#X obj 210 200 *~;
#X obj 153 258 +~;
#X obj 210 125 *~;
#X obj 292 50 knob 50 0 1 0 1 empty empty #E4E4E4 #B7B7B7 #4D4D4D 1 0 0 0 1 270 0 0 0 empty empty 0 12 6 -15 0 1 0 0;
#X obj 210 234 *~;
#X obj 446 299 osc~;
#X floatatom 446 50 5 0 0 0 - - - 12;
#X obj 503 83 *~;
#X obj 446 143 +~;
#X obj 503 200 *~;
#X obj 446 258 +~;
#X obj 514 50 r~ osc-1;
#X obj 503 116 *~;
#X obj 585 50 knob 50 0 1 0 1 empty empty #E4E4E4 #B7B7B7 #4D4D4D 1 0 0 0 1 270 0 0 0 empty empty 0 12 6 -15 0 1 0 0;
#X obj 503 234 *~;
#X obj 221 50 r~ osc-2;
#X obj 221 168 r~ osc-3;
#X obj 153 328 s~ osc-1;
#X obj 514 168 r~ osc-3;
#X obj 446 344 s~ osc-2;
#X obj 292 -111 knob 50 0 1 0 1 empty empty #E4E4E4 #B7B7B7 #4D4D4D 1 0 0 0 1 270 0 0 0 empty empty 0 12 6 -15 0 1 0 0;
#X obj -188 1261 s ctl-mag;
#X obj 121 1261 s ctl-phase;
#X obj 545 1112 s ctl-gain;
#X obj -188 1004 knob 50 0 1 3 0 empty empty #E4E4E4 #B7B7B7 #4D4D4D 1 0 0 0 1 360 0 0 0 empty empty 0 12 6 -15 0 1 0 0;
#X msg 123 1115 1;
#X obj 121 1141 -, f 7;
#X floatatom -188 1232 10 0 0 0 - - - 16;
#X obj -188 1106 *;
#X floatatom -68 1096 5 0 1 0 - - - 12;
#X obj -68 1192 t b f;
#X msg 22 1059 0.24;
#X text 26 1035 1024;
#X msg 73 1059 1;
#X floatatom 121 952 5 0 0 0 - - - 12;
#X msg -20 1059 0.18;
#X msg -68 1059 0.1;
#X text -20 1035 8192;
#X text -118 1035 32768;
#X obj -88 890 knob 50 2 16 0 2 empty empty #E4E4E4 #B7B7B7 #4D4D4D 1 0 15 1 1 270 0 0 2 empty empty 0 12 6 -15 0 1 1 0;
#X floatatom -88 947 5 0 0 0 - - - 12;
#X obj -88 974 s ctl-block-size;
#X msg -118 1059 0.075;
#X floatatom -68 1155 5 0 0 0 - - - 12;
#X obj -4 -80 loadbang;
#X msg 153 21 0.098;
#X msg 446 21 0.958;
#X msg 730 21 3.486;
#X obj -88 812 loadbang;
#X msg -88 854 13;
#X obj 121 1192 selector, f 23;
#X obj 121 985 t b f f;
#X obj 267 1141 hradio 20 1 0 2 empty empty empty 0 -8 0 10 #e4e4e4 #4d4d4d #373737 0;
#X floatatom 121 1228 5 0 0 0 - - - 12;
#X floatatom -188 1068 5 0 0 0 - - - 12;
#X floatatom -188 1150 9 0 0 0 - - - 16;
#X obj 121 921 pow 0.33;
#X msg 339 880 1;
#X obj -188 1198 pow 1.5;
#X obj 329 581 knob 50 -1 1 0 0 empty empty #E4E4E4 #B7B7B7 #4D4D4D 1 0 0 0 1 270 0 0 0 empty empty 0 12 6 -15 0 1 0 0;
#X obj 4 1206 *;
#X obj 52 1206 t b f;
#X obj 223 599 *~;
#X obj 329 487 r~ osc-2;
#X obj 329 514 snapshot~;
#X obj 123 821 metro 50;
#X msg 88 21 0.002;
#X msg 374 21 0.029;
#X msg 673 21 0.019;
#X connect 1 0 4 0;
#X connect 2 0 98 0;
#X connect 3 0 98 0;
#X connect 4 0 57 0;
#X connect 5 0 6 0;
#X connect 6 0 0 0;
#X connect 6 0 9 0;
#X connect 9 0 22 0;
#X connect 10 0 18 0;
#X connect 11 0 13 0;
#X connect 11 0 14 0;
#X connect 11 0 12 0;
#X connect 12 0 26 0;
#X connect 13 0 15 0;
#X connect 14 0 28 0;
#X connect 15 0 10 0;
#X connect 16 0 12 1;
#X connect 17 0 14 1;
#X connect 19 0 8 0;
#X connect 19 0 22 1;
#X connect 20 0 19 0;
#X connect 20 1 23 0;
#X connect 21 0 95 1;
#X connect 22 0 1 0;
#X connect 23 0 19 1;
#X connect 24 0 19 0;
#X connect 25 0 20 0;
#X connect 26 0 13 1;
#X connect 27 0 26 1;
#X connect 27 0 28 1 32.................AB...n6+++ef....59+++aH....;
#X connect 28 0 15 1;
#X connect 29 0 50 0;
#X connect 29 0 95 0;
#X connect 30 0 31 0;
#X connect 30 0 33 0;
#X connect 30 0 32 0;
#X connect 31 0 35 0;
#X connect 32 0 34 0;
#X connect 33 0 37 0;
#X connect 34 0 29 0;
#X connect 35 0 32 1;
#X connect 36 0 37 1 32.................8A...n6+++ee....59+++aH....;
#X connect 36 0 35 1;
#X connect 37 0 34 1;
#X connect 38 0 52 0;
#X connect 39 0 40 0;
#X connect 39 0 42 0;
#X connect 39 0 41 0;
#X connect 40 0 45 0;
#X connect 41 0 43 0;
#X connect 42 0 47 0;
#X connect 43 0 38 0;
#X connect 44 0 40 1;
#X connect 45 0 41 1;
#X connect 46 0 45 1;
#X connect 46 0 47 1 32..................B...n6+++Of....59+++aH....;
#X connect 47 0 43 1;
#X connect 48 0 31 1;
#X connect 49 0 33 1;
#X connect 51 0 42 1;
#X connect 53 0 36 0;
#X connect 53 0 46 0;
#X connect 53 0 27 0;
#X connect 57 0 87 0;
#X connect 58 0 59 0;
#X connect 59 0 83 0;
#X connect 60 0 54 0;
#X connect 61 0 88 0;
#X connect 62 0 76 0;
#X connect 63 0 61 0;
#X connect 63 1 61 1;
#X connect 64 0 62 0;
#X connect 66 0 62 0;
#X connect 67 0 84 0;
#X connect 68 0 62 0;
#X connect 69 0 62 0;
#X connect 72 0 73 0;
#X connect 73 0 74 0;
#X connect 75 0 62 0;
#X connect 76 0 63 0;
#X connect 77 0 78 0;
#X connect 77 0 79 0;
#X connect 77 0 80 0;
#X connect 78 0 30 0;
#X connect 79 0 39 0;
#X connect 80 0 11 0;
#X connect 81 0 82 0;
#X connect 82 0 72 0;
#X connect 83 0 86 0;
#X connect 84 0 58 0;
#X connect 84 1 59 1;
#X connect 84 2 83 1;
#X connect 85 0 83 2;
#X connect 86 0 55 0;
#X connect 87 0 61 0;
#X connect 88 0 89 0;
#X connect 88 0 91 0;
#X connect 89 0 67 0;
#X connect 90 0 4 0;
#X connect 91 0 60 0;
#X connect 92 0 21 0;
#X connect 94 0 93 0;
#X connect 94 1 93 1;
#X connect 95 0 5 0;
#X connect 96 0 97 0;
#X connect 97 0 92 0;
#X connect 98 0 1 0;
#X connect 98 0 97 0;
#X connect 99 0 30 0;
#X connect 100 0 39 0;
#X connect 101 0 11 0;
