#N canvas 827 239 734 565 12;
#X obj -125 250 scope~ 200 100 256 3 128 0 1 0 0 0 0 77 77 77 228 228 228 183 183 183 0 empty;
#X obj 223 846 snapshot~;
#X floatatom 223 890 5 0 0 0 - - - 12;
#X obj 223 754 +~ 1;
#X obj 223 800 /~ 2;
#X text 72 746 Normalise to between 0 and 1, f 17;
#X obj 730 291 osc~;
#X floatatom 730 50 5 0 0 0 - - - 12;
#X obj 787 83 *~;
#X obj 730 143 +~;
#X obj 787 200 *~;
#X obj 730 258 +~;
#X obj 798 50 r~ osc-1;
#X obj 798 168 r~ osc-2;
#X obj 730 328 s~ osc-3;
#X obj 787 116 *~;
#X obj 869 50 knob 50 0 1 0 1 empty empty #E4E4E4 #B7B7B7 #4D4D4D 1 0 0 0 1 270 0 0 0 empty empty 0 12 6 -15 0 1 0 0;
#X obj 787 234 *~;
#X obj 153 291 osc~;
#X floatatom 153 50 5 0 0 0 - - - 12;
#X obj 210 83 *~;
#X obj 153 143 +~;
#X obj 210 200 *~;
#X obj 153 258 +~;
#X obj 210 125 *~;
#X obj 292 50 knob 50 0 1 0 1 empty empty #E4E4E4 #B7B7B7 #4D4D4D 1 0 0 0 1 270 0 0 0 empty empty 0 12 6 -15 0 1 0 0;
#X obj 210 234 *~;
#X obj 446 299 osc~;
#X floatatom 446 50 5 0 0 0 - - - 12;
#X obj 503 83 *~;
#X obj 446 143 +~;
#X obj 503 200 *~;
#X obj 446 258 +~;
#X obj 514 50 r~ osc-1;
#X obj 503 116 *~;
#X obj 585 50 knob 50 0 1 0 1 empty empty #E4E4E4 #B7B7B7 #4D4D4D 1 0 0 0 1 270 0 0 0 empty empty 0 12 6 -15 0 1 0 0;
#X obj 503 234 *~;
#X obj 221 50 r~ osc-2;
#X obj 221 168 r~ osc-3;
#X obj 153 328 s~ osc-1;
#X obj 514 168 r~ osc-3;
#X obj 446 334 s~ osc-2;
#X obj 292 -111 knob 50 0 1 0 1 empty empty #E4E4E4 #B7B7B7 #4D4D4D 1 0 0 0 1 270 0 0 0 empty empty 0 12 6 -15 0 1 0 0;
#X obj 223 1312 s ctl-mag;
#X obj 532 1312 s ctl-phase;
#X obj 223 1055 knob 50 0 1 3 0 empty empty #E4E4E4 #B7B7B7 #4D4D4D 1 0 0 0 1 360 0 0 0 empty empty 0 12 6 -15 0 1 0 0;
#X msg 534 1166 1;
#X obj 532 1192 -, f 7;
#X floatatom 223 1283 10 0 0 0 - - - 16;
#X obj 223 1157 *;
#X obj -69 1270 t b f;
#X floatatom 532 1098 5 0 0 0 - - - 12;
#X obj -119 1039 knob 50 2 18 0 2 empty empty #E4E4E4 #B7B7B7 #4D4D4D 1 0 17 1 1 270 0 0 2 empty empty 0 12 6 -15 0 1 1 0;
#X floatatom -119 1105 5 0 0 0 - - - 12;
#X obj -119 1312 s ctl-block-size;
#X obj -4 -80 loadbang;
#X msg 153 21 0.098;
#X msg 446 21 0.958;
#X msg 730 21 3.486;
#X obj -119 970 loadbang;
#X msg -119 1012 13;
#X obj 532 1243 selector, f 23;
#X obj 532 1131 t b f f;
#X obj 678 1192 hradio 20 1 0 2 empty empty empty 0 -8 0 10 #e4e4e4 #4d4d4d #373737 0;
#X floatatom 532 1279 5 0 0 0 - - - 12;
#X floatatom 223 1119 5 0 0 0 - - - 12;
#X floatatom 223 1201 9 0 0 0 - - - 16;
#X obj 532 1067 pow 0.33;
#X msg 339 880 1;
#X obj 223 1249 pow 1.5;
#X obj 415 1257 *;
#X obj 463 1257 t b f;
#X obj 223 719 *~;
#X msg 88 21 0.002;
#X msg 394 21 0.029;
#X msg 673 21 0.019;
#X floatatom 223 395 14 0 0 0 - - - 12;
#X obj 223 334 knob 50 -1 1 0 0 empty empty #E4E4E4 #B7B7B7 #4D4D4D 1 0 0 0 1 270 0 0 0 empty empty 0 12 6 -15 0 1 0 0;
#X obj 223 305 snapshot~;
#X obj 223 272 r metro-\$0;
#X obj -90 -14 bng 25 250 50 0 empty empty empty 17 7 0 10 #e4e4e4 #4d4d4d #373737;
#X msg -58 -14 stop;
#X obj -90 23 metro 100;
#X obj -90 50 s metro-\$0;
#X floatatom 522 395 14 0 0 0 - - - 12;
#X obj 522 334 knob 50 -1 1 0 0 empty empty #E4E4E4 #B7B7B7 #4D4D4D 1 0 0 0 1 270 0 0 0 empty empty 0 12 6 -15 0 1 0 0;
#X obj 522 305 snapshot~;
#X obj 522 272 r metro-\$0;
#X floatatom 821 414 14 0 0 0 - - - 12;
#X obj 821 353 knob 50 -1 1 0 0 empty empty #E4E4E4 #B7B7B7 #4D4D4D 1 0 0 0 1 270 0 0 0 empty empty 0 12 6 -15 0 1 0 0;
#X obj 821 324 snapshot~;
#X obj 821 291 r metro-\$0;
#X obj 123 800 r metro-\$0;
#X obj -201 1102 pow;
#X msg -200 1073 2;
#X obj -201 1039 t b f;
#X floatatom -201 1132 6 0 0 0 - - - 16;
#N canvas 0 0 450 250 (subpatch) 0;
#X array block-size-mult-\$0 18 float 3;
#A 0 0 0.514286 0.378571 0.328571 0.3 0.271429 0.25 0.221429 0.192857 0.164286 0.137647 0.112941 0.0917647 0.078 0.055 0.05 0.035 0.03;
#X coords 0 0.6 18 0 200 170 1;
#X restore -493 900 graph;
#X obj -69 1207 tabread block-size-mult-\$0;
#X floatatom -69 1236 9 0 0 0 - - - 16;
#X obj -69 1177 - 1;
#X msg 36 21 0.091;
#X msg 349 21 0.122;
#X obj 901 669 *~;
#X obj 912 597 knob 50 0 1 0 0 empty empty #E4E4E4 #B7B7B7 #4D4D4D 1 0 0 0 1 270 0 0 0 empty empty 0 12 6 -15 0 1 0 0;
#X obj 958 669 sig~ 1;
#X floatatom 392 844 14 0 0 0 - - - 12;
#X obj 392 783 knob 50 -1 1 0 0 empty empty #E4E4E4 #B7B7B7 #4D4D4D 1 0 0 0 1 270 0 0 0 empty empty 0 12 6 -15 0 1 0 0;
#X obj 392 754 snapshot~;
#X obj 392 721 r metro-\$0;
#X connect 1 0 2 0;
#X connect 2 0 45 0;
#X connect 3 0 4 0;
#X connect 4 0 0 0;
#X connect 4 0 1 0;
#X connect 6 0 14 0;
#X connect 6 0 90 0;
#X connect 6 0 72 1;
#X connect 7 0 9 0;
#X connect 7 0 10 0;
#X connect 7 0 8 0;
#X connect 8 0 15 0;
#X connect 9 0 11 0;
#X connect 10 0 17 0;
#X connect 11 0 6 0;
#X connect 12 0 8 1;
#X connect 13 0 10 1;
#X connect 15 0 9 1;
#X connect 16 0 15 1;
#X connect 16 0 17 1 32.................AB...n6+++ef....59+++aH....;
#X connect 17 0 11 1;
#X connect 18 0 39 0;
#X connect 18 0 78 0;
#X connect 18 0 72 0;
#X connect 19 0 20 0;
#X connect 19 0 22 0;
#X connect 19 0 21 0;
#X connect 20 0 24 0;
#X connect 21 0 23 0;
#X connect 22 0 26 0;
#X connect 23 0 18 0;
#X connect 24 0 21 1;
#X connect 25 0 26 1 32.................8A...n6+++ee....59+++aH....;
#X connect 25 0 24 1;
#X connect 26 0 23 1;
#X connect 27 0 86 0;
#X connect 27 0 41 0;
#X connect 28 0 29 0;
#X connect 28 0 31 0;
#X connect 28 0 30 0;
#X connect 29 0 34 0;
#X connect 30 0 32 0;
#X connect 31 0 36 0;
#X connect 32 0 27 0;
#X connect 33 0 29 1;
#X connect 34 0 30 1;
#X connect 35 0 34 1;
#X connect 35 0 36 1 32..................B...n6+++Of....59+++aH....;
#X connect 36 0 32 1;
#X connect 37 0 20 1;
#X connect 38 0 22 1;
#X connect 40 0 31 1;
#X connect 42 0 25 0;
#X connect 42 0 35 0;
#X connect 42 0 16 0;
#X connect 45 0 65 0;
#X connect 46 0 47 0;
#X connect 47 0 61 0;
#X connect 48 0 43 0;
#X connect 49 0 66 0;
#X connect 50 0 49 0;
#X connect 50 1 49 1;
#X connect 51 0 62 0;
#X connect 52 0 53 0;
#X connect 53 0 95 0;
#X connect 53 0 54 0;
#X connect 53 0 100 0;
#X connect 55 0 80 0;
#X connect 55 0 101 0;
#X connect 55 0 102 0;
#X connect 55 0 75 0;
#X connect 56 0 19 0;
#X connect 57 0 28 0;
#X connect 58 0 7 0;
#X connect 59 0 60 0;
#X connect 60 0 52 0;
#X connect 61 0 64 0;
#X connect 62 0 46 0;
#X connect 62 1 47 1;
#X connect 62 2 61 1;
#X connect 63 0 61 2;
#X connect 64 0 44 0;
#X connect 65 0 49 0;
#X connect 66 0 69 0;
#X connect 66 0 67 0;
#X connect 67 0 51 0;
#X connect 68 0 2 0;
#X connect 69 0 48 0;
#X connect 71 0 70 0;
#X connect 71 1 70 1;
#X connect 72 0 3 0;
#X connect 72 0 108 0;
#X connect 73 0 19 0;
#X connect 74 0 28 0;
#X connect 75 0 7 0;
#X connect 77 0 76 0;
#X connect 78 0 77 0;
#X connect 79 0 78 0;
#X connect 80 0 82 0;
#X connect 81 0 82 0;
#X connect 82 0 83 0;
#X connect 85 0 84 0;
#X connect 86 0 85 0;
#X connect 87 0 86 0;
#X connect 89 0 88 0;
#X connect 90 0 89 0;
#X connect 91 0 90 0;
#X connect 92 0 1 0;
#X connect 93 0 96 0;
#X connect 94 0 93 0;
#X connect 95 0 94 0;
#X connect 95 1 93 1;
#X connect 98 0 99 0;
#X connect 99 0 50 0;
#X connect 100 0 98 0;
#X connect 101 0 19 0;
#X connect 102 0 28 0;
#X connect 104 0 103 1;
#X connect 107 0 106 0;
#X connect 108 0 107 0;
#X connect 109 0 108 0;
