#N canvas 827 239 527 327 12;
#X obj 41 170 osc~;
#X obj 50 32 hsl 128 17 10 5000 1 0 empty empty empty -2 -8 0 10 #e4e4e4 #4d4d4d #373737 0 1;
#X obj 41 426 out~;
#X floatatom 41 120 5 0 0 0 - - - 12;
#X obj 114 574 pmpd-test;
#X obj 493 816 pmpd;
#X msg 541 756 reset;
#X msg 493 756 print;
#X text 865 689 \$1 : Id (symbol);
#X text 865 689 \$1 : Id (symbol);
#X text 865 742 \$4 : rigidity;
#X text 865 707 \$2 : creation No/Id of mass1;
#X text 865 725 \$3 : creation No/Id of mass2;
#X text 865 760 \$5 : damping;
#X text 861 797 [\$7] : minimum length of link;
#X text 862 814 [\$8] : maximum length of link;
#X text 862 778 [\$6] : Power of the rigidity distance;
#X msg 617 756 massPosL;
#X obj 559 604 bng 25 250 50 0 empty empty empty 17 7 0 10 #e4e4e4 #4d4d4d #373737;
#X msg 493 636 stop;
#X text 853 894 Add a mass;
#X text 881 917 \$1 : Id (symbol);
#X text 880 937 \$2 : fixed or mobile (0/1);
#X text 880 955 \$3 : mass;
#X text 880 973 \$4 : initial position;
#X obj 559 636 metro 20;
#N canvas 0 0 450 250 (subpatch) 0;
#X array masses 15 float 4;
#X coords 0 2 14 -2 200 140 1;
#X restore 29 836 graph;
#X msg 713 756 massPosT masses;
#X msg 559 666 bang \, massPosT masses;
#X msg 838 1216 setPos 128 \$1;
#X msg 713 1208 setPos 1 \$1;
#X obj 243 854 vsl 16 134 -1 1 0 0 empty empty empty 0 -9 0 10 #e4e4e4 #4d4d4d #373737 0 0;
#X obj 376 1122 pack;
#X floatatom 29 1023 5 0 0 0 - - - 12;
#X floatatom 238 997 5 0 0 0 - - - 12;
#X msg 376 1173 setPos \$2 \$1;
#X obj 32 997 hsl 194 18 0 14 0 0 empty empty empty -2 -8 0 10 #e4e4e4 #4d4d4d #373737 0 0;
#X obj 57 363 tabreader~ masses;
#X msg 101 281 cos;
#X msg 143 281 spline;
#X msg 335 281 cubic;
#X msg 215 281 lagrange;
#X msg 67 281 lin;
#X msg 18 281 none;
#X obj 365 495 bs-init-pm 15 1;
#X obj 356 593 bs-init-pm 15 1;
#X obj 579 485 bs-init-pm 15 1;
#X connect 0 0 37 0;
#X connect 1 0 3 0;
#X connect 3 0 0 0;
#X connect 6 0 5 0;
#X connect 7 0 5 0;
#X connect 17 0 5 0;
#X connect 18 0 25 0;
#X connect 19 0 25 0;
#X connect 25 0 28 0;
#X connect 27 0 5 0;
#X connect 28 0 5 0;
#X connect 31 0 34 0;
#X connect 32 0 35 0;
#X connect 33 0 32 1;
#X connect 34 0 32 0;
#X connect 35 0 5 0;
#X connect 36 0 33 0;
#X connect 37 0 2 0;
#X connect 37 0 2 1;
#X connect 38 0 37 0;
#X connect 39 0 37 0;
#X connect 40 0 37 0;
#X connect 41 0 37 0;
#X connect 42 0 37 0;
#X connect 43 0 37 0;
#X connect 44 0 5 0;
#X connect 45 0 5 0;
#X connect 46 0 5 0;
