#N canvas 827 239 527 327 12;
#X obj 158 507 cnv 15 213 75 empty empty empty 20 12 0 14 #ff648d #373737 0;
#X obj -1 199 cnv 15 306 282 empty empty empty 20 12 0 14 #43b756 #373737 0;
#X obj 450 16 inlet;
#X obj 578 16 inlet;
#X floatatom 450 41 5 0 0 0 - - - 12;
#X obj 450 84 int;
#X floatatom 578 41 5 0 0 0 - - - 12;
#X obj 578 84 int;
#X obj 450 110 t b f;
#X obj 578 110 t b f;
#X obj 164 302 until;
#X obj 164 209 array size \$1;
#X floatatom 164 235 5 0 0 0 - - - 12;
#X obj 164 331 bng 25 250 50 0 empty empty empty 17 7 0 10 #e4e4e4 #4d4d4d #373737;
#X floatatom 164 376 5 0 0 0 - - - 12;
#X obj 164 401 + 1;
#X msg 225 376 set \$1;
#X msg 202 331 set -1;
#X obj 164 264 t f b;
#X obj 166 522 expr ($i1 >= $i2) && ($i1 <= $i3);
#X obj 267 10 bng 25 250 50 0 empty empty empty 17 7 0 10 #e4e4e4 #4d4d4d #373737;
#X obj 215 53 metro 100;
#X msg 215 10 stop;
#X obj 166 614 tabwrite \$1, f 32;
#X obj 164 432 t f f;
#X text 416 15 Start;
#X text 533 14 Finish;
#X obj 164 162 selector, f 18;
#X text 19 233 Iterate from 0 to array size -1, f 19;
#X text 185 548 Output 1 if index is between Start and Finish \, otherwise 0, f 26;
#X obj 268 84 tgl 25 0 empty empty empty 17 7 0 10 #e4e4e4 #4d4d4d #373737 0 1;
#X obj 710 16 inlet;
#X obj 710 41 t f f;
#X text 757 14 0 to update every time the Start of Finish inlets change;
#X obj 629 16 loadmess 1;
#X text 757 39 1 to update on a 100 ms metro (default);
#X connect 2 0 4 0;
#X connect 3 0 6 0;
#X connect 4 0 5 0;
#X connect 5 0 8 0;
#X connect 6 0 7 0;
#X connect 7 0 9 0;
#X connect 8 0 27 0;
#X connect 8 1 19 1;
#X connect 9 0 27 0;
#X connect 9 1 19 2;
#X connect 10 0 13 0;
#X connect 11 0 12 0;
#X connect 12 0 18 0;
#X connect 13 0 14 0;
#X connect 14 0 15 0;
#X connect 15 0 16 0;
#X connect 15 0 24 0;
#X connect 16 0 14 0;
#X connect 17 0 14 0;
#X connect 18 0 10 0;
#X connect 18 1 17 0;
#X connect 19 0 23 0;
#X connect 20 0 21 0;
#X connect 21 0 27 1;
#X connect 22 0 21 0;
#X connect 24 0 19 0;
#X connect 24 1 23 1 32.................n....PL....J....DC...LJ....;
#X connect 27 0 11 0;
#X connect 30 0 27 2;
#X connect 31 0 32 0;
#X connect 32 0 30 0;
#X connect 32 1 21 0;
#X connect 34 0 32 0;
#X coords 0 0 1 1 176 139 0;
