#N canvas 827 239 527 327 12;
#X text 284 18 Get current array size to set max value for counter in case array size has changed, f 25;
#X obj 751 32 inlet;
#X obj 852 32 inlet;
#X floatatom 751 58 5 0 0 0 - - - 12;
#X obj 751 83 int;
#X floatatom 852 58 5 0 0 0 - - - 12;
#X obj 852 83 int;
#X obj 751 109 t b f;
#X obj 852 109 t b f;
#X obj 565 155 until;
#X obj 565 62 array size \$1;
#X floatatom 565 88 5 0 0 0 - - - 12;
#X obj 565 18 bng 25 250 50 0 empty empty empty 17 7 0 10 #e4e4e4 #4d4d4d #373737;
#X obj 565 184 bng 25 250 50 0 empty empty empty 17 7 0 10 #e4e4e4 #4d4d4d #373737;
#X floatatom 565 229 5 0 0 0 - - - 12;
#X obj 565 254 + 1;
#X msg 626 229 set \$1;
#X msg 603 184 set -1;
#X obj 565 117 t f b;
#X obj 705 131 bng 25 250 50 0 empty empty empty 17 7 0 10 #e4e4e4 #4d4d4d #373737;
#X obj 739 184 expr ($i1 >= $i2) && ($i1 <= $i3);
#X obj 746 -55 bng 25 250 50 0 empty empty empty 17 7 0 10 #e4e4e4 #4d4d4d #373737;
#X obj 637 -1 metro 100;
#X msg 630 -62 stop;
#X obj 525 374 tabwrite \$1;
#X obj 565 285 t f f;
#X connect 1 0 3 0;
#X connect 2 0 5 0;
#X connect 3 0 4 0;
#X connect 4 0 7 0;
#X connect 5 0 6 0;
#X connect 6 0 8 0;
#X connect 7 0 10 0;
#X connect 7 1 20 1;
#X connect 8 0 10 0;
#X connect 8 1 20 2;
#X connect 9 0 13 0;
#X connect 10 0 11 0;
#X connect 11 0 18 0;
#X connect 13 0 14 0;
#X connect 14 0 15 0;
#X connect 15 0 16 0;
#X connect 15 0 25 0;
#X connect 16 0 14 0;
#X connect 17 0 14 0;
#X connect 18 0 9 0;
#X connect 18 1 17 0;
#X connect 19 0 20 0;
#X connect 20 0 24 0;
#X connect 21 0 22 0;
#X connect 22 0 12 0;
#X connect 23 0 22 0;
#X connect 25 0 20 0;
#X connect 25 1 24 1;
#X coords 0 0 1 1 176 139 0;
