#N canvas 827 239 527 327 12;
#X obj 192 255 power-of-two;
#X obj 309 256 power-of-two;
#X msg 192 193 10;
#X msg 309 193 2;
#X obj 200 498 t b f;
#X obj 943 192 samplerate~;
#X obj 922 229 /;
#X obj 922 158 t f b;
#X floatatom 922 255 5 0 0 0 - - - 12;
#X obj 149 540 pack f f f, f 20;
#X obj 922 301 /;
#X floatatom 922 327 5 0 0 0 - - - 12;
#X obj 922 353 expr 1/$f1;
#X floatatom 922 379 6 0 0 0 - - - 12;
#X text 768 375 Overlap frequency (Hz):;
#X text 768 251 Window Size (seconds):;
#X obj 922 124 unpack f f, f 29;
#X obj 254 498 t b f;
#X obj 1091 181 /;
#X floatatom 1091 207 5 0 0 0 - - - 12;
#X floatatom 253 353 5 0 0 0 - - - 12;
#X floatatom 413 353 6 0 0 0 - - - 12;
#X floatatom 580 353 5 0 0 0 - - - 12;
#X obj 427 255 power-of-two;
#X msg 427 193 0, f 6;
#X obj 179 120 loadbang;
#X text 427 229 Sampling ratio, f 13;
#X text 194 229 Block size;
#X text 313 229 Overlap ratio;
#X obj 1224 242 /;
#X obj 1242 213 samplerate~;
#X obj 1224 181 t f b;
#X floatatom 516 353 5 0 0 0 - - - 12;
#X obj 149 611 outlet;
#X obj 200 611 s \$0-block-params;
#X obj 922 86 r \$0-block-params;
#X text 321 351 block interval:;
#X text 616 351 (Hz);
#X text 457 351 (samps);
#X text 554 351 (s);
#X text 297 351 (s);
#X text 176 351 block size:;
#X text 149 -3 If [block~] has a size of 512 and overlap 4 \, the window using these paramaters window will compute blocks of 512 samples at intervals of 128 samples computed on the parent patch.;
#X text 149 54 The inlet~ in that window re-uses 3/4 of the previous block \, along with the 128 new samples., f 49;
#X obj 987 295 s \$0-size-in-s;
#X obj 1091 274 s \$0-block-interval;
#X obj 1224 274 s \$0-block-interval-in-s;
#X obj 922 411 s \$0-overlaps-per-sec;
#X obj 25 352 r \$0-size-in-s;
#X obj 25 372 r \$0-block-interval;
#X obj 25 398 r \$0-block-interval-in-s;
#X obj 25 424 r \$0-overlaps-per-sec;
#X obj 179 150 t b b b b;
#X msg 235 193 2 20;
#X text 540 251 Windowing, f 11;
#X obj 616 295 tgl 25 0 empty empty empty 17 7 0 10 #e4e4e4 #4d4d4d #373737 0 1;
#X obj 660 255 loadbang;
#X obj 616 255 tgl 25 0 empty empty empty 17 7 0 10 #e4e4e4 #4d4d4d #373737 0 1;
#X text 548 291 Normalise;
#X obj 360 611 outlet;
#X obj 427 611 outlet;
#X floatatom 360 577 5 0 0 0 - - - 12;
#X floatatom 427 577 5 0 0 0 - - - 12;
#X obj 149 568 t a a b;
#X obj 46 120 r ctl-block-size;
#X connect 0 0 9 0 32.................E....L9+++eA....i++++aL....;
#X connect 1 0 4 0;
#X connect 2 0 0 0;
#X connect 3 0 1 0;
#X connect 4 0 9 0;
#X connect 4 1 9 1;
#X connect 5 0 6 1;
#X connect 6 0 8 0;
#X connect 7 0 6 0;
#X connect 7 1 5 0;
#X connect 8 0 10 0;
#X connect 8 0 44 0;
#X connect 9 0 63 0;
#X connect 10 0 11 0;
#X connect 11 0 12 0;
#X connect 12 0 13 0;
#X connect 13 0 47 0;
#X connect 16 0 7 0;
#X connect 16 0 18 0;
#X connect 16 1 18 1;
#X connect 16 1 10 1;
#X connect 17 0 9 0;
#X connect 17 1 9 2;
#X connect 18 0 19 0;
#X connect 19 0 31 0;
#X connect 19 0 45 0;
#X connect 23 0 17 0;
#X connect 24 0 23 0;
#X connect 25 0 52 0;
#X connect 29 0 46 0;
#X connect 30 0 29 1;
#X connect 31 0 29 0;
#X connect 31 1 30 0;
#X connect 35 0 16 0;
#X connect 48 0 20 0;
#X connect 49 0 21 0;
#X connect 50 0 32 0;
#X connect 51 0 22 0;
#X connect 52 0 24 0;
#X connect 52 1 3 0;
#X connect 52 2 2 0;
#X connect 52 3 53 0;
#X connect 53 0 0 1;
#X connect 55 0 62 0;
#X connect 56 0 55 0;
#X connect 56 0 57 0;
#X connect 57 0 61 0;
#X connect 61 0 59 0;
#X connect 62 0 60 0;
#X connect 63 0 33 0;
#X connect 63 1 34 0;
#X connect 63 2 62 0;
#X connect 63 2 61 0;
#X connect 64 0 0 0;
#X coords 0 0 1 1 477 151 2 175 227;
