#N canvas 0 50 450 300 compressor 1;
#X msg 318 280 thresh \$1;
#X floatatom 318 253 5 0 0 0 - - - 12;
#X obj 342 185 knob 50 -100 -0.001 0.25 -10 empty empty #E4E4E4 #B7B7B7 #4D4D4D 1 0 0 0 1 270 0 0 -0.001 empty empty 0 12 6 -15 0 1 0 0;
#X obj 104 142 compress~;
#X obj 74 48 inlet~;
#X obj 74 314 outlet~;
#X floatatom 407 253 5 0 0 0 - - - 12;
#X obj 407 185 knob 50 1 100 0.25 1 empty empty #E4E4E4 #B7B7B7 #4D4D4D 1 0 0 0 1 270 0 0 1 empty empty 0 12 6 -15 0 1 0 0;
#X msg 407 280 ratio \$1;
#X obj 307 166 vsl 18 66 -100 0 0 0 empty empty empty 0 -9 0 10 #dcdcdc #000000 #000000 0 1;
#X floatatom 472 253 5 0 0 0 - - - 12;
#X obj 472 185 knob 50 1e-06 100 0.5 1 empty empty #E4E4E4 #B7B7B7 #4D4D4D 1 0 0 0 1 270 0 0 1 empty empty 0 12 6 -15 0 1 0 0;
#X msg 472 280 attack \$1;
#X floatatom 549 253 5 0 0 0 - - - 12;
#X obj 537 185 knob 50 1e-06 500 1 1 empty empty #E4E4E4 #B7B7B7 #4D4D4D 1 0 0 0 1 270 0 0 1 empty empty 0 12 6 -15 0 1 0 0;
#X msg 549 280 release \$1;
#X obj 516 48 loadbang;
#X msg 472 99 10;
#X msg 407 99 4;
#X msg 342 99 -10;
#X floatatom 637 253 5 0 0 0 - - - 12;
#X obj 603 185 knob 50 0 36 0 1 empty empty #E4E4E4 #B7B7B7 #4D4D4D 1 0 0 0 1 270 0 0 1 empty empty 0 12 6 -15 0 1 0 0;
#X msg 637 280 gain \$1;
#X msg 603 99 0;
#X text 333 164 Threshold;
#X text 413 164 Ratio;
#X text 472 164 Attack;
#X text 537 164 Release;
#X text 611 164 Gain;
#X obj 74 205 select~;
#X obj 660 197 tgl 25 0 empty empty empty 17 7 0 10 #e4e4e4 #4d4d4d #373737 0 1;
#X obj 34 175 + 1;
#X msg 10 99 0;
#X connect 0 0 3 0;
#X connect 1 0 0 0;
#X connect 2 0 1 0;
#X connect 3 0 29 1;
#X connect 3 1 9 0;
#X connect 4 0 3 0;
#X connect 4 0 29 0;
#X connect 6 0 8 0;
#X connect 7 0 6 0;
#X connect 8 0 3 0;
#X connect 10 0 12 0;
#X connect 11 0 10 0;
#X connect 12 0 3 0;
#X connect 13 0 15 0;
#X connect 14 0 13 0;
#X connect 15 0 3 0;
#X connect 16 0 18 0;
#X connect 16 0 19 0;
#X connect 16 0 17 0;
#X connect 16 0 23 0;
#X connect 16 0 32 0;
#X connect 17 0 11 0;
#X connect 17 0 14 0;
#X connect 18 0 7 0;
#X connect 19 0 2 0;
#X connect 20 0 22 0;
#X connect 21 0 20 0;
#X connect 22 0 3 0;
#X connect 23 0 21 0;
#X connect 29 0 5 0;
#X connect 30 0 31 0 48.................G....LB...vA....i....zy++++i8+++87++++X+++uz++++;
#X connect 31 0 29 0;
#X connect 32 0 31 0;
#X coords 0 0 1 1 388 86 1 303 157;
