#N canvas 827 239 527 327 12;
#X obj 85 27 inlet~;
#X obj 251 27 inlet~;
#X obj 85 225 *~;
#X obj 146 225 *~;
#X obj 85 279 -~, f 12;
#X obj 251 225 *~;
#X obj 312 225 *~;
#X obj 251 279 +~, f 13;
#X text 63 73 a;
#X text 161 73 b;
#X text 229 73 c;
#X text 327 73 d;
#X text 104 258 ac - bd;
#X text 270 258 ad + bc;
#X obj 85 74 snake~ out;
#X obj 251 74 snake~ out;
#X obj 85 363 snake~;
#X text 422 179 Complex Multiply;
#X obj 588 229 loadbang;
#X obj 526 302 tgl 25 0 empty empty empty 17 7 0 10 #e4e4e4 #4d4d4d #373737 0 1;
#X obj 516 363 + 1;
#X floatatom 516 388 5 0 0 0 - - - 16;
#X text 463 308 Enabled;
#X obj 46 437 outlet~;
#X obj 46 402 select~;
#X connect 0 0 14 0;
#X connect 0 0 24 0 32.................H....n8+++OB....Z++++SV....;
#X connect 1 0 15 0;
#X connect 2 0 4 0;
#X connect 3 0 4 1;
#X connect 4 0 16 0;
#X connect 5 0 7 0;
#X connect 6 0 7 1;
#X connect 7 0 16 1;
#X connect 14 0 2 0;
#X connect 14 0 5 0;
#X connect 14 1 3 0;
#X connect 14 1 6 0;
#X connect 15 0 2 1;
#X connect 15 0 6 1;
#X connect 15 1 3 1;
#X connect 15 1 5 1;
#X connect 16 0 24 1;
#X connect 18 0 19 0;
#X connect 19 0 20 0;
#X connect 20 0 21 0;
#X connect 21 0 24 0;
#X connect 24 0 23 0;
#X coords 0 0 1 1 172 160 2 389 175;
