#N canvas 827 239 527 327 12;
#X obj 49 51 inlet~;
#X obj 19 377 outlet~;
#X obj 49 141 car2pol~, f 11;
#X obj 49 259 pol2car~, f 11;
#X obj 49 93 snake~ out, f 11;
#X obj 49 299 snake~, f 10;
#X obj 369 66 knob 50 0 1 4 0.001 empty empty #E4E4E4 #B7B7B7 #4D4D4D 1 0 0 0 1 270 0 0 0 empty empty 0 0 0 0 0 0 0 0;
#X obj 49 199 *~;
#X floatatom 369 129 5 0 0 0 - - - 12;
#X obj 203 1 loadbang;
#X obj 19 333 select~;
#X obj 406 164 tgl 25 0 empty empty empty 17 7 0 10 #e4e4e4 #4d4d4d #373737 0 1;
#X obj -65 273 + 1;
#X floatatom -65 298 5 0 0 0 - - - 12;
#X text 351 170 Enabled;
#X text 377 38 Gain;
#X obj 277 1 r ctl-gain;
#X obj 166 171 * 1000;
#X obj 456 151 r gain-enable-r;
#X obj 456 187 s gain-enable-s;
#X obj -170 227 r gain-enable-s;
#X obj -65 227 loadbang;
#X obj 369 1 r gain-amt-r;
#X obj 456 227 s gain-amt-s;
#X connect 0 0 4 0;
#X connect 0 0 10 0 32.................K.....7++++B.....++++2P....;
#X connect 2 0 7 0 32.................U....n4+++eE....Z9+++KE....;
#X connect 2 1 3 1;
#X connect 3 0 5 0;
#X connect 3 1 5 1;
#X connect 4 0 2 0;
#X connect 4 1 2 1;
#X connect 5 0 10 1;
#X connect 6 0 8 0;
#X connect 7 0 3 0;
#X connect 8 0 17 0;
#X connect 8 0 23 0;
#X connect 9 0 6 0;
#X connect 10 0 1 0;
#X connect 11 0 19 0;
#X connect 12 0 13 0;
#X connect 13 0 10 0;
#X connect 16 0 6 0;
#X connect 17 0 7 1;
#X connect 18 0 11 0;
#X connect 20 0 12 0;
#X connect 21 0 12 0;
#X connect 22 0 6 0;
#X coords 0 0 1 1 90 156 2 345 37;
