#N canvas 827 239 527 327 12;
#X obj 266 259 select~;
#X obj 266 226 sig~ 1;
#X obj 228 191 hradio 20 1 0 3 empty empty empty 0 -8 0 10 #e4e4e4 #4d4d4d #373737 0;
#X obj 348 179 r \$0-window-array;
#X msg 348 226 set \$1;
#X obj 348 259 tabreceive~;
#X obj 228 133 r \$0-windowing;
#X obj 194 26 inlet~;
#X obj 336 24 inlet;
#X obj 460 24 inlet;
#X text 284 22 On/Off:;
#X obj 336 55 s \$0-windowing;
#X obj 460 55 s \$0-window-array;
#X obj 194 301 *~;
#X obj 194 346 outlet~;
#X obj 228 164 + 1;
#X connect 0 0 13 1;
#X connect 1 0 0 0;
#X connect 2 0 0 0;
#X connect 3 0 4 0;
#X connect 4 0 5 0;
#X connect 5 0 0 1;
#X connect 6 0 15 0;
#X connect 7 0 13 0;
#X connect 8 0 11 0;
#X connect 9 0 12 0;
#X connect 13 0 14 0;
#X connect 15 0 2 0;
