#N canvas 827 239 527 327 12;
#X obj 776 385 cnv 15 275 301 empty empty empty 20 12 0 14 #5ab74c #373737 0;
#X obj 1077 385 cnv 15 280 144 empty empty empty 20 12 0 14 #00b775 #373737 0;
#X obj 490 120 cnv 15 235 114 empty empty empty 20 12 0 14 #b76c98 #373737 0;
#X obj 388 7 inlet~;
#X obj 106 520 outlet~;
#X obj 388 201 car2pol~, f 11;
#X obj 388 386 pol2car~, f 11;
#X obj 388 153 snake~ out, f 11;
#X obj 388 426 snake~, f 10;
#X obj 106 460 select~, f 43;
#X obj 612 666 tgl 25 0 empty empty empty 17 7 0 10 #e4e4e4 #4d4d4d #373737 0 1;
#X obj 37 392 + 1;
#X floatatom 37 423 5 0 0 0 - - - 16;
#X text 549 667 Enabled;
#X obj 495 7 inlet;
#X obj 612 255 pack f \$0;
#X obj 494 255 t f f;
#X obj 495 410 range-knob;
#X obj 388 271 *~;
#X text 495 384 Frequency Bin Selector;
#X obj 495 125 / 2;
#X obj 724 7 inlet;
#X text 761 2 Knob exponent (power of two);
#N canvas 0 0 450 250 (subpatch) 0;
#X array \$0-band-pass 1023 float 2;
#X coords 0 1.1 1023 -0.1 200 140 1;
#X restore -114 41 graph;
#X obj 185 181 tabreceive~ \$0-band-pass;
#X obj 836 578 write-bandpass \$0-band-pass, f 28;
#X obj 1086 400 samplerate~;
#X obj 1086 350 bng 25 250 50 0 empty empty empty 17 7 0 10 #e4e4e4 #4d4d4d #373737;
#X floatatom 1086 432 5 0 0 0 - - - 12;
#X obj 587 41 s \$0-window-size;
#X obj 1086 466 /;
#X obj 1189 400 r \$0-window-size;
#X floatatom 1086 499 8 0 0 0 - - - 16;
#X obj 1189 432 t b f;
#X obj 1086 543 s \$0-hz-per-bin;
#X obj 821 649 *;
#X obj 832 609 r \$0-hz-per-bin;
#X obj 897 649 *;
#X floatatom 497 641 6 0 0 0 - - - 12;
#X floatatom 593 641 6 0 0 0 - - - 12;
#X obj 537 125 - 1;
#X text 495 151 The last useful bin is at N/2 - 1 The bin at N/2 represents energy at the Nyquist frequency \, but anti-aliasing filters will typically attenuate any signals at and above SR/2., f 32;
#X text 1189 464 Centre frequency of the nth bin is n * SR / N, f 22;
#X obj 37 356 loadbang;
#X obj 494 302 s \$0-highest-bin;
#X obj 807 467 *;
#X obj 883 467 *;
#X obj 883 417 t b f;
#X obj 883 385 r \$0-highest-bin;
#X obj 807 523 t f f f;
#X obj 883 523 t f f f;
#X floatatom 595 596 6 0 0 0 - - - 12;
#X floatatom 499 596 6 0 0 0 - - - 12;
#X text 507 621 Centre frequencies;
#X text 526 570 Bin numbers;
#X obj 807 493 int;
#X obj 883 493 int;
#X obj 545 7 unpack f;
#X floatatom 497 673 5 0 0 0 - - - 12;
#X msg 612 287 \; \$2-band-pass resize \$1, f 25;
#X obj 124 181 sig~ 1;
#X obj 152 216 -~;
#X obj 185 271 select~;
#X obj 24 256 + 1;
#X floatatom 24 287 5 0 0 0 - - - 16;
#X obj 24 220 loadbang;
#X obj 518 533 tgl 25 0 empty empty empty 17 7 0 10 #e4e4e4 #4d4d4d #373737 0 1;
#X obj 703 779 s freq-link-s;
#X obj 388 555 s freq-flip-s;
#X obj 593 779 s freq-exp-s;
#X obj 358 779 s freq-lower-s;
#X obj 467 779 s freq-upper-s;
#X obj 668 705 s freq-enable-s;
#X obj -114 356 r freq-enable-s;
#X obj 668 670 r freq-enable-r;
#X obj 677 342 r freq-link-r;
#X obj 388 520 r freq-flip-r;
#X obj 472 342 r freq-lower-r;
#X obj -93 220 r freq-flip-s;
#X obj 570 342 r freq-upper-r;
#X obj 779 419 r freq-lower-s;
#X obj 935 417 r freq-upper-s;
#X obj 593 748 log 2;
#X obj 973 229 print \$0-highest-bin;
#X connect 3 0 7 0;
#X connect 3 0 9 0 32.................K.....7++++B.....++++2P....;
#X connect 5 0 18 0;
#X connect 5 1 6 1;
#X connect 6 0 8 0;
#X connect 6 1 8 1;
#X connect 7 0 5 0;
#X connect 7 1 5 1;
#X connect 8 0 9 1;
#X connect 9 0 4 0;
#X connect 10 0 72 0;
#X connect 11 0 12 0;
#X connect 12 0 9 0;
#X connect 14 0 57 0;
#X connect 15 0 59 0;
#X connect 16 0 44 0;
#X connect 16 1 15 0;
#X connect 17 0 70 0;
#X connect 17 1 71 0;
#X connect 17 2 82 0;
#X connect 17 3 67 0;
#X connect 18 0 6 0;
#X connect 20 0 40 0;
#X connect 21 0 17 2;
#X connect 24 0 61 1;
#X connect 24 0 62 0;
#X connect 26 0 28 0;
#X connect 27 0 26 0;
#X connect 28 0 30 0;
#X connect 30 0 32 0;
#X connect 31 0 33 0;
#X connect 32 0 34 0;
#X connect 33 0 26 0;
#X connect 33 1 30 1;
#X connect 35 0 38 0;
#X connect 36 0 35 1;
#X connect 36 0 58 0;
#X connect 36 0 37 1;
#X connect 37 0 39 0;
#X connect 40 0 16 0;
#X connect 43 0 11 0;
#X connect 45 0 55 0;
#X connect 46 0 56 0;
#X connect 47 0 45 0;
#X connect 47 0 46 0;
#X connect 47 1 45 1;
#X connect 47 1 46 1;
#X connect 48 0 47 0;
#X connect 48 0 83 0;
#X connect 49 0 52 0;
#X connect 49 1 35 0;
#X connect 49 2 25 0;
#X connect 50 0 51 0;
#X connect 50 1 37 0;
#X connect 50 2 25 1;
#X connect 55 0 49 0;
#X connect 56 0 50 0;
#X connect 57 0 29 0;
#X connect 57 0 20 0;
#X connect 60 0 61 0;
#X connect 61 0 62 1;
#X connect 62 0 18 1;
#X connect 63 0 64 0;
#X connect 64 0 62 0;
#X connect 65 0 63 0;
#X connect 66 0 68 0;
#X connect 73 0 11 0;
#X connect 74 0 10 0;
#X connect 75 0 17 3;
#X connect 76 0 66 0;
#X connect 77 0 17 0;
#X connect 78 0 63 0;
#X connect 79 0 17 1;
#X connect 80 0 45 0;
#X connect 81 0 46 0;
#X connect 82 0 69 0;
#X coords 0 0 1 1 150 314 2 491 381;
