#N canvas 0 50 450 300 12;
#X obj 357 674 else/mix4~;
#X obj 564 684 gain~ 1 0 20 0 1;
#A saved;
#X obj 615 655 meter~;
#X obj 407 600 noise~;
#X obj 357 296 loadbang;
#X obj 400 407 soundfiler;
#X obj 357 323 t b b;
#X obj 312 296 bng 25 250 50 0 empty empty empty 17 7 0 10 #e4e4e4 #4d4d4d #373737;
#X obj 400 433 bng 19 250 50 0 empty empty empty 17 7 0 10 #e4e4e4 #4d4d4d #373737;
#X obj 32 364 openpanel;
#X obj 32 296 bng 25 250 50 0 empty empty empty 17 7 0 10 #e4e4e4 #4d4d4d #373737;
#X obj 32 330 t b b;
#X obj 32 407 list;
#X msg 32 439 read -resize \$1 \$2;
#X obj 32 469 t b a;
#N canvas 0 0 450 250 (subpatch) 0;
#X array \$0-sound-file-1 3.6042e+07 float 2;
#X coords 0 1 3.6042e+07 -1 200 140 1;
#X restore 312 120 graph;
#N canvas 0 0 450 250 (subpatch) 0;
#X array \$0-sound-file-2 6.31206e+07 float 2;
#X coords 0 1 6.31206e+07 -1 200 140 1;
#X restore 689 120 graph;
#X obj 400 353 symbol \$0-sound-file-1;
#X msg 1164 353 read -resize nuclear-holocaust-48k.wav \$1;
#X obj 357 463 tabplayer~ -loop \$0-sound-file-1;
#X obj 734 296 loadbang;
#X obj 777 407 soundfiler;
#X obj 734 323 t b b;
#X obj 689 296 bng 25 250 50 0 empty empty empty 17 7 0 10 #e4e4e4 #4d4d4d #373737;
#X obj 777 433 bng 19 250 50 0 empty empty empty 17 7 0 10 #e4e4e4 #4d4d4d #373737;
#X msg 777 382 read -resize crab-salts-48k.wav \$1;
#X obj 734 463 tabplayer~ -loop \$0-sound-file-2;
#X obj 777 353 symbol \$0-sound-file-2;
#X msg 549 842 gain \$1, f 8;
#X obj 549 812 nbx 5 18 0.0001 3 0 1 empty empty empty 0 -8 0 10 #dcdcdc #000000 #000000 1 256;
#X text 545 788 max gain;
#X text 551 654 Master;
#X obj 115 364 symbol \$0-sound-file-1;
#X obj 458 600 adc~;
#X obj 615 869 outlet~;
#X obj 520 600 loadbang;
#X text 400 654 Noise;
#X text 451 654 Mic;
#X text 357 654 File 1;
#X text 494 654 File 2;
#X obj 173 684 r ctl-mix-gain;
#X msg 173 741 gain1 \$1;
#X obj 262 808 -;
#X obj 262 741 t b f, f 6;
#X msg 264 773 1;
#X msg 262 842 gain4 \$1;
#X msg 1170 448 read -resize tipping_points_48k.wav \$1;
#X msg 588 600 set 1;
#X msg 400 382 read -resize nuclear-winter-48k.wav \$1;
#X connect 0 0 1 0;
#X connect 1 0 2 0;
#X connect 2 0 34 0;
#X connect 3 0 0 1;
#X connect 4 0 6 0;
#X connect 5 0 8 0;
#X connect 6 0 19 0;
#X connect 6 1 17 0;
#X connect 7 0 6 0;
#X connect 9 0 12 0;
#X connect 10 0 11 0;
#X connect 11 0 9 0;
#X connect 11 1 32 0;
#X connect 12 0 13 0;
#X connect 13 0 14 0;
#X connect 14 0 19 0;
#X connect 14 1 5 0;
#X connect 17 0 48 0;
#X connect 19 0 0 0;
#X connect 20 0 22 0;
#X connect 21 0 24 0;
#X connect 22 0 26 0;
#X connect 22 1 27 0;
#X connect 23 0 22 0;
#X connect 25 0 21 0;
#X connect 26 0 0 3;
#X connect 27 0 25 0;
#X connect 28 0 1 0;
#X connect 29 0 28 0;
#X connect 32 0 12 1;
#X connect 33 0 0 2;
#X connect 35 0 29 0;
#X connect 35 0 47 0;
#X connect 40 0 41 0;
#X connect 40 0 43 0;
#X connect 41 0 0 0;
#X connect 42 0 45 0;
#X connect 43 0 44 0;
#X connect 43 1 42 1;
#X connect 44 0 42 0;
#X connect 45 0 0 0;
#X connect 47 0 1 0;
#X connect 48 0 5 0;
#X coords 0 0 1 1 321 187 2 350 646;
