#N canvas 194 37 1659 940 12;
#X obj 357 674 else/mix4~;
#X obj 564 684 gain~ 1 0 20 0 1;
#A saved;
#X obj 615 655 meter~;
#X obj 497 571 noise~;
#X obj 415 287 loadbang;
#X obj 400 407 soundfiler;
#X obj 357 323 t b b;
#X obj 312 296 bng 25 250 50 0 empty empty empty 17 7 0 10 #e4e4e4 #4d4d4d #373737;
#X obj 400 433 bng 19 250 50 0 empty empty empty 17 7 0 10 #e4e4e4 #4d4d4d #373737;
#X obj 32 364 openpanel;
#X obj 32 296 bng 25 250 50 0 empty empty empty 17 7 0 10 #e4e4e4 #4d4d4d #373737;
#X obj 32 330 t b b;
#X obj 32 407 list;
#X msg 32 439 read -resize \$1 \$2;
#X obj 32 469 t b a;
#N canvas 0 0 450 250 (subpatch) 0;
#X array \$0-sound-file-1 5.33413e+07 float 2;
#X coords 0 1 5.33413e+07 -1 200 140 1;
#X restore 312 120 graph;
#N canvas 0 0 450 250 (subpatch) 0;
#X array \$0-sound-file-2 2.90574e+06 float 2;
#X coords 0 1 2.90574e+06 -1 200 140 1;
#X restore 689 120 graph;
#X obj 400 353 symbol \$0-sound-file-1;
#X msg 1272 596 read -resize nuclear-holocaust-48k.wav \$1;
#X obj 357 463 tabplayer~ -loop \$0-sound-file-1;
#X obj 767 287 loadbang;
#X obj 777 407 soundfiler;
#X obj 734 323 t b b;
#X obj 689 296 bng 25 250 50 0 empty empty empty 17 7 0 10 #e4e4e4 #4d4d4d #373737;
#X obj 777 433 bng 19 250 50 0 empty empty empty 17 7 0 10 #e4e4e4 #4d4d4d #373737;
#X obj 734 463 tabplayer~ -loop \$0-sound-file-2;
#X obj 777 353 symbol \$0-sound-file-2;
#X msg 549 842 gain \$1, f 8;
#X obj 549 812 nbx 5 18 0.0001 3 0 1 empty empty empty 0 -8 0 10 #dcdcdc #000000 #000000 1 256;
#X text 545 788 max gain;
#X text 551 654 Master;
#X obj 115 364 symbol \$0-sound-file-1;
#X obj 615 869 outlet~;
#X obj 549 596 loadbang;
#X text 357 654 File 1;
#X obj 173 684 r ctl-mix-gain;
#X msg 173 741 gain1 \$1;
#X obj 262 808 -;
#X obj 262 741 t b f, f 6;
#X msg 264 773 1;
#X msg 262 842 gain4 \$1;
#X msg 400 375 read -resize tipping_points_48k.wav \$1;
#X msg 617 596 set 1;
#X msg 1272 633 read -resize nuclear-winter-48k.wav \$1;
#N canvas 0 0 450 250 (subpatch) 0;
#X array \$0-sound-file-3 6.68866e+06 float 2;
#X coords 0 1 6.68866e+06 -1 200 140 1;
#X restore 1014 119 graph;
#X obj 1139 286 loadbang;
#X obj 1102 406 soundfiler;
#X obj 1059 322 t b b;
#X obj 1046 286 bng 25 250 50 0 empty empty empty 17 7 0 10 #e4e4e4 #4d4d4d #373737;
#X obj 1102 432 bng 19 250 50 0 empty empty empty 17 7 0 10 #e4e4e4 #4d4d4d #373737;
#X obj 1102 352 symbol \$0-sound-file-3;
#X obj 1059 462 tabplayer~ -loop \$0-sound-file-3;
#X text 400 654 File 2;
#X text 451 654 File 3;
#X text 501 654 Noise;
#X msg 1283 497 speed \$1;
#X obj 1283 411 knob 50 0.001 1000 1 100 empty empty #dfdfdf #7c7c7c #000000 1 0 0 0 1 320 0 0 0.001 empty empty 0 12 6 -15 0 1 0 0;
#X floatatom 1283 469 5 0 0 0 - - - 0;
#X obj 1243 489 bng 20 250 50 0 empty empty empty 0 -10 0 12 #fcfcfc #000000 #000000;
#X msg 1062 574 read -resize 01-1k.wav;
#X msg 1298 352 read -resize 02-1k.wav;
#X msg 777 382 read -resize quadcore.wav \$1;
#X msg 1102 381 read -resize crab-salts.wav \$1;
#X msg 572 504 speed \$1;
#X obj 572 418 knob 50 0.001 1000 1 100 empty empty #dfdfdf #7c7c7c #000000 1 0 0 0 1 320 0 0 0.001 empty empty 0 12 6 -15 0 1 0 0;
#X floatatom 572 476 5 0 0 0 - - - 0;
#X msg 949 507 speed \$1;
#X obj 949 421 knob 50 0.001 1000 1 100 empty empty #dfdfdf #7c7c7c #000000 1 0 0 0 1 320 0 0 0.001 empty empty 0 12 6 -15 0 1 0 0;
#X floatatom 949 479 5 0 0 0 - - - 0;
#X connect 0 0 1 0;
#X connect 1 0 2 0;
#X connect 2 0 32 0;
#X connect 3 0 0 3;
#X connect 4 0 6 0;
#X connect 5 0 8 0;
#X connect 6 0 19 0;
#X connect 6 1 17 0;
#X connect 7 0 6 0;
#X connect 9 0 12 0;
#X connect 10 0 11 0;
#X connect 11 0 9 0;
#X connect 11 1 31 0;
#X connect 12 0 13 0;
#X connect 13 0 14 0;
#X connect 14 0 19 0;
#X connect 14 1 5 0;
#X connect 17 0 41 0;
#X connect 19 0 0 0;
#X connect 20 0 22 0;
#X connect 21 0 24 0;
#X connect 22 0 25 0;
#X connect 22 1 26 0;
#X connect 23 0 22 0;
#X connect 25 0 0 1;
#X connect 26 0 61 0;
#X connect 27 0 1 0;
#X connect 28 0 27 0;
#X connect 31 0 12 1;
#X connect 33 0 28 0;
#X connect 33 0 42 0;
#X connect 35 0 36 0;
#X connect 35 0 38 0;
#X connect 36 0 0 0;
#X connect 37 0 40 0;
#X connect 38 0 39 0;
#X connect 38 1 37 1;
#X connect 39 0 37 0;
#X connect 40 0 0 0;
#X connect 41 0 5 0;
#X connect 42 0 1 0;
#X connect 45 0 47 0;
#X connect 46 0 49 0;
#X connect 47 0 51 0;
#X connect 47 1 50 0;
#X connect 48 0 47 0;
#X connect 50 0 62 0;
#X connect 51 0 0 2;
#X connect 51 1 58 0;
#X connect 55 0 51 0;
#X connect 56 0 57 0;
#X connect 57 0 55 0;
#X connect 61 0 21 0;
#X connect 62 0 46 0;
#X connect 63 0 19 0;
#X connect 64 0 65 0;
#X connect 65 0 63 0;
#X connect 66 0 25 0;
#X connect 67 0 68 0;
#X connect 68 0 66 0;
#X coords 0 0 1 1 321 220 2 350 646;
