#N canvas 338 98 1178 565 12;
#X obj 98 323 soundfiler;
#X obj 73 249 t b b;
#X obj 73 210 bng 25 250 50 0 empty empty empty 17 7 0 10 #e4e4e4 #4d4d4d #373737;
#N canvas 0 0 450 250 (subpatch) 0;
#X array sound-file-1 1.43854e+06 float 2;
#X coords 0 1 1.43854e+06 -1 200 140 1;
#X restore 21 20 graph;
#X obj 507 323 soundfiler;
#X obj 482 249 t b b;
#X obj 482 210 bng 25 250 50 0 empty empty empty 17 7 0 10 #e4e4e4 #4d4d4d #373737;
#N canvas 0 0 450 250 (subpatch) 0;
#X array sound-file-2 3.6042e+07 float 2;
#X coords 0 1 3.6042e+07 -1 200 140 1;
#X restore 482 20 graph;
#X obj 73 463 dac~;
#X msg 98 296 read -resize short.wav sound-file-1;
#X msg 507 296 read -resize long.wav sound-file-2;
#X obj 482 354 tabplay~ sound-file-2;
#X obj 73 354 tabplay~ sound-file-1;
#X connect 1 0 12 0;
#X connect 1 1 9 0;
#X connect 2 0 1 0;
#X connect 5 0 11 0;
#X connect 5 1 10 0;
#X connect 6 0 5 0;
#X connect 9 0 0 0;
#X connect 10 0 4 0;
#X connect 11 0 8 1;
#X connect 12 0 8 0;
