#N canvas 827 239 579 333 12;
#X obj 11 245 cnv 15 226 79 empty empty empty 20 12 0 14 #9ab786 #373737 0;
#X floatatom 110 110 8 0 0 0 - - - 16;
#X msg 22 79 2;
#X obj 51 79 pow;
#X obj 20 41 t b f;
#X obj 110 184 outlet;
#X obj 126 19 inlet;
#X obj 166 184 outlet;
#X obj 126 54 knob 50 2 20 0 6 empty empty #E4E4E4 #B7B7B7 #4D4D4D 1 0 19 1 1 270 0 0 6 empty empty 0 0 0 0 0 0 1 0;
#X obj 259 19 inlet;
#X msg 259 85 range \$1 \$2;
#X obj 259 54 t a a;
#X obj 439 58 unpack;
#X obj 439 85 expr ($f2 - $f1) + 1;
#X text 301 18 (Min \, max) values for knob range;
#X floatatom 439 114 5 0 0 0 - - - 12;
#X obj 541 20 inlet;
#X text 586 19 Any messages understood by the knob;
#X msg 259 124 steps \$1;
#X floatatom 20 12 5 0 0 0 - - - 12;
#X obj 439 184 cnv 15 101 134 empty empty empty 20 12 0 14 #b785a7 #373737 0;
#X obj 320 184 cnv 15 101 134 empty empty empty 20 12 0 14 #1bb7ab #373737 0;
#X obj 455 220 +;
#X msg 457 189 1;
#X floatatom 455 252 5 0 0 0 - - - 12;
#X floatatom 336 291 5 0 0 0 - - - 12;
#X obj 336 259 - 1;
#X floatatom 336 226 5 0 0 0 - - - 12;
#X msg 336 195 set \$1;
#X obj 166 148 t f f f f;
#X obj 176 68 bng 22 250 50 0 empty empty empty 17 7 0 10 #e4e4e4 #4d4d4d #373737;
#X obj 104 68 bng 22 250 50 0 empty empty empty 17 7 0 10 #e4e4e4 #4d4d4d #373737;
#X obj 18 299 s \$1-s;
#X obj 18 259 r \$1-r;
#X text 66 260 Receive and send to allow saving and loading of presets with [daw-state], f 24;
#X obj 195 360 bng 25 250 50 0 empty empty empty 0 -10 0 10 #e4e4e4 #4d4d4d #373737;
#X obj 195 397 print \$1-r;
#X obj 286 397 print \$1-s;
#X connect 1 0 5 0;
#X connect 2 0 3 0;
#X connect 3 0 1 0;
#X connect 4 0 2 0;
#X connect 4 1 3 1;
#X connect 6 0 8 0;
#X connect 8 0 29 0;
#X connect 9 0 11 0;
#X connect 10 0 8 0;
#X connect 11 0 10 0;
#X connect 11 1 12 0;
#X connect 12 0 13 0;
#X connect 12 1 13 1;
#X connect 13 0 15 0;
#X connect 15 0 18 0;
#X connect 16 0 8 0;
#X connect 18 0 8 0;
#X connect 19 0 4 0;
#X connect 22 0 24 0;
#X connect 23 0 22 0;
#X connect 24 0 8 0;
#X connect 25 0 8 0;
#X connect 26 0 25 0;
#X connect 27 0 26 0;
#X connect 28 0 27 0;
#X connect 29 0 7 0;
#X connect 29 0 32 0;
#X connect 29 1 19 0;
#X connect 29 2 22 1;
#X connect 29 3 28 0;
#X connect 30 0 23 0;
#X connect 31 0 27 0;
#X connect 33 0 8 0;
#X connect 35 0 36 0;
#X connect 35 0 37 0;
#X coords 0 0 1 1 101 86 2 100 50;
