#N canvas 827 239 527 327 12;
#X floatatom 110 110 8 0 0 0 - - - 16;
#X msg 22 79 2;
#X obj 51 79 pow;
#X obj 20 41 t b f;
#X obj 110 184 outlet;
#X obj 126 19 inlet;
#X obj 166 184 outlet;
#X obj 126 54 knob 50 2 20 0 2 empty empty #E4E4E4 #B7B7B7 #4D4D4D 1 0 19 1 1 270 0 0 2 empty empty 0 0 0 0 0 0 1 0;
#X obj 259 19 inlet;
#X msg 259 85 range \$1 \$2;
#X obj 259 54 t a a;
#X obj 439 58 unpack;
#X obj 439 85 expr ($f2 - $f1) + 1;
#X text 301 18 (Min \, max) values for knob range;
#X floatatom 439 114 5 0 0 0 - - - 12;
#X obj 541 20 inlet;
#X text 586 19 Any messages understood by the knob;
#X msg 259 128 steps \$1;
#X floatatom 20 12 5 0 0 0 - - - 12;
#X obj 351 229 cnv 15 101 134 empty empty empty 20 12 0 14 #b785a7 #373737 0;
#X obj 232 229 cnv 15 101 134 empty empty empty 20 12 0 14 #1bb7ab #373737 0;
#X obj 367 265 +;
#X msg 369 234 1;
#X floatatom 367 297 5 0 0 0 - - - 12;
#X floatatom 248 336 5 0 0 0 - - - 12;
#X obj 248 304 - 1;
#X floatatom 248 271 5 0 0 0 - - - 12;
#X msg 248 240 set \$1;
#X obj 166 148 t f f f f;
#X obj 176 68 bng 22 250 50 0 empty empty empty 17 7 0 10 #e4e4e4 #4d4d4d #373737;
#X obj 104 68 bng 22 250 50 0 empty empty empty 17 7 0 10 #e4e4e4 #4d4d4d #373737;
#X connect 0 0 4 0;
#X connect 1 0 2 0;
#X connect 2 0 0 0;
#X connect 3 0 1 0;
#X connect 3 1 2 1;
#X connect 5 0 7 0;
#X connect 7 0 28 0;
#X connect 8 0 10 0;
#X connect 9 0 7 0;
#X connect 10 0 9 0;
#X connect 10 1 11 0;
#X connect 11 0 12 0;
#X connect 11 1 12 1;
#X connect 12 0 14 0;
#X connect 14 0 17 0;
#X connect 15 0 7 0;
#X connect 17 0 7 0;
#X connect 18 0 3 0;
#X connect 21 0 23 0;
#X connect 22 0 21 0;
#X connect 23 0 7 0;
#X connect 24 0 7 0;
#X connect 25 0 24 0;
#X connect 26 0 25 0;
#X connect 27 0 26 0;
#X connect 28 0 6 0;
#X connect 28 1 18 0;
#X connect 28 2 21 1;
#X connect 28 3 27 0;
#X connect 29 0 22 0;
#X connect 30 0 26 0;
#X coords 0 0 1 1 101 87 2 100 50;
