#N canvas 827 239 1050 1013 12;
#X obj -4 -144 cnv 15 623 131 empty empty empty 20 12 0 14 #b793a2 #373737 0;
#X obj 286 744 cnv 15 428 240 empty empty empty 20 12 0 14 #efec00 #373737 0;
#X obj 588 102 cnv 15 126 343 empty empty empty 20 12 0 14 #00b74b #373737 0;
#X msg 230 116 0;
#X text 307 191 Lower;
#X text 381 191 Upper;
#X obj 303 870 outlet;
#X obj 491 870 outlet;
#X msg 199 157 exp \$1;
#X obj 199 24 inlet;
#X floatatom 394 320 5 0 0 0 - - - 12;
#X text 359 318 Exp:;
#X obj 199 348 unpack s f;
#X obj 297 221 knob 50 0 1 4 0 empty empty #E4E4E4 #B7B7B7 #4D4D4D 1 0 0 0 1 270 0 0 0 empty empty 0 0 0 0 0 0 0 0;
#X obj 381 221 knob 50 0 1 4 0 empty empty #E4E4E4 #B7B7B7 #4d4d4d 1 0 0 0 1 270 0 0 0 empty empty 0 0 0 0 0 0 0 0;
#X obj 303 415 t f f f;
#X obj 387 415 t f f;
#X obj 609 365 -;
#X obj 609 332 t b f;
#X floatatom 609 391 5 0 0 0 - - - 12;
#X obj 609 199 spigot;
#X obj 352 234 tgl 25 0 \$0-link-s \$0-link-r empty 17 7 0 10 #e4e4e4 #4d4d4d #373737 0 1;
#X obj 609 236 +;
#X floatatom 609 267 5 0 0 0 - - - 12;
#X floatatom 609 167 5 0 0 0 - - - 12;
#X floatatom 303 289 5 0 0 0 - - - 12;
#X floatatom 387 289 5 0 0 0 - - - 12;
#X text 609 100 Logic to link knobs at a given range, f 14;
#X msg 297 116 0;
#X obj 340 65 t b b b;
#X msg 381 116 1;
#X obj 611 494 bang~;
#X obj 599 526 cnv 15 426 85 empty empty empty 20 12 0 14 #14a8b7 #373737 0;
#X obj 611 617 t b b;
#X obj 303 790 t f f;
#X obj 491 790 t f f;
#X obj 303 759 value start_\$0;
#X obj 491 759 value finish_\$0;
#X obj 324 822 value prev_start_\$0;
#X obj 519 822 value prev_finish_\$0;
#X obj 611 533 expr (start_\$0 == prev_start_\$0) && (finish_\$0 == prev_finish_\$0 );
#X obj 611 569 select 0;
#X text 688 553 Don't send knob values to outlets unless the start or finish value has been changed since last DSP cycle, f 42;
#X text 303 908 Don't send knob values directly to outlets \, just store in value objects until next DSP cycle completes. This makes sure that a cascade of messages only happens once per DSP cycle even if knob has been moved about alot, f 54;
#X obj 115 24 inlet;
#X obj 362 870 s \$0-lower-s;
#X obj 561 870 s \$0-upper-s;
#X obj 394 348 s \$0-exp-s;
#X obj 246 24 r \$0-exp-r;
#X obj 20 24 r \$0-lower-r;
#X text 20 -6 Lower magnitude, f 18;
#X text 199 -6 Exponent factor, f 18;
#X obj 440 24 r \$0-upper-r;
#X text 443 -7 Upper magnitude, f 18;
#X obj 2 -79 daw_storage \$0-lower_;
#X obj 2 -109 r \$0-lower-s;
#X obj 2 -45 s \$0-lower-r;
#X obj 160 -109 r \$0-upper-s;
#X obj 160 -79 daw_storage \$0-upper_;
#X obj 160 -45 s \$0-upper-r;
#X obj 319 -109 r \$0-exp-s;
#X obj 319 -45 s \$0-exp-r;
#X obj 319 -79 daw_storage \$0-exp_;
#X obj 477 -109 r \$0-link-s;
#X obj 477 -45 s \$0-link-r;
#X obj 477 -79 daw_storage \$0-link_;
#X text 21 -139 Preset management;
#X obj -165 -17 print out-lower;
#X obj -165 24 print out-upper;
#X obj -165 65 print out-exp;
#X obj -165 101 print out-link;
#X obj 669 -152 print in-lower;
#X obj 669 -111 print in-upper;
#X obj 669 -70 print in-exp;
#X obj 669 -34 print in-link;
#N canvas 0 50 445 141 loadbang 1;
#X obj 60 106 outlet;
#X obj 60 68 loadbang;
#X text 20 8 Putting loadbang in subpatch means it will fire before any [loadbang] or [daw-storage] in the parent patch;
#X connect 1 0 0 0;
#X restore 340 24 pd loadbang;
#X connect 3 0 8 0;
#X connect 8 0 13 0;
#X connect 8 0 14 0;
#X connect 8 0 12 0;
#X connect 9 0 8 0;
#X connect 10 0 47 0;
#X connect 12 1 10 0;
#X connect 13 0 25 0;
#X connect 14 0 26 0;
#X connect 15 0 36 0;
#X connect 15 1 18 0;
#X connect 15 2 24 0;
#X connect 16 0 37 0;
#X connect 16 1 17 0;
#X connect 17 0 19 0;
#X connect 18 0 17 0;
#X connect 18 1 17 1;
#X connect 19 0 22 1 48.................G....jD...vA....IA...Xz+++uE....F8+++aA...PT++++;
#X connect 20 0 22 0;
#X connect 21 0 20 1;
#X connect 22 0 23 0;
#X connect 23 0 14 0;
#X connect 24 0 20 0;
#X connect 25 0 15 0;
#X connect 26 0 16 0;
#X connect 28 0 13 0;
#X connect 29 0 3 0;
#X connect 29 1 28 0;
#X connect 29 2 30 0;
#X connect 30 0 14 0;
#X connect 31 0 40 0;
#X connect 33 0 36 0;
#X connect 33 1 37 0;
#X connect 34 0 6 0;
#X connect 34 0 45 0;
#X connect 34 1 38 0;
#X connect 35 0 7 0;
#X connect 35 0 46 0;
#X connect 35 1 39 0;
#X connect 36 0 34 0;
#X connect 37 0 35 0;
#X connect 40 0 41 0;
#X connect 41 0 33 0;
#X connect 44 0 13 0 48.................nB...rH....p....KB...fJ...fs....nB...XK...fr....;
#X connect 48 0 8 0;
#X connect 49 0 13 0 48.................nB...HO....p....xC...fJ...PEA...nB...TQ...fr....;
#X connect 52 0 14 0;
#X connect 54 0 56 0;
#X connect 54 0 67 0;
#X connect 55 0 54 0;
#X connect 55 0 71 0;
#X connect 57 0 58 0;
#X connect 57 0 72 0;
#X connect 58 0 59 0;
#X connect 58 0 68 0;
#X connect 60 0 62 0;
#X connect 60 0 73 0;
#X connect 62 0 61 0;
#X connect 62 0 69 0;
#X connect 63 0 65 0;
#X connect 63 0 74 0;
#X connect 65 0 64 0;
#X connect 65 0 70 0;
#X coords 0 0 1 1 144 158 2 292 185;
