#N canvas 827 239 1240 1015 12;
#X obj 484 758 cnv 15 739 240 empty empty empty 20 12 0 14 #efec00 #373737 0;
#X obj 788 117 cnv 15 140 322 empty empty empty 20 12 0 14 #00b74b #373737 0;
#X msg 432 108 0;
#X text 507 206 Lower;
#X text 581 206 Upper;
#X obj 501 884 outlet;
#X obj 689 884 outlet;
#X msg 401 149 exp \$1;
#X obj 401 39 inlet;
#X floatatom 594 335 5 0 0 0 - - \$0-exp 12;
#X text 559 333 Exp:;
#X obj 399 363 unpack s f;
#X obj 497 236 knob 50 0 1 4 0 empty empty #E4E4E4 #B7B7B7 #4D4D4D 1 0 0 0 1 270 0 0 0 empty empty 0 0 0 0 0 0 0 0;
#X obj 581 236 knob 50 0 1 4 0 empty empty #E4E4E4 #B7B7B7 #4d4d4d 1 0 0 0 1 270 0 0 0 empty empty 0 0 0 0 0 0 0 0;
#X obj 503 430 t f f f;
#X obj 587 430 t f f;
#X obj 809 380 -;
#X obj 809 347 t b f;
#X floatatom 809 406 5 0 0 0 - - - 12;
#X obj 809 214 spigot;
#X obj 552 249 tgl 25 0 \$0-link empty empty 17 7 0 10 #e4e4e4 #4d4d4d #373737 0 1;
#X obj 809 251 +;
#X floatatom 809 282 5 0 0 0 - - - 12;
#X floatatom 809 182 5 0 0 0 - - - 12;
#X floatatom 503 304 5 0 0 0 - - - 12;
#X floatatom 587 304 5 0 0 0 - - - 12;
#X text 809 115 Logic to link knobs at a given range, f 14;
#X msg 499 108 0;
#X obj 540 71 t b b b;
#X msg 583 108 1;
#X obj 809 508 bang~;
#X obj 797 540 cnv 15 426 85 empty empty empty 20 12 0 14 #14a8b7 #373737 0;
#X obj 809 631 t b b;
#X obj 501 804 t f f;
#X obj 689 804 t f f;
#X obj 501 773 value start_\$0;
#X obj 689 773 value finish_\$0;
#X obj 522 836 value prev_start_\$0;
#X obj 717 836 value prev_finish_\$0;
#X obj 809 547 expr (start_\$0 == prev_start_\$0) && (finish_\$0 == prev_finish_\$0 );
#X obj 809 583 select 0;
#X text 886 567 Don't send knob values to outlets unless the start or finish value has been changed since last DSP cycle, f 42;
#X text 501 922 Don't send knob values directly to outlets \, just store in value objects until next DSP cycle completes. This makes sure that a cascade of messages only happens once per DSP cycle even if knob has been moved about alot, f 54;
#X obj 140 39 inlet;
#X text 93 9 Lower magnitude, f 18;
#X text 399 9 Exponent factor, f 18;
#X text 253 9 Upper magnitude, f 18;
#X obj 272 39 inlet;
#X obj 661 39 inlet;
#X text 661 9 Link;
#X obj 852 182 r \$0-link;
#X obj 962 884 outlet;
#X obj 1095 884 outlet;
#X obj 962 836 r \$0-exp;
#X obj 1095 836 r \$0-link;
#X obj 540 39 loadbang;
#X connect 2 0 7 0;
#X connect 7 0 12 0;
#X connect 7 0 13 0;
#X connect 7 0 11 0;
#X connect 8 0 7 0;
#X connect 11 1 9 0;
#X connect 12 0 24 0;
#X connect 13 0 25 0;
#X connect 14 0 35 0;
#X connect 14 1 17 0;
#X connect 14 2 23 0;
#X connect 15 0 36 0;
#X connect 15 1 16 0;
#X connect 16 0 18 0;
#X connect 17 0 16 0;
#X connect 17 1 16 1;
#X connect 18 0 21 1 48.................G....jD...vA....IA...Xz+++uE....F8+++aA...PT++++;
#X connect 19 0 21 0;
#X connect 21 0 22 0;
#X connect 22 0 13 0;
#X connect 23 0 19 0;
#X connect 24 0 14 0;
#X connect 25 0 15 0;
#X connect 27 0 12 0;
#X connect 28 0 2 0;
#X connect 28 1 27 0;
#X connect 28 2 29 0;
#X connect 29 0 13 0;
#X connect 30 0 39 0;
#X connect 32 0 35 0;
#X connect 32 1 36 0;
#X connect 33 0 5 0;
#X connect 33 1 37 0;
#X connect 34 0 6 0;
#X connect 34 1 38 0;
#X connect 35 0 33 0;
#X connect 36 0 34 0;
#X connect 39 0 40 0;
#X connect 40 0 32 0;
#X connect 43 0 12 0 48.................nB...rH....p....KB...fJ...fs....nB...XK...fr....;
#X connect 47 0 13 0 48.................BB...jR...ff....oD...HH...PMA...BB...TS...fr....;
#X connect 48 0 20 0;
#X connect 50 0 19 1;
#X connect 53 0 51 0;
#X connect 54 0 52 0;
#X connect 55 0 28 0;
#X coords 0 0 1 1 144 160 2 492 200;
