#N canvas 827 239 527 327 12;
#X obj 121 13 inlet~;
#X obj 91 339 outlet~;
#X obj 121 103 car2pol~, f 11;
#X obj 121 221 pol2car~, f 11;
#X obj 315 40 knob 50 0 1 2 0 empty empty #E4E4E4 #B7B7B7 #4D4D4D 1 0 0 0 1 270 0 0 0 empty empty 0 0 0 0 0 0 0 0;
#X obj 121 55 snake~ out, f 11;
#X obj 121 261 snake~, f 10;
#X floatatom 315 103 5 0 0 0 - - - 12;
#X obj 181 165 *~;
#X obj 107 -56 loadbang;
#X obj 91 295 select~;
#X obj 355 137 tgl 25 0 empty empty empty 17 7 0 10 #e4e4e4 #4d4d4d #373737 0 1;
#X obj 28 234 + 1;
#X floatatom 28 259 5 0 0 0 - - - 12;
#X text 298 142 Enabled;
#X text 294 12 Scale Phase, f 12;
#X obj 181 -56 r ctl-phase;
#X obj 403 129 r phase-enable-r;
#X obj 403 165 s phase-enable-s;
#X obj -19 172 r phase-enable-s;
#X obj 28 196 loadbang;
#X obj 315 -56 r phase-amt-r;
#X obj 298 196 s phase-amt-s;
#X connect 0 0 5 0;
#X connect 0 0 10 0 32.................K.....7++++B.....++++2P....;
#X connect 2 0 3 0;
#X connect 2 1 8 0;
#X connect 3 0 6 0;
#X connect 3 1 6 1;
#X connect 4 0 7 0;
#X connect 5 0 2 0;
#X connect 5 1 2 1;
#X connect 6 0 10 1;
#X connect 7 0 8 1;
#X connect 7 0 22 0;
#X connect 8 0 3 1;
#X connect 9 0 4 0;
#X connect 10 0 1 0;
#X connect 11 0 18 0;
#X connect 12 0 13 0;
#X connect 13 0 10 0;
#X connect 16 0 4 0;
#X connect 17 0 11 0;
#X connect 19 0 12 0;
#X connect 20 0 12 0;
#X connect 21 0 4 0;
#X coords 0 0 1 1 103 159 2 287 6;
