#N canvas 52 20 1854 977 12;
#X declare -path else -lib else;
#X declare -path cyclone -lib cyclone;
#X obj 99 1060 output~;
#X obj 7 915 hradio 20 1 1 4 empty empty empty 0 -8 0 10 #e4e4e4 #4d4d4d #373737 2;
#X obj 99 949 select~ 3, f 18;
#X obj 99 221 adc~, f 6;
#X obj 964 124 fft-window;
#X obj 964 84 unpack f;
#X obj -10 1060 loadmess 1;
#X msg -10 1085 level \$1;
#X obj 450 124 block-control;
#X obj 450 289 s \$0-block-params;
#X obj 964 57 r \$0-block-params;
#X obj 393 323 r \$0-block-params;
#X obj 303 221 noise~;
#X obj -35 221 hradio 20 1 1 5 empty empty empty 0 -8 0 10 #e4e4e4 #4d4d4d #373737 0;
#X obj 373 221 osc~ 220;
#X obj 99 256 select~ 4, f 46;
#X obj 249 345 spec-son;
#N canvas 0 0 450 250 (subpatch) 0;
#X array \$0-sound-file 5.33413e+07 float 2;
#X coords 0 1 5.33413e+07 -1 200 140 1;
#X restore -347 0 graph;
#X obj 201 57 symbol \$0-sound-file;
#X obj 158 0 loadbang;
#X obj 201 111 soundfiler;
#X obj 158 27 t b b;
#X obj 113 0 bng 25 250 50 0 empty empty empty 17 7 0 10 #e4e4e4 #4d4d4d #373737;
#X obj -216 -87 declare -path else -lib else;
#X obj -217 -60 declare -path cyclone -lib cyclone;
#X obj 512 1099 writesf~;
#X msg 483 1044 start;
#X msg 532 1044 stop;
#X msg 582 1044 print;
#X obj 201 137 bng 19 250 50 0 empty empty empty 17 7 0 10 #e4e4e4 #4d4d4d #373737;
#X obj 229 137 s playback-started-\$0;
#X obj 274 193 s playback-finished-\$0;
#X obj 483 883 r playback-started-\$0;
#X obj 693 1004 r playback-finished-\$0;
#X obj 483 969 t b b;
#X msg 518 1004 open tipping_out_14.wav;
#X obj -53 68 openpanel;
#X obj -53 0 bng 25 250 50 0 empty empty empty 17 7 0 10 #e4e4e4 #4d4d4d #373737;
#X obj 30 68 symbol \$0-sound-file;
#X obj -53 34 t b b;
#X obj -53 111 list;
#X msg -53 143 read -resize \$1 \$2;
#X obj 158 167 tabplayer~ -loop \$0-sound-file;
#X obj -53 173 t b a;
#X msg 201 86 read -resize tipping_points_48k.wav \$1;
#X msg 640 41 2048;
#X msg 705 41 16384;
#X msg 776 41 262144;
#X obj 640 74 s ctl-block-size;
#X msg 601 41 4;
#N canvas 0 50 450 300 mixer 1;
#X obj 214 147 else/mix4~;
#X obj 211 342 gain~ 1 0 20 0 0.948454;
#A saved;
#X obj 206 458 meter~;
#X obj 169 59 noise~;
#X obj 206 643 dac~;
#X connect 0 0 1 0;
#X connect 1 0 2 0;
#X connect 2 0 4 0;
#X connect 3 0 0 0;
#X connect 3 0 0 1;
#X connect 3 0 0 2;
#X restore -180 295 pd mixer;
#X connect 1 0 2 0;
#X connect 2 0 0 0;
#X connect 2 0 0 1;
#X connect 2 0 25 0;
#X connect 3 0 15 0;
#X connect 4 0 16 4;
#X connect 5 0 4 0;
#X connect 6 0 7 0;
#X connect 7 0 0 0;
#X connect 8 0 9 0;
#X connect 8 1 16 2;
#X connect 8 2 16 3;
#X connect 10 0 5 0;
#X connect 11 0 16 1;
#X connect 12 0 15 2;
#X connect 13 0 15 0;
#X connect 14 0 15 3;
#X connect 15 0 2 0;
#X connect 15 0 16 0;
#X connect 16 0 2 1;
#X connect 16 1 0 1;
#X connect 18 0 44 0;
#X connect 19 0 21 0;
#X connect 20 0 29 0;
#X connect 21 0 42 0;
#X connect 21 1 18 0;
#X connect 22 0 21 0;
#X connect 26 0 25 0;
#X connect 27 0 25 0;
#X connect 28 0 25 0;
#X connect 29 0 30 0;
#X connect 34 0 26 0;
#X connect 34 1 35 0;
#X connect 35 0 25 0;
#X connect 36 0 40 0;
#X connect 37 0 39 0;
#X connect 38 0 40 1;
#X connect 39 0 36 0;
#X connect 39 1 38 0;
#X connect 40 0 41 0;
#X connect 41 0 43 0;
#X connect 42 0 15 1;
#X connect 42 1 31 0;
#X connect 43 0 42 0;
#X connect 43 1 20 0;
#X connect 44 0 20 0;
#X connect 45 0 48 0;
#X connect 46 0 48 0;
#X connect 47 0 48 0;
#X connect 49 0 48 0;
#X coords 0 0 1 1 482 158 0;
