#N canvas 52 20 1854 977 12;
#X declare -path else -lib else;
#X declare -path cyclone -lib cyclone;
#X obj 12 1080 output~;
#X obj 30 900 hradio 20 1 1 3 empty empty empty 0 -8 0 10 #e4e4e4 #4d4d4d #373737 2;
#X obj 874 84 fft-window;
#X obj 874 44 unpack f;
#X obj -109 1044 loadmess 1;
#X msg -109 1069 level \$1;
#X obj 363 84 block-control;
#X obj 363 249 s \$0-block-params;
#X obj 874 17 r \$0-block-params;
#X obj 267 308 r \$0-block-params;
#X obj 126 342 spec-son;
#X obj -216 -87 declare -path else -lib else;
#X obj -217 -60 declare -path cyclone -lib cyclone;
#X obj 777 1187 writesf~;
#X msg 748 1132 start;
#X msg 797 1132 stop;
#X msg 847 1132 print;
#X obj 748 1012 r playback-started-\$0;
#X obj 958 1092 r playback-finished-\$0;
#X obj 748 1057 t b b;
#X msg 783 1092 open tipping_out_14.wav;
#X msg 477 17 2048;
#X msg 542 17 16384;
#X msg 659 17 262144;
#X obj 477 50 s ctl-block-size;
#X obj 12 940 select~ 2, f 10;
#X msg 426 17 16;
#X obj 12 84 input-mixer;
#X msg 605 -10 131072;
#X connect 1 0 25 0;
#X connect 2 0 10 4;
#X connect 3 0 2 0;
#X connect 4 0 5 0;
#X connect 5 0 0 0;
#X connect 6 0 7 0;
#X connect 6 1 10 2;
#X connect 6 2 10 3;
#X connect 8 0 3 0;
#X connect 9 0 10 1;
#X connect 10 0 25 1;
#X connect 10 1 0 1 32.................nC...7Z+++O5....u1+++aP....;
#X connect 14 0 13 0;
#X connect 15 0 13 0;
#X connect 16 0 13 0;
#X connect 19 0 14 0;
#X connect 19 1 20 0;
#X connect 20 0 13 0;
#X connect 21 0 24 0;
#X connect 22 0 24 0;
#X connect 23 0 24 0;
#X connect 25 0 0 0;
#X connect 25 0 0 1;
#X connect 25 0 13 0;
#X connect 26 0 24 0;
#X connect 27 0 10 0;
#X connect 28 0 24 0;
#X coords 0 0 1 1 482 158 0;
