#N canvas 52 20 726 633 12;
#X declare -path else -lib else;
#X declare -path cyclone -lib cyclone;
#X obj 607 665 output~;
#X obj 512 9 fft-window;
#X obj 512 -31 unpack f;
#X obj -74 771 loadmess 1;
#X msg -74 796 level \$1;
#X obj 14 9 block-control;
#X obj -49 206 s \$0-block-params;
#X obj 512 -60 r \$0-block-params;
#X obj -47 234 r \$0-block-params;
#X obj 87 179 spec-son;
#X obj -216 -87 declare -path else -lib else;
#X obj -217 -60 declare -path cyclone -lib cyclone;
#X obj -66 171 adc~ 1;
#X obj -64 736 select~ 3, f 8;
#X obj 14 663 vradio 20 1 1 3 empty empty empty 0 -8 0 10 #e4e4e4 #4d4d4d #373737 1;
#X text 49 662 Bypass;
#X text 49 683 Processed;
#X text 49 704 Unprocessed;
#X obj 12 736 + 1;
#N canvas 0 50 1259 822 presets 1;
#X obj 11 217 cnv 15 1194 178 empty empty empty 20 12 0 14 #18b71d #373737 0;
#X obj 11 10 cnv 15 1055 178 empty empty empty 20 12 0 14 #18b71d #373737 0;
#X obj 23 97 daw_storage windowing_;
#X obj 232 97 daw_storage normalise_;
#X obj 674 97 daw_storage overlap-ratio_;
#X obj 23 156 print win-r;
#X obj 469 41 r block-size-s;
#X obj 469 124 s block-size-r;
#X obj 674 41 r overlap-ratio-s;
#X obj 674 124 s overlap-ratio-r;
#X obj 873 41 r sampling-ratio-s;
#X obj 873 124 s sampling-ratio-r;
#X obj 232 41 r norm-s;
#X obj 232 124 s norm-r;
#X obj 23 41 r win-s;
#X obj 43 124 s win-r;
#X obj 267 156 print norm-r;
#X obj 469 156 print block-size-r;
#X obj 895 153 print sampling-ratio-r;
#X obj 674 153 print overlap-ratio-r;
#X obj 45 63 print win-s;
#X obj 258 63 print norm-s;
#X obj 491 63 print block-size-s;
#X obj 694 63 print overlap-ratio-s;
#X obj 903 63 print sampling-ratio-s;
#X text 39 15 Block Control;
#X text 37 235 Magnitude;
#X obj 469 97 daw_storage block-size_;
#X obj 873 97 daw_storage sampling-ratio_;
#X obj 37 322 daw_storage mag-enable_;
#X obj 248 322 daw_storage mag-link_;
#X obj 437 322 daw_storage mag-flip_;
#X obj 614 322 daw_storage mag-exp_;
#X obj 831 322 daw_storage mag-lower_;
#X obj 1023 322 daw_storage mag-upper_;
#X obj 248 258 r mag-link-s;
#X obj 37 258 r mag-enable-s;
#X obj 437 258 r mag-flip-s;
#X obj 831 258 r mag-lower-s;
#X obj 1023 258 r mag-upper-s;
#X obj 614 258 r mag-exp-s;
#X obj 37 362 s mag-enable-r;
#X obj 248 362 s mag-link-r;
#X obj 437 362 s mag-flip-r;
#X obj 614 362 s mag-exp-r;
#X obj 831 362 s mag-lower-r;
#X obj 1023 362 s mag-upper-r;
#X obj 69 411 print mag-enable-r;
#X obj 280 411 print mag-link-r;
#X obj 469 411 print mag-flip-r;
#X obj 646 411 print mag-exp-r;
#X obj 863 411 print mag-lower-r;
#X obj 1055 411 print mag-upper-r;
#X obj 58 284 print mag-enable-s;
#X obj 269 284 print mag-link-s;
#X obj 458 284 print mag-flip-s;
#X obj 635 284 print mag-exp-s;
#X obj 852 284 print mag-lower-s;
#X obj 1044 284 print mag-upper-s;
#X obj 11 462 cnv 15 1194 178 empty empty empty 20 12 0 14 #18b71d #373737 0;
#X text 37 474 Frequency;
#X obj 37 503 r freq-enable-s;
#X obj 248 503 r freq-link-s;
#X obj 437 503 r freq-flip-s;
#X obj 614 503 r freq-exp-s;
#X obj 831 503 r freq-lower-s;
#X obj 1023 503 r freq-upper-s;
#X obj 58 529 print freq-enable-s;
#X obj 269 529 print freq-link-s;
#X obj 458 529 print freq-flip-s;
#X obj 635 529 print freq-exp-s;
#X obj 852 529 print freq-lower-s;
#X obj 1044 529 print freq-upper-s;
#X obj 37 567 daw_storage freq-enable_;
#X obj 248 567 daw_storage freq-link_;
#X obj 437 567 daw_storage freq-flip_;
#X obj 614 567 daw_storage freq-exp_;
#X obj 831 567 daw_storage freq-lower_;
#X obj 1023 567 daw_storage freq-upper_;
#X obj 37 607 s freq-enable-r;
#X obj 248 607 s freq-link-r;
#X obj 437 607 s freq-flip-r;
#X obj 614 607 s freq-exp-r;
#X obj 831 607 s freq-lower-r;
#X obj 1023 607 s freq-upper-r;
#X obj 69 656 print freq-enable-r;
#X obj 280 656 print freq-link-r;
#X obj 469 656 print freq-flip-r;
#X obj 646 656 print freq-exp-r;
#X obj 863 656 print freq-lower-r;
#X obj 1055 656 print freq-upper-r;
#X connect 2 0 5 0;
#X connect 2 0 15 0;
#X connect 3 0 13 0;
#X connect 3 0 16 0;
#X connect 4 0 9 0;
#X connect 4 0 19 0;
#X connect 6 0 22 0;
#X connect 6 0 27 0;
#X connect 8 0 23 0;
#X connect 8 0 4 0;
#X connect 10 0 24 0;
#X connect 10 0 28 0;
#X connect 12 0 21 0;
#X connect 12 0 3 0;
#X connect 14 0 20 0;
#X connect 14 0 2 0;
#X connect 27 0 7 0;
#X connect 27 0 17 0;
#X connect 28 0 11 0;
#X connect 28 0 18 0;
#X connect 29 0 41 0;
#X connect 29 0 47 0;
#X connect 30 0 42 0;
#X connect 30 0 48 0;
#X connect 31 0 43 0;
#X connect 31 0 49 0;
#X connect 32 0 44 0;
#X connect 32 0 50 0;
#X connect 33 0 45 0;
#X connect 33 0 51 0;
#X connect 34 0 46 0;
#X connect 34 0 52 0;
#X connect 35 0 54 0;
#X connect 35 0 30 0;
#X connect 36 0 53 0;
#X connect 36 0 29 0;
#X connect 37 0 55 0;
#X connect 37 0 31 0;
#X connect 38 0 57 0;
#X connect 38 0 33 0;
#X connect 39 0 58 0;
#X connect 39 0 34 0;
#X connect 40 0 56 0;
#X connect 40 0 32 0;
#X connect 61 0 67 0;
#X connect 61 0 73 0;
#X connect 62 0 68 0;
#X connect 62 0 74 0;
#X connect 63 0 69 0;
#X connect 63 0 75 0;
#X connect 64 0 70 0;
#X connect 64 0 76 0;
#X connect 65 0 71 0;
#X connect 65 0 77 0;
#X connect 66 0 72 0;
#X connect 66 0 78 0;
#X connect 73 0 79 0;
#X connect 73 0 85 0;
#X connect 74 0 80 0;
#X connect 74 0 86 0;
#X connect 75 0 81 0;
#X connect 75 0 87 0;
#X connect 76 0 82 0;
#X connect 76 0 88 0;
#X connect 77 0 83 0;
#X connect 77 0 89 0;
#X connect 78 0 84 0;
#X connect 78 0 90 0;
#X restore 741 9 pd presets;
#X connect 1 0 9 4;
#X connect 2 0 1 0;
#X connect 3 0 4 0;
#X connect 4 0 0 0;
#X connect 5 0 6 0;
#X connect 5 1 9 2;
#X connect 5 2 9 3;
#X connect 7 0 2 0;
#X connect 8 0 9 1;
#X connect 9 0 13 1;
#X connect 9 1 13 2;
#X connect 12 0 13 0;
#X connect 12 0 9 0;
#X connect 13 0 0 0;
#X connect 14 0 18 0;
#X connect 18 0 13 0;
#X coords 0 0 1 1 482 158 0;
