#N canvas 52 20 1854 977 12;
#X declare -path else -lib else;
#X declare -path cyclone -lib cyclone;
#X obj 12 1080 output~;
#X obj 30 900 hradio 20 1 1 3 empty empty empty 0 -8 0 10 #e4e4e4 #4d4d4d #373737 2;
#X obj 874 84 fft-window;
#X obj 874 44 unpack f;
#X obj -109 1044 loadmess 1;
#X msg -109 1069 level \$1;
#X obj 363 84 block-control;
#X obj 363 249 s \$0-block-params;
#X obj 874 17 r \$0-block-params;
#X obj 270 320 r \$0-block-params;
#X obj 126 342 spec-son;
#X obj -216 -87 declare -path else -lib else;
#X obj -217 -60 declare -path cyclone -lib cyclone;
#X obj 777 1187 writesf~;
#X msg 748 1132 start;
#X msg 797 1132 stop;
#X msg 847 1132 print;
#X obj 748 1012 r playback-started-\$0;
#X obj 958 1092 r playback-finished-\$0;
#X obj 748 1057 t b b;
#X msg 783 1092 open tipping_out_14.wav;
#X msg 477 17 2048;
#X msg 542 17 16384;
#X msg 613 17 262144;
#X obj 477 50 s ctl-block-size;
#N canvas 0 50 450 300 input-mixer 1;
#X obj 357 674 else/mix4~;
#X obj 564 684 gain~ 1 0 20 0 1;
#A saved;
#X obj 615 655 meter~;
#X obj 407 600 noise~;
#X obj 357 296 loadbang;
#X obj 400 407 soundfiler;
#X obj 357 323 t b b;
#X obj 312 296 bng 25 250 50 0 empty empty empty 17 7 0 10 #e4e4e4 #4d4d4d #373737;
#X obj 400 433 bng 19 250 50 0 empty empty empty 17 7 0 10 #e4e4e4 #4d4d4d #373737;
#X obj 32 364 openpanel;
#X obj 32 296 bng 25 250 50 0 empty empty empty 17 7 0 10 #e4e4e4 #4d4d4d #373737;
#X obj 32 330 t b b;
#X obj 32 407 list;
#X msg 32 439 read -resize \$1 \$2;
#X obj 32 469 t b a;
#N canvas 0 0 450 250 (subpatch) 0;
#X array \$0-sound-file-1 5.33413e+07 float 2;
#X coords 0 1 5.33413e+07 -1 200 140 1;
#X restore 312 120 graph;
#N canvas 0 0 450 250 (subpatch) 0;
#X array \$0-sound-file-2 1.93662e+08 float 2;
#X coords 0 1 1.93662e+08 -1 200 140 1;
#X restore 689 120 graph;
#X obj 400 353 symbol \$0-sound-file-1;
#X msg 1164 353 read -resize nuclear-holocaust-48k.wav \$1;
#X obj 357 463 tabplayer~ -loop \$0-sound-file-1;
#X obj 734 296 loadbang;
#X obj 777 407 soundfiler;
#X obj 734 323 t b b;
#X obj 689 296 bng 25 250 50 0 empty empty empty 17 7 0 10 #e4e4e4 #4d4d4d #373737;
#X obj 777 433 bng 19 250 50 0 empty empty empty 17 7 0 10 #e4e4e4 #4d4d4d #373737;
#X msg 777 382 read -resize crab-salts-48k.wav \$1;
#X obj 734 463 tabplayer~ -loop \$0-sound-file-2;
#X obj 777 353 symbol \$0-sound-file-2;
#X msg 545 849 gain \$1, f 8;
#X obj 549 812 nbx 5 18 0 3 0 1 empty empty empty 0 -8 0 10 #dcdcdc #000000 #000000 1 256;
#X text 545 788 max gain;
#X text 551 654 Master;
#X obj 115 364 symbol \$0-sound-file-1;
#X obj 458 600 adc~;
#X obj 615 869 outlet~;
#X obj 520 600 loadbang;
#X text 400 654 Noise;
#X text 451 654 Mic;
#X text 357 654 File 1;
#X text 494 654 File 2;
#X obj 173 684 r ctl-mix-gain;
#X msg 173 741 gain1 \$1;
#X obj 262 808 -;
#X obj 262 741 t b f, f 6;
#X msg 264 773 1;
#X msg 262 842 gain4 \$1;
#X msg 400 382 read -resize tipping_points_48k.wav \$1;
#X msg 588 600 set 1;
#X connect 0 0 1 0;
#X connect 1 0 2 0;
#X connect 2 0 34 0;
#X connect 3 0 0 1;
#X connect 4 0 6 0;
#X connect 5 0 8 0;
#X connect 6 0 19 0;
#X connect 6 1 17 0;
#X connect 7 0 6 0;
#X connect 9 0 12 0;
#X connect 10 0 11 0;
#X connect 11 0 9 0;
#X connect 11 1 32 0;
#X connect 12 0 13 0;
#X connect 13 0 14 0;
#X connect 14 0 19 0;
#X connect 14 1 5 0;
#X connect 17 0 46 0;
#X connect 19 0 0 0;
#X connect 20 0 22 0;
#X connect 21 0 24 0;
#X connect 22 0 26 0;
#X connect 22 1 27 0;
#X connect 23 0 22 0;
#X connect 25 0 21 0;
#X connect 26 0 0 3;
#X connect 27 0 25 0;
#X connect 28 0 1 0;
#X connect 29 0 28 0;
#X connect 32 0 12 1;
#X connect 33 0 0 2;
#X connect 35 0 29 0;
#X connect 35 0 47 0;
#X connect 40 0 41 0;
#X connect 40 0 43 0;
#X connect 41 0 0 0;
#X connect 42 0 45 0;
#X connect 43 0 44 0;
#X connect 43 1 42 1;
#X connect 44 0 42 0;
#X connect 45 0 0 0;
#X connect 46 0 5 0;
#X connect 47 0 1 0;
#X coords 0 0 1 1 321 187 2 350 646;
#X restore 17 84 pd input-mixer;
#X obj 12 940 select~ 2, f 10;
#N canvas 0 50 450 300 compressor 0;
#X msg 287 280 thresh \$1;
#X floatatom 287 253 5 0 0 0 - - - 12;
#X obj 311 185 knob 50 -100 -0.001 0.25 -10 empty empty #E4E4E4 #B7B7B7 #4D4D4D 1 0 0 0 1 270 0 0 -0.001 empty empty 0 12 6 -15 0 1 0 0;
#X obj 73 142 compress~;
#X obj 43 48 inlet~;
#X obj 43 314 outlet~;
#X floatatom 376 253 5 0 0 0 - - - 12;
#X obj 376 185 knob 50 1 100 0.25 1 empty empty #E4E4E4 #B7B7B7 #4D4D4D 1 0 0 0 1 270 0 0 1 empty empty 0 12 6 -15 0 1 0 0;
#X msg 376 280 ratio \$1;
#X obj 276 166 vsl 18 66 -100 0 0 0 empty empty empty 0 -9 0 10 #dcdcdc #000000 #000000 0 1;
#X floatatom 441 253 5 0 0 0 - - - 12;
#X obj 441 185 knob 50 1e-06 100 0.5 1 empty empty #E4E4E4 #B7B7B7 #4D4D4D 1 0 0 0 1 270 0 0 1 empty empty 0 12 6 -15 0 1 0 0;
#X msg 441 280 attack \$1;
#X floatatom 518 253 5 0 0 0 - - - 12;
#X obj 506 185 knob 50 1e-06 500 1 1 empty empty #E4E4E4 #B7B7B7 #4D4D4D 1 0 0 0 1 270 0 0 1 empty empty 0 12 6 -15 0 1 0 0;
#X msg 518 280 release \$1;
#X obj 485 48 loadbang;
#X msg 441 99 10;
#X msg 376 99 4;
#X msg 311 99 -10;
#X floatatom 606 253 5 0 0 0 - - - 12;
#X obj 572 185 knob 50 0 36 0 1 empty empty #E4E4E4 #B7B7B7 #4D4D4D 1 0 0 0 1 270 0 0 1 empty empty 0 12 6 -15 0 1 0 0;
#X msg 606 280 gain \$1;
#X msg 572 99 0;
#X text 302 164 Threshold;
#X text 382 164 Ratio;
#X text 441 164 Attack;
#X text 506 164 Release;
#X text 580 164 Gain;
#X obj 43 205 select~;
#X obj 629 197 tgl 25 0 empty empty empty 17 7 0 10 #e4e4e4 #4d4d4d #373737 0 1;
#X obj 3 175 + 1;
#X msg -21 99 0;
#X connect 0 0 3 0;
#X connect 1 0 0 0;
#X connect 2 0 1 0;
#X connect 3 0 29 1;
#X connect 3 1 9 0;
#X connect 4 0 3 0;
#X connect 4 0 29 0;
#X connect 6 0 8 0;
#X connect 7 0 6 0;
#X connect 8 0 3 0;
#X connect 10 0 12 0;
#X connect 11 0 10 0;
#X connect 12 0 3 0;
#X connect 13 0 15 0;
#X connect 14 0 13 0;
#X connect 15 0 3 0;
#X connect 16 0 18 0;
#X connect 16 0 19 0;
#X connect 16 0 17 0;
#X connect 16 0 23 0;
#X connect 16 0 32 0;
#X connect 17 0 11 0;
#X connect 17 0 14 0;
#X connect 18 0 7 0;
#X connect 19 0 2 0;
#X connect 20 0 22 0;
#X connect 21 0 20 0;
#X connect 22 0 3 0;
#X connect 23 0 21 0;
#X connect 29 0 5 0;
#X connect 30 0 31 0 48.................G....LB...vA....i....zy++++i8+++87++++X+++uz++++;
#X connect 31 0 29 0;
#X connect 32 0 31 0;
#X coords 0 0 1 1 398 84 2 266 157;
#X restore 153 859 pd compressor;
#X msg 426 17 16;
#X connect 1 0 26 0;
#X connect 2 0 10 4;
#X connect 3 0 2 0;
#X connect 4 0 5 0;
#X connect 5 0 0 0;
#X connect 6 0 7 0;
#X connect 6 1 10 2;
#X connect 6 2 10 3;
#X connect 8 0 3 0;
#X connect 9 0 10 1;
#X connect 10 0 26 1;
#X connect 10 1 0 1 32.................nC...7Z+++O5....u1+++aP....;
#X connect 14 0 13 0;
#X connect 15 0 13 0;
#X connect 16 0 13 0;
#X connect 19 0 14 0;
#X connect 19 1 20 0;
#X connect 20 0 13 0;
#X connect 21 0 24 0;
#X connect 22 0 24 0;
#X connect 23 0 24 0;
#X connect 25 0 10 0;
#X connect 25 0 26 0;
#X connect 26 0 0 0;
#X connect 26 0 0 1;
#X connect 26 0 13 0;
#X connect 28 0 24 0;
#X coords 0 0 1 1 482 158 0;
