#N canvas 52 20 1854 977 12;
#X declare -path else -lib else;
#X declare -path cyclone -lib cyclone;
#X obj 99 1060 output~;
#X obj 7 915 hradio 20 1 1 4 empty empty empty 0 -8 0 10 #e4e4e4 #4d4d4d #373737 2;
#X obj 99 949 select~ 3, f 18;
#X obj 99 221 adc~, f 6;
#X obj 958 74 fft-window;
#X obj 958 34 unpack f;
#X obj -10 1060 loadmess 1;
#X msg -10 1085 level \$1;
#X obj 449 74 block-control;
#X obj 449 239 s \$0-block-params;
#X obj 958 7 r \$0-block-params;
#X obj 390 341 r \$0-block-params;
#X obj 303 221 noise~;
#X obj -35 221 hradio 20 1 1 5 empty empty empty 0 -8 0 10 #e4e4e4 #4d4d4d #373737 2;
#X obj 373 221 osc~ 220;
#X obj 99 256 select~ 4, f 46;
#X obj 250 390 spec-son;
#N canvas 0 0 450 250 (subpatch) 0;
#X array \$0-sound-file 4.88706e+07 float 2;
#X coords 0 1 4.88706e+07 -1 200 140 1;
#X restore -347 0 graph;
#X obj 201 57 symbol \$0-sound-file;
#X msg 201 86 read -resize tipping_points.wav \$1;
#X obj 158 0 loadbang;
#X obj 201 111 soundfiler;
#X obj 158 27 t b b;
#X obj 113 0 bng 25 250 50 0 empty empty empty 17 7 0 10 #e4e4e4 #4d4d4d #373737;
#X obj -216 -87 declare -path else -lib else;
#X obj -217 -60 declare -path cyclone -lib cyclone;
#X obj 512 1099 writesf~;
#X msg 483 1044 start;
#X msg 532 1044 stop;
#X msg 582 1044 print;
#X obj 201 137 bng 19 250 50 0 empty empty empty 17 7 0 10 #e4e4e4 #4d4d4d #373737;
#X obj 229 137 s playback-started-\$0;
#X obj 274 193 s playback-finished-\$0;
#X obj 483 883 r playback-started-\$0;
#X obj 658 998 r playback-finished-\$0;
#X obj 483 964 t b b;
#X obj 158 167 tabplayer~ -speed 100 \$0-sound-file;
#X msg 483 998 open tipping_out_16.wav;
#X connect 1 0 2 0;
#X connect 2 0 0 0;
#X connect 2 0 0 1;
#X connect 2 0 26 0;
#X connect 3 0 15 0;
#X connect 4 0 16 4;
#X connect 5 0 4 0;
#X connect 6 0 7 0;
#X connect 7 0 0 0;
#X connect 8 0 9 0;
#X connect 8 1 16 2;
#X connect 8 2 16 3;
#X connect 10 0 5 0;
#X connect 11 0 16 1;
#X connect 12 0 15 2;
#X connect 13 0 15 0;
#X connect 14 0 15 3;
#X connect 15 0 2 0;
#X connect 15 0 16 0;
#X connect 16 0 2 1;
#X connect 16 1 0 1;
#X connect 18 0 19 0;
#X connect 19 0 21 0;
#X connect 20 0 22 0;
#X connect 21 0 30 0;
#X connect 22 0 36 0;
#X connect 22 1 18 0;
#X connect 23 0 22 0;
#X connect 27 0 26 0;
#X connect 28 0 26 0;
#X connect 29 0 26 0;
#X connect 30 0 31 0;
#X connect 33 0 35 0;
#X connect 34 0 28 0;
#X connect 35 0 27 0;
#X connect 35 1 37 0;
#X connect 36 0 15 1;
#X connect 36 1 32 0;
#X connect 37 0 26 0;
#X coords 0 0 1 1 482 158 0;
