#N canvas 52 20 726 633 12;
#X declare -path else -lib else;
#X declare -path cyclone -lib cyclone;
#X obj 607 665 output~;
#X obj 512 9 fft-window;
#X obj 512 -31 unpack f;
#X obj -74 771 loadmess 1;
#X msg -74 796 level \$1;
#X obj 14 9 block-control;
#X obj -49 206 s \$0-block-params;
#X obj 512 -60 r \$0-block-params;
#X obj -47 234 r \$0-block-params;
#X obj 82 178 spec-son;
#X obj -216 -87 declare -path else -lib else;
#X obj -217 -60 declare -path cyclone -lib cyclone;
#X obj -66 171 adc~ 1;
#X obj -64 736 select~ 3, f 8;
#X obj 14 663 vradio 20 1 1 3 empty empty empty 0 -8 0 10 #e4e4e4 #4d4d4d #373737 1;
#X text 49 662 Bypass;
#X text 49 683 Processed;
#X text 49 704 Unprocessed;
#X obj 12 736 + 1;
#X connect 1 0 9 4;
#X connect 2 0 1 0;
#X connect 3 0 4 0;
#X connect 4 0 0 0;
#X connect 5 0 6 0;
#X connect 5 1 9 2;
#X connect 5 2 9 3;
#X connect 7 0 2 0;
#X connect 8 0 9 1;
#X connect 9 0 13 1;
#X connect 9 1 13 2;
#X connect 12 0 13 0;
#X connect 12 0 9 0;
#X connect 13 0 0 0;
#X connect 14 0 18 0;
#X connect 18 0 13 0;
#X coords 0 0 1 1 482 158 0;
