#N canvas 827 239 513 310 12;
#X obj 903 265 range-knob;
#X obj 161 645 cnv 15 493 380 empty empty empty 20 12 0 14 #af7bb7 #373737 0;
#X obj 40 144 inlet~;
#X obj 10 537 outlet~;
#X obj 40 234 car2pol~, f 11;
#X obj 40 419 pol2car~, f 11;
#X obj 40 186 snake~ out, f 11;
#X obj 40 459 snake~, f 10;
#X obj 10 493 select~;
#X obj 1022 459 tgl 25 0 empty empty empty 17 7 0 10 #e4e4e4 #4d4d4d #373737 0 1;
#X obj -201 455 + 1, f 5;
#X floatatom -201 480 7 0 0 0 - - - 16;
#X obj 40 386 *~;
#X text 130 215 Current sample (i.e. frequency bin) greater than (or less than) threshold parameter, f 35;
#X obj 130 278 fexpr~ ($f2 <= $x1) && ($x1 <= $f3);
#X text 964 461 Enabled:;
#X text 909 236 Magnitude Threshold;
#X obj 1089 77 inlet;
#X obj -201 419 loadbang;
#X obj 369 706 range~, f 19;
#X obj 328 700 bng 25 250 50 0 empty empty empty 17 7 0 10 #e4e4e4 #4d4d4d #373737;
#X obj 369 788 snapshot~;
#X obj 481 788 snapshot~;
#X floatatom 369 814 6 0 0 0 - - - 16;
#X floatatom 481 814 4 0 0 0 - - - 16;
#X obj 1343 77 inlet;
#X obj 1343 103 s \$0-block-params;
#X obj 328 651 r \$0-block-params;
#X obj 369 849 print min;
#X obj 481 849 print max;
#X obj 288 788 metro 1000;
#X msg 224 815 stop;
#X msg 224 788 bang;
#X obj 612 206 r \$0-block-params;
#X text 179 922 Magnitude doesn't exceed fft size when no windowing is used \, and isn't affected by the overlap ratio.;
#X obj 612 232 unpack f;
#X obj 612 354 *;
#X obj 659 354 *;
#X obj 612 305 t b f;
#X text 179 974 Magnitude doesn't exceed (fft size)/2 when windowing is used;
#X obj 1482 77 inlet;
#X obj 1482 103 s \$0-windowing;
#X obj 712 232 r \$0-windowing;
#X obj 712 260 + 1;
#X obj 612 262 /;
#X text 757 259 i.e. divide by two if windowing is ON, f 16;
#X obj 712 287 t b f;
#X floatatom 909 433 5 0 0 0 - - - 12;
#X floatatom 1004 433 5 0 0 0 - - - 12;
#X text 179 880 Used to get an approximate measure of the maximum magnitudes output by the fft analysis.;
#X text 565 173 Blocksize is maximum possible magnitude;
#X obj 130 386 select~, f 8;
#X obj 915 394 tgl 25 0 empty empty empty 17 7 0 10 #e4e4e4 #4d4d4d #373737 0 1;
#X obj -201 308 + 1, f 5;
#X floatatom -201 333 7 0 0 0 - - - 16;
#X obj -201 280 loadbang;
#X obj 235 333 -~;
#X obj 179 333 sig~ 1;
#X obj 659 407 t f f;
#X obj 565 419 t f f;
#X obj 828 77 inlet;
#X obj 757 77 r ctl-mag;
#X text 819 55 Lower;
#X obj 953 77 inlet;
#X text 953 55 Upper;
#X text 1089 55 Exp;
#X obj 1177 77 inlet;
#X text 1177 55 Link;
#X obj 853 103 r mag-lower-r;
#X obj 975 103 r mag-upper-r;
#X obj 1191 103 r mag-link-r;
#X obj 1107 386 r mag-flip-r;
#X obj 1107 420 s mag-flip-s;
#X obj 778 619 s mag-lower-s;
#X obj 505 328 r mag-lower-s, f 13;
#X obj 890 619 s mag-upper-s;
#X obj 699 328 r mag-upper-s;
#X obj 1004 619 s mag-exp-s;
#X obj 1107 619 s mag-link-s;
#X obj 1107 447 r mag-enable-r;
#X obj 1107 480 s mag-enable-s;
#X obj -123 419 r mag-enable-s;
#X obj -123 280 r mag-flip-s;
#X obj 1004 589 log 2;
#X connect 0 0 73 0;
#X connect 0 1 75 0;
#X connect 0 2 83 0;
#X connect 0 3 78 0;
#X connect 2 0 6 0;
#X connect 2 0 8 0 32.................K.....7++++B.....++++2P....;
#X connect 4 0 12 0;
#X connect 4 0 14 0;
#X connect 4 1 5 1;
#X connect 5 0 7 0;
#X connect 5 1 7 1;
#X connect 6 0 4 0;
#X connect 6 1 4 1;
#X connect 7 0 8 1;
#X connect 8 0 3 0;
#X connect 9 0 80 0;
#X connect 10 0 11 0;
#X connect 11 0 8 0;
#X connect 12 0 5 0;
#X connect 14 0 51 0;
#X connect 14 0 56 1;
#X connect 17 0 0 2;
#X connect 18 0 10 0;
#X connect 19 0 21 0;
#X connect 19 1 22 0;
#X connect 20 0 19 0;
#X connect 20 0 30 0;
#X connect 21 0 23 0;
#X connect 22 0 24 0;
#X connect 23 0 28 0;
#X connect 24 0 29 0;
#X connect 25 0 26 0;
#X connect 30 0 21 0;
#X connect 30 0 22 0;
#X connect 31 0 30 0;
#X connect 32 0 30 0;
#X connect 33 0 35 0;
#X connect 35 0 44 0;
#X connect 36 0 59 0;
#X connect 37 0 58 0;
#X connect 38 0 37 0;
#X connect 38 0 36 0;
#X connect 38 1 37 1;
#X connect 38 1 36 1;
#X connect 40 0 41 0;
#X connect 42 0 43 0;
#X connect 43 0 46 0;
#X connect 44 0 38 0;
#X connect 46 0 44 0;
#X connect 46 1 44 1;
#X connect 51 0 12 1;
#X connect 52 0 72 0;
#X connect 53 0 54 0;
#X connect 54 0 51 0 32.................P....HU....D....RE...7A....;
#X connect 55 0 53 0;
#X connect 56 0 51 1;
#X connect 57 0 56 0;
#X connect 58 0 14 2;
#X connect 58 1 48 0;
#X connect 59 0 14 1;
#X connect 59 1 47 0;
#X connect 60 0 0 0;
#X connect 61 0 0 0;
#X connect 63 0 0 1;
#X connect 66 0 0 3;
#X connect 68 0 0 0;
#X connect 69 0 0 1;
#X connect 70 0 0 3;
#X connect 71 0 52 0;
#X connect 74 0 36 0;
#X connect 76 0 37 0;
#X connect 79 0 9 0;
#X connect 81 0 10 0;
#X connect 82 0 53 0;
#X connect 83 0 77 0;
#X coords 0 0 1 1 151 260 2 899 229;
