#N canvas 827 239 527 327 12;
#X obj 661 -172 cnv 15 355 133 empty empty empty 20 12 0 14 #8bb78b #373737 0;
#X obj 899 140 range-knob;
#X obj 157 520 cnv 15 493 380 empty empty empty 20 12 0 14 #af7bb7 #373737 0;
#X obj 36 19 inlet~;
#X obj 6 412 outlet~;
#X obj 36 109 car2pol~, f 11;
#X obj 36 294 pol2car~, f 11;
#X obj 36 61 snake~ out, f 11;
#X obj 36 334 snake~, f 10;
#X obj 6 368 select~;
#X obj 1018 334 tgl 25 0 \$0-enabled-s \$0-enabled-r empty 17 7 0 10 #e4e4e4 #4d4d4d #373737 0 1;
#X obj 1057 376 + 1, f 5;
#X floatatom 1057 401 7 0 0 0 - - - 16;
#X obj 36 261 *~;
#X text 126 90 Current sample (i.e. frequency bin) greater than (or less than) threshold parameter, f 35;
#X obj 126 153 fexpr~ ($f2 <= $x1) && ($x1 <= $f3);
#X text 960 336 Enabled:;
#X text 905 111 Magnitude Threshold;
#X obj 1019 40 inlet;
#X text 1019 18 Exponential for knobs;
#X obj 1057 340 loadbang;
#X obj 365 581 range~, f 19;
#X obj 324 575 bng 25 250 50 0 empty empty empty 17 7 0 10 #e4e4e4 #4d4d4d #373737;
#X obj 365 663 snapshot~;
#X obj 477 663 snapshot~;
#X floatatom 365 689 6 0 0 0 - - - 16;
#X floatatom 477 689 4 0 0 0 - - - 16;
#X obj 1214 40 inlet;
#X obj 1214 83 s \$0-block-params;
#X obj 324 526 r \$0-block-params;
#X obj 365 724 print min;
#X obj 477 724 print max;
#X obj 284 663 metro 1000;
#X msg 220 690 stop;
#X msg 220 663 bang;
#X obj 561 79 r \$0-block-params;
#X text 175 797 Magnitude doesn't exceed fft size when no windowing is used \, and isn't affected by the overlap ratio.;
#X obj 561 105 unpack f;
#X obj 561 227 *;
#X obj 608 227 *;
#X obj 561 178 t b f;
#X text 175 849 Magnitude doesn't exceed (fft size)/2 when windowing is used;
#X obj 1432 40 inlet;
#X obj 1432 83 s \$0-windowing;
#X obj 661 105 r \$0-windowing;
#X obj 661 133 + 1;
#X obj 561 135 /;
#X text 706 132 i.e. divide by two if windowing is ON, f 16;
#X obj 661 160 t b f;
#X floatatom 905 308 5 0 0 0 - - - 12;
#X floatatom 1000 308 5 0 0 0 - - - 12;
#X text 175 755 Used to get an approximate measure of the maximum magnitudes output by the fft analysis.;
#X text 561 55 Blocksize is maximum possible magnitude;
#X obj 126 261 select~, f 8;
#X obj 911 262 tgl 25 0 \$0-flip-s \$0-flip-r empty 17 7 0 10 #e4e4e4 #4d4d4d #373737 0 1;
#X obj 1057 269 + 1, f 5;
#X floatatom 1057 294 7 0 0 0 - - - 16;
#X obj 1057 241 loadbang;
#X obj 231 208 -~;
#X obj 175 208 sig~ 1;
#X obj 608 262 t f f;
#X obj 561 276 t f f;
#X obj 899 40 inlet;
#X text 880 18 Lowest magnitude;
#X obj 819 40 r ctl-mag;
#X obj 675 -108 daw_storage \$0-enabled_;
#X obj 675 -141 r \$0-enabled-s;
#X obj 675 -77 s \$0-enabled-r;
#X obj 867 -141 r \$0-flip-s;
#X obj 867 -108 daw_storage \$0-flip_;
#X obj 867 -77 s \$0-flip-r;
#X text 776 -167 Preset management;
#X connect 1 0 38 0;
#X connect 1 1 39 0;
#X connect 3 0 7 0;
#X connect 3 0 9 0 32.................K.....7++++B.....++++2P....;
#X connect 5 0 13 0;
#X connect 5 0 15 0;
#X connect 5 1 6 1;
#X connect 6 0 8 0;
#X connect 6 1 8 1;
#X connect 7 0 5 0;
#X connect 7 1 5 1;
#X connect 8 0 9 1;
#X connect 9 0 4 0;
#X connect 10 0 11 0;
#X connect 11 0 12 0;
#X connect 12 0 9 0;
#X connect 13 0 6 0;
#X connect 15 0 53 0;
#X connect 15 0 58 1;
#X connect 18 0 1 1;
#X connect 20 0 11 0;
#X connect 21 0 23 0;
#X connect 21 1 24 0;
#X connect 22 0 21 0;
#X connect 22 0 32 0;
#X connect 23 0 25 0;
#X connect 24 0 26 0;
#X connect 25 0 30 0;
#X connect 26 0 31 0;
#X connect 27 0 28 0;
#X connect 32 0 23 0;
#X connect 32 0 24 0;
#X connect 33 0 32 0;
#X connect 34 0 32 0;
#X connect 35 0 37 0;
#X connect 37 0 46 0;
#X connect 38 0 61 0;
#X connect 39 0 60 0;
#X connect 40 0 39 0;
#X connect 40 0 38 0;
#X connect 40 1 39 1;
#X connect 40 1 38 1;
#X connect 42 0 43 0;
#X connect 44 0 45 0;
#X connect 45 0 48 0;
#X connect 46 0 40 0;
#X connect 48 0 46 0;
#X connect 48 1 46 1;
#X connect 53 0 13 1;
#X connect 54 0 55 0;
#X connect 55 0 56 0;
#X connect 56 0 53 0 48.................P....HJ+++OD....hx+++y6+++uW7+++79+++6E+++ux++++;
#X connect 57 0 55 0;
#X connect 58 0 53 1;
#X connect 59 0 58 0;
#X connect 60 0 15 2;
#X connect 60 1 50 0;
#X connect 61 0 15 1;
#X connect 61 1 49 0;
#X connect 62 0 1 0;
#X connect 64 0 1 0;
#X connect 65 0 67 0;
#X connect 66 0 65 0;
#X connect 68 0 69 0;
#X connect 69 0 70 0;
#X coords 0 0 1 1 149 254 2 896 109;
