#N canvas 827 239 734 565 12;
#X declare -path else -lib else;
#X declare -path cyclone -lib cyclone;
#X obj 987 675 scope~ 200 100 256 3 128 0 1 0 0 0 0 77 77 77 228 228 228 183 183 183 0 empty;
#X obj 838 774 snapshot~;
#X floatatom 838 818 5 0 0 0 - - - 12;
#X obj 838 682 +~ 1;
#X obj 838 728 /~ 2;
#X text 687 674 Normalise to between 0 and 1, f 17;
#X obj 836 442 osc~;
#X floatatom 836 201 5 0 0 0 - - - 12;
#X obj 893 234 *~;
#X obj 836 294 +~;
#X obj 893 351 *~;
#X obj 836 409 +~;
#X obj 904 201 r~ osc-1;
#X obj 904 319 r~ osc-2;
#X obj 836 479 s~ osc-3;
#X obj 893 267 *~;
#X obj 975 201 knob 50 0 1 0 1 empty empty #E4E4E4 #B7B7B7 #4D4D4D 1 0 0 0 1 270 0 0 0 empty empty 0 12 6 -15 0 1 0 0;
#X obj 893 385 *~;
#X obj 259 442 osc~;
#X floatatom 259 201 5 0 0 0 - - - 12;
#X obj 316 234 *~;
#X obj 259 294 +~;
#X obj 316 351 *~;
#X obj 259 409 +~;
#X obj 316 276 *~;
#X obj 398 201 knob 50 0 1 0 1 empty empty #E4E4E4 #B7B7B7 #4D4D4D 1 0 0 0 1 270 0 0 0 empty empty 0 12 6 -15 0 1 0 0;
#X obj 316 385 *~;
#X obj 552 450 osc~;
#X floatatom 552 201 5 0 0 0 - - - 12;
#X obj 609 234 *~;
#X obj 552 294 +~;
#X obj 609 351 *~;
#X obj 552 409 +~;
#X obj 620 201 r~ osc-1;
#X obj 609 267 *~;
#X obj 691 201 knob 50 0 1 0 1 empty empty #E4E4E4 #B7B7B7 #4D4D4D 1 0 0 0 1 270 0 0 0 empty empty 0 12 6 -15 0 1 0 0;
#X obj 609 385 *~;
#X obj 327 201 r~ osc-2;
#X obj 327 319 r~ osc-3;
#X obj 259 479 s~ osc-1;
#X obj 620 319 r~ osc-3;
#X obj 552 485 s~ osc-2;
#X obj 398 40 knob 50 0 1 0 1 empty empty #E4E4E4 #B7B7B7 #4D4D4D 1 0 0 0 1 270 0 0 0 empty empty 0 12 6 -15 0 1 0 0;
#X obj 838 1240 s ctl-mag;
#X obj 1147 1240 s ctl-phase;
#X obj 838 983 knob 50 0 1 3 0 empty empty #E4E4E4 #B7B7B7 #4D4D4D 1 0 0 0 1 360 0 0 0 empty empty 0 12 6 -15 0 1 0 0;
#X msg 1149 1094 1;
#X obj 1147 1120 -, f 7;
#X floatatom 838 1211 10 0 0 0 - - - 16;
#X obj 838 1085 *;
#X obj 546 1198 t b f;
#X floatatom 1147 1026 5 0 0 0 - - - 12;
#X obj 493 967 knob 50 2 18 0 2 empty empty #E4E4E4 #B7B7B7 #4D4D4D 1 0 17 1 1 270 0 0 2 empty empty 0 12 6 -15 0 1 1 0;
#X floatatom 496 1033 5 0 0 0 - - - 12;
#X obj 496 1240 s ctl-block-size;
#X obj 102 71 loadbang;
#X msg 259 172 0.098;
#X msg 552 172 0.958;
#X msg 836 172 3.486;
#X obj 1147 1171 selector, f 23;
#X obj 1147 1059 t b f f;
#X obj 1293 1120 hradio 20 1 0 2 empty empty empty 0 -8 0 10 #e4e4e4 #4d4d4d #373737 0;
#X floatatom 1147 1207 5 0 0 0 - - - 12;
#X floatatom 838 1047 5 0 0 0 - - - 12;
#X floatatom 838 1129 9 0 0 0 - - - 16;
#X obj 1147 995 pow 0.33;
#X obj 838 1177 pow 1.5;
#X msg 194 172 0.002;
#X msg 779 172 0.019;
#X floatatom 329 546 14 0 0 0 - - - 12;
#X obj 329 485 knob 50 -1 1 0 0 empty empty #E4E4E4 #B7B7B7 #4D4D4D 1 0 0 0 1 270 0 0 0 empty empty 0 12 6 -15 0 1 0 0;
#X obj 329 456 snapshot~;
#X obj 329 423 r metro-\$0;
#X obj 16 137 bng 25 250 50 0 empty empty empty 17 7 0 10 #e4e4e4 #4d4d4d #373737;
#X msg 48 137 stop;
#X obj 16 174 metro 100;
#X obj 16 201 s metro-\$0;
#X floatatom 628 546 14 0 0 0 - - - 12;
#X obj 628 485 knob 50 -1 1 0 0 empty empty #E4E4E4 #B7B7B7 #4D4D4D 1 0 0 0 1 270 0 0 0 empty empty 0 12 6 -15 0 1 0 0;
#X obj 628 456 snapshot~;
#X obj 628 423 r metro-\$0;
#X floatatom 927 546 14 0 0 0 - - - 12;
#X obj 927 485 knob 50 -1 1 0 0 empty empty #E4E4E4 #B7B7B7 #4D4D4D 1 0 0 0 1 270 0 0 0 empty empty 0 12 6 -15 0 1 0 0;
#X obj 927 456 snapshot~;
#X obj 927 423 r metro-\$0;
#X obj 745 774 r metro-\$0;
#X obj 414 1030 pow;
#X msg 415 1001 2;
#X obj 414 967 t b f;
#X floatatom 414 1060 6 0 0 0 - - - 16;
#N canvas 0 0 450 250 (subpatch) 0;
#X array block-size-mult-\$0 18 float 3;
#A 0 0 0.514286 0.378571 0.328571 0.3 0.271429 0.25 0.221429 0.192857 0.164286 0.137647 0.112941 0.0917647 0.078 0.055 0.05 0.035 0.03;
#X coords 0 0.6 18 0 200 170 1;
#X restore 160 967 graph;
#X obj 546 1135 tabread block-size-mult-\$0;
#X floatatom 546 1164 9 0 0 0 - - - 16;
#X obj 546 1105 - 1;
#X msg 142 172 0.091;
#X msg 455 172 0.122;
#X msg 500 172 0.04;
#X obj 16 13 declare -path else -lib else;
#X obj 16 40 declare -path cyclone -lib cyclone;
#N canvas 0 50 450 300 rand-block-size 1;
#X floatatom 188 116 5 0 0 0 - - - 12;
#X obj 28 82 r metro-\$0;
#X obj 188 82 snapshot~;
#X obj 188 47 change~;
#X obj 188 143 change;
#X floatatom 188 173 5 0 0 0 - - - 12;
#X obj 188 284 + 11;
#X obj 188 251 random 6;
#X obj 188 215 bng 25 250 50 0 empty empty empty 17 7 0 10 #e4e4e4 #4d4d4d #373737;
#X floatatom 188 314 5 0 0 0 - - - 12;
#X obj 188 7 inlet~;
#X obj 188 359 outlet;
#X text 241 358 Output random integer between 11 and 16 inclusive whenever the input signal changes direction;
#X text 241 6 Signal in which to detect change of direction;
#X obj 95 215 loadbang;
#X obj 111 82 count 50;
#X connect 0 0 4 0;
#X connect 1 0 15 0;
#X connect 2 0 0 0;
#X connect 3 0 2 0;
#X connect 4 0 5 0;
#X connect 5 0 8 0;
#X connect 6 0 9 0;
#X connect 7 0 6 0;
#X connect 8 0 7 0;
#X connect 9 0 11 0;
#X connect 10 0 3 0;
#X connect 14 0 7 0;
#X connect 15 1 2 0;
#X restore 496 774 pd rand-block-size;
#X obj 493 905 loadbang;
#X msg 493 935 16;
#X connect 1 0 2 0;
#X connect 2 0 45 0;
#X connect 3 0 4 0;
#X connect 4 0 1 0;
#X connect 4 0 0 0;
#X connect 6 0 14 0;
#X connect 6 0 83 0;
#X connect 6 0 3 0;
#X connect 7 0 9 0;
#X connect 7 0 10 0;
#X connect 7 0 8 0;
#X connect 8 0 15 0;
#X connect 9 0 11 0;
#X connect 10 0 17 0;
#X connect 11 0 6 0;
#X connect 12 0 8 1;
#X connect 13 0 10 1;
#X connect 15 0 9 1;
#X connect 16 0 15 1;
#X connect 16 0 17 1 32.................AB...n6+++ef....59+++aH....;
#X connect 17 0 11 1;
#X connect 18 0 39 0;
#X connect 18 0 71 0;
#X connect 19 0 20 0;
#X connect 19 0 22 0;
#X connect 19 0 21 0;
#X connect 20 0 24 0;
#X connect 21 0 23 0;
#X connect 22 0 26 0;
#X connect 23 0 18 0;
#X connect 24 0 21 1;
#X connect 25 0 26 1 32.................8A...n6+++ee....59+++aH....;
#X connect 25 0 24 1;
#X connect 26 0 23 1;
#X connect 27 0 79 0;
#X connect 27 0 41 0;
#X connect 28 0 29 0;
#X connect 28 0 31 0;
#X connect 28 0 30 0;
#X connect 29 0 34 0;
#X connect 30 0 32 0;
#X connect 31 0 36 0;
#X connect 32 0 27 0;
#X connect 33 0 29 1;
#X connect 34 0 30 1;
#X connect 35 0 34 1;
#X connect 35 0 36 1 32..................B...n6+++Of....59+++aH....;
#X connect 36 0 32 1;
#X connect 37 0 20 1;
#X connect 38 0 22 1;
#X connect 40 0 31 1;
#X connect 42 0 25 0;
#X connect 42 0 35 0;
#X connect 42 0 16 0;
#X connect 45 0 63 0;
#X connect 46 0 47 0;
#X connect 47 0 59 0;
#X connect 48 0 43 0;
#X connect 49 0 64 0;
#X connect 50 0 49 0;
#X connect 50 1 49 1;
#X connect 51 0 60 0;
#X connect 52 0 53 0;
#X connect 53 0 88 0;
#X connect 53 0 54 0;
#X connect 53 0 93 0;
#X connect 55 0 73 0;
#X connect 55 0 94 0;
#X connect 55 0 95 0;
#X connect 55 0 68 0;
#X connect 56 0 19 0;
#X connect 57 0 28 0;
#X connect 58 0 7 0;
#X connect 59 0 62 0;
#X connect 60 0 46 0;
#X connect 60 1 47 1;
#X connect 60 2 59 1;
#X connect 61 0 59 2;
#X connect 62 0 44 0;
#X connect 63 0 49 0;
#X connect 64 0 66 0;
#X connect 64 0 65 0;
#X connect 65 0 51 0;
#X connect 66 0 48 0;
#X connect 67 0 19 0;
#X connect 68 0 7 0;
#X connect 70 0 69 0;
#X connect 71 0 70 0;
#X connect 72 0 71 0;
#X connect 73 0 75 0;
#X connect 74 0 75 0;
#X connect 75 0 76 0;
#X connect 78 0 77 0;
#X connect 79 0 78 0;
#X connect 80 0 79 0;
#X connect 82 0 81 0;
#X connect 83 0 82 0;
#X connect 84 0 83 0;
#X connect 85 0 1 0;
#X connect 86 0 89 0;
#X connect 87 0 86 0;
#X connect 88 0 87 0;
#X connect 88 1 86 1;
#X connect 91 0 92 0;
#X connect 92 0 50 0;
#X connect 93 0 91 0;
#X connect 94 0 19 0;
#X connect 95 0 28 0;
#X connect 96 0 28 0;
#X connect 100 0 101 0;
#X connect 101 0 52 0;
