#N canvas 827 239 527 327 12;
#X obj 467 152 cnv 15 279 134 empty empty empty 20 12 0 14 #efec00 #373737 0;
#X obj -1 160 cnv 15 328 81 empty empty empty 20 12 0 14 #14a8b7 #373737 0;
#X obj 158 626 cnv 15 213 75 empty empty empty 20 12 0 14 #ff648d #373737 0;
#X obj -1 318 cnv 15 306 282 empty empty empty 20 12 0 14 #43b756 #373737 0;
#X obj 450 16 inlet;
#X obj 578 16 inlet;
#X floatatom 450 41 5 0 0 0 - - - 12;
#X obj 450 84 int;
#X floatatom 578 41 5 0 0 0 - - - 12;
#X obj 578 84 int;
#X obj 164 421 until;
#X obj 164 328 array size \$1;
#X floatatom 164 354 5 0 0 0 - - - 12;
#X obj 164 450 bng 25 250 50 0 empty empty empty 17 7 0 10 #e4e4e4 #4d4d4d #373737;
#X floatatom 164 495 5 0 0 0 - - - 12;
#X obj 164 520 + 1;
#X msg 225 495 set \$1;
#X msg 202 450 set -1;
#X obj 164 383 t f b;
#X obj 166 641 expr ($i1 >= $i2) && ($i1 <= $i3);
#X obj 166 733 tabwrite \$1, f 32;
#X obj 164 551 t f f;
#X text 416 15 Start;
#X text 533 14 Finish;
#X text 19 352 Iterate from 0 to array size -1, f 19;
#X text 185 667 Output 1 if index is between Start and Finish \, otherwise 0, f 26;
#X obj 11 121 bang~;
#X obj 11 243 t b b, f 14;
#X msg 479 160 set \$1;
#X floatatom 479 188 5 0 0 0 - - - 12;
#X msg 607 160 set \$1;
#X floatatom 607 188 5 0 0 0 - - - 12;
#X obj 19 16 loadbang;
#X obj 19 75 s \$1;
#X msg 19 44 const 1;
#X obj 479 214 value prev_start;
#X obj 607 214 value prev_finish;
#X obj 11 203 select 0;
#X obj 450 110 t f f f;
#X obj 578 110 t f f f;
#X text 474 240 Update prev_start and prev_finish values only when table has been updated, f 37;
#X text 88 188 Don't rewrite table unless the start or finish value has been changed since last table write, f 30;
#X text 100 15 initialize table to be an all pass filter;
#X obj 11 167 expr ($f2 == prev_start) && ($f3 == prev_finish);
#X connect 4 0 6 0;
#X connect 5 0 8 0;
#X connect 6 0 7 0;
#X connect 7 0 38 0;
#X connect 8 0 9 0;
#X connect 9 0 39 0;
#X connect 10 0 13 0;
#X connect 11 0 12 0;
#X connect 12 0 18 0;
#X connect 13 0 14 0;
#X connect 14 0 15 0;
#X connect 15 0 16 0;
#X connect 15 0 21 0;
#X connect 16 0 14 0;
#X connect 17 0 14 0;
#X connect 18 0 10 0;
#X connect 18 1 17 0;
#X connect 19 0 20 0;
#X connect 21 0 19 0;
#X connect 21 1 20 1 32.................n....PL....J....DC...LJ....;
#X connect 26 0 43 0;
#X connect 27 0 29 0;
#X connect 27 0 31 0;
#X connect 27 1 11 0;
#X connect 28 0 29 0;
#X connect 29 0 35 0;
#X connect 30 0 31 0;
#X connect 31 0 36 0;
#X connect 32 0 34 0;
#X connect 34 0 33 0;
#X connect 37 0 27 0;
#X connect 38 0 43 1;
#X connect 38 1 19 1;
#X connect 38 2 28 0;
#X connect 39 0 43 2;
#X connect 39 1 19 2;
#X connect 39 2 30 0;
#X connect 43 0 37 0;
#X coords 0 0 1 1 176 139 0;
