#N canvas 827 239 527 327 12;
#X obj 85 113 mtof;
#N canvas 0 50 450 300 add-synth 1;
#X obj 422 227 cnv 15 249 80 empty empty empty 20 12 0 14 #b188b7 #373737 0;
#X obj 312 65 inlet;
#X floatatom 312 107 5 0 0 0 - - - 16;
#X obj 435 144 * 2;
#X obj 491 144 * 3;
#X obj 544 144 * 4;
#X obj 600 144 * 5;
#X obj 312 175 osc~;
#X obj 435 175 osc~;
#X obj 491 175 osc~;
#X obj 544 175 osc~;
#X obj 600 175 osc~;
#X obj 312 434 outlet~;
#X text 155 106 Fundamental Frequency:;
#X obj 312 384 /~ 5;
#X obj 22 268 scope~ 200 100 256 3 128 -2 2 0 0 0 0 77 77 77 228 228 228 183 183 183 0 empty;
#X obj 544 434 scope~ 200 100 256 3 128 -2 2 0 0 0 0 77 77 77 228 228 228 183 183 183 0 empty;
#X obj 435 342 *~;
#X obj 457 272 tgl 25 0 empty empty empty 17 7 0 10 #e4e4e4 #4d4d4d #373737 0 1;
#X obj 600 342 *~;
#X obj 621 272 tgl 25 0 empty empty empty 17 7 0 10 #e4e4e4 #4d4d4d #373737 0 1;
#X obj 544 342 *~;
#X obj 566 272 tgl 25 0 empty empty empty 17 7 0 10 #e4e4e4 #4d4d4d #373737 0 1;
#X obj 491 342 *~;
#X obj 513 272 tgl 25 0 empty empty empty 17 7 0 10 #e4e4e4 #4d4d4d #373737 0 1;
#X text 500 226 Harmonics;
#X text 457 246 1;
#X text 513 246 2;
#X text 566 246 3;
#X text 621 246 4;
#X connect 1 0 2 0;
#X connect 2 0 7 0;
#X connect 2 0 3 0;
#X connect 2 0 4 0;
#X connect 2 0 5 0;
#X connect 2 0 6 0;
#X connect 3 0 8 0;
#X connect 4 0 9 0;
#X connect 5 0 10 0;
#X connect 6 0 11 0;
#X connect 7 0 14 0;
#X connect 7 0 15 0;
#X connect 8 0 17 0;
#X connect 9 0 23 0;
#X connect 10 0 21 0;
#X connect 11 0 19 0;
#X connect 14 0 12 0;
#X connect 14 0 16 0;
#X connect 17 0 14 0;
#X connect 18 0 17 1;
#X connect 19 0 14 0;
#X connect 20 0 19 1;
#X connect 21 0 14 0;
#X connect 22 0 21 1;
#X connect 23 0 14 0;
#X connect 24 0 23 1;
#X coords 0 0 1 1 251 94 1 421 210;
#X restore 319 444 pd add-synth;
#X obj 185 797 bs-adsr;
#N canvas 0 50 450 300 fm-synth 1;
#X obj 256 615 outlet~;
#X obj 256 422 sig~;
#X obj 256 96 inlet;
#X obj 256 513 +~;
#X obj 351 456 osc~;
#X obj 351 490 *~;
#X obj 256 573 osc~;
#X text 336 210 Rate;
#X text 329 250 Depth;
#X floatatom 372 214 5 0 0 0 - - - 12;
#X floatatom 372 254 5 0 0 0 - - - 12;
#X obj 673 96 inlet~;
#X floatatom 423 456 5 0 0 0 - - - 12;
#X obj 423 490 sig~;
#X obj 423 544 *~;
#X text 623 72 Envelope Signal for Depth;
#X text 50 570 Frequency Modulated Oscillator:;
#X text 336 288 Env;
#X obj 500 422 select~;
#X obj 484 377 sig~ 1;
#X obj 500 699 scope~ 200 100 256 3 128 -1 1 0 0 0 0 77 77 77 228 228 228 183 183 183 0 empty;
#X obj 166 169 *;
#X obj 213 169 t b f;
#X obj 372 292 tgl 25 0 empty empty empty 17 7 0 10 #e4e4e4 #4d4d4d #373737 0 1;
#X obj 430 347 + 1;
#X floatatom 428 153 5 0 0 0 - - - 12;
#X floatatom 430 377 5 0 0 0 - - - 12;
#X text 417 210 (= Carrier Frequency X Multiplier);
#X text 308 165 Multiplier;
#X text 217 60 Carrier Frequency;
#X obj 372 153 knob 50 1 12 0 1 empty empty #E4E4E4 #B7B7B7 #4D4D4D 1 0 12 1 1 270 0 0 1;
#X floatatom 484 63 5 0 0 0 - - - 12;
#X floatatom 428 63 5 0 0 0 - - - 12;
#X obj 428 95 *;
#X obj 484 27 loadmess 0.125;
#X obj 162 281 loadbang;
#X obj 162 245 loadmess 50;
#X obj 874 476 *~;
#X obj 801 476 sig~;
#X obj 735 420 *;
#X obj 716 204 knob 50 0 1 2 0 empty empty #E4E4E4 #B7B7B7 #4D4D4D 1 0 0 0 1 270 0 0 0;
#X obj 813 397 t b f;
#X floatatom 735 451 7 0 0 0 - - - 16;
#X obj 896 570 +~;
#X obj 823 204 knob 50 0 30 2 0 empty empty #E4E4E4 #B7B7B7 #4D4D4D 1 0 0 0 1 270 0 0 0;
#X floatatom 823 268 5 0 0 0 - - - 12;
#X floatatom 716 268 5 0 0 0 - - - 12;
#X text 772 165 LFO;
#X obj 885 420 osc~;
#X text 668 219 Width;
#X text 772 219 Speed;
#X obj 443 254 s depth-\$0;
#X obj 543 254 s rate-\$0;
#X obj 735 377 r rate-\$0;
#X obj 834 537 r rate-\$0;
#X obj 896 603 s~ rate+LFO-\$0;
#X obj 306 422 r~ rate+LFO-\$0;
#X obj 423 422 r depth-\$0;
#X connect 1 0 3 0;
#X connect 2 0 1 0;
#X connect 2 0 21 0;
#X connect 3 0 6 0;
#X connect 4 0 5 0;
#X connect 5 0 3 1;
#X connect 6 0 0 0;
#X connect 9 0 52 0;
#X connect 10 0 51 0;
#X connect 11 0 18 1 32.................eD...H2++++GA...x8+++OS....;
#X connect 12 0 13 0;
#X connect 13 0 14 0;
#X connect 14 0 5 1;
#X connect 18 0 14 1;
#X connect 18 0 20 0;
#X connect 19 0 18 0;
#X connect 21 0 9 0;
#X connect 22 0 21 0;
#X connect 22 1 21 1;
#X connect 23 0 24 0;
#X connect 24 0 26 0;
#X connect 25 0 22 0;
#X connect 26 0 18 0;
#X connect 30 0 32 0;
#X connect 31 0 33 1;
#X connect 32 0 33 0;
#X connect 33 0 25 0;
#X connect 34 0 31 0;
#X connect 35 0 23 0;
#X connect 36 0 10 0;
#X connect 37 0 43 1;
#X connect 38 0 37 0;
#X connect 39 0 42 0;
#X connect 40 0 46 0;
#X connect 41 0 39 0;
#X connect 41 1 39 1;
#X connect 42 0 38 0;
#X connect 43 0 55 0;
#X connect 44 0 45 0;
#X connect 45 0 48 0;
#X connect 46 0 41 0;
#X connect 48 0 37 1;
#X connect 53 0 39 0;
#X connect 54 0 43 0;
#X connect 56 0 4 0;
#X connect 57 0 12 0;
#X coords 0 0 1 1 643 211 1 300 142;
#X restore 605 444 pd fm-synth;
#N canvas 0 50 450 300 am-synth 1;
#X obj 36 445 cnv 15 383 254 empty empty empty 20 12 0 14 #b7b7b7 #373737 0;
#X obj 209 182 cnv 15 193 86 empty empty empty 20 12 0 14 #77b723 #373737 0;
#X obj 59 204 cnv 15 131 40 empty empty empty 20 12 0 14 #3bb7a3 #373737 0;
#X obj 244 329 cnv 15 166 100 empty empty empty 20 12 0 14 #b7b7b7 #373737 0;
#X obj 152 21 inlet;
#X floatatom 148 171 5 0 0 0 - - - 12;
#X text 56 168 Carrier freq:;
#X obj 100 249 *;
#X floatatom 148 214 5 0 2 0 - - - 12;
#X obj 148 249 t b f;
#X floatatom 148 278 4 0 0 0 - - - 16;
#X text 42 275 Modulator freq:;
#X obj 249 368 osc~;
#X obj 169 712 outlet~;
#X text 70 213 Multiplier:;
#X obj 232 214 hsl 128 17 0 1 0 0 empty empty empty -2 -8 0 10 #e4e4e4 #4d4d4d #373737 0 1;
#X obj 144 558 expr 1 - \$1;
#X obj 133 591 *~;
#X obj 289 401 *~;
#X obj 169 633 +~;
#X obj 217 591 *~;
#X obj 465 21 inlet~;
#X text 276 237 Mix;
#X text 217 188 Orig;
#X text 332 188 Modulated;
#X text 265 340 Modulated Signal;
#X obj 325 21 inlet;
#X obj 294 149 loadmess 0.5;
#X text 36 20 Carrier Frequency:;
#X text 253 20 Multiplier: (Modulator Frequency = Carrier X Multiplier, f 17;
#X obj 169 669 /~ 2;
#X obj 465 58 send~ input-\$0;
#X obj 300 368 receive~ input-\$0;
#X obj 55 519 receive~ input-\$0;
#X text 42 473 Mix original input signal with modulated signal and send to outlet, f 49;
#X connect 4 0 5 0;
#X connect 5 0 7 0;
#X connect 7 0 10 0;
#X connect 8 0 9 0;
#X connect 9 0 7 0;
#X connect 9 1 7 1;
#X connect 10 0 12 0;
#X connect 12 0 18 0;
#X connect 15 0 16 0;
#X connect 15 0 20 0;
#X connect 16 0 17 1;
#X connect 17 0 19 0;
#X connect 18 0 20 1;
#X connect 19 0 30 0;
#X connect 20 0 19 1;
#X connect 21 0 31 0;
#X connect 26 0 8 0;
#X connect 27 0 15 0;
#X connect 30 0 13 0;
#X connect 32 0 18 1;
#X connect 33 0 17 0;
#X coords 0 0 2 1 381 174 1 38 147;
#X restore 605 789 pd am-synth;
#X obj 179 444 mix2~;
#X obj 538 1150 *~;
#X msg 650 744 0.125, f 6;
#X msg 716 744 0.25, f 6;
#X msg 843 744 0.5, f 6;
#X msg 778 744 0.375, f 6;
#X msg 907 744 1.375, f 6;
#X obj 650 714 loadbang;
#X obj 44 372 loadbang;
#X msg 121 412 gain2 0.7;
#X msg 44 412 gain1 0.7;
#X obj 179 635 /~ 2;
#X obj 538 1184 outlet~;
#X obj 85 142 s freq-\$0;
#X obj 166 142 s velocity-\$0;
#X obj 319 412 r freq-\$0;
#X obj 605 412 r freq-\$0;
#X obj 919 412 r~ env-\$0;
#X obj 185 1039 s~ env-\$0;
#X obj 485 1117 r~ env-\$0;
#X obj 179 675 s~ AS+FM-\$0;
#X obj 538 756 r freq-\$0;
#X obj 983 756 r~ AS+FM-\$0;
#X obj 784 1051 scope~ 200 100 256 3 128 -1 1 0 0 0 0 77 77 77 228 228 228 183 183 183 0 empty;
#X obj 85 34 inlet;
#X obj 85 74 unpack f f;
#X obj 185 764 r velocity-\$0;
#X connect 0 0 18 0;
#X connect 1 0 5 0;
#X connect 2 0 23 0;
#X connect 3 0 5 1;
#X connect 4 0 6 1;
#X connect 5 0 16 0;
#X connect 6 0 17 0;
#X connect 7 0 4 1;
#X connect 8 0 4 1;
#X connect 9 0 4 1;
#X connect 10 0 4 1;
#X connect 11 0 4 1;
#X connect 12 0 7 0;
#X connect 13 0 15 0;
#X connect 13 0 14 0;
#X connect 14 0 5 0;
#X connect 15 0 5 0;
#X connect 16 0 25 0;
#X connect 20 0 1 0;
#X connect 21 0 3 0;
#X connect 22 0 3 1;
#X connect 24 0 6 0;
#X connect 26 0 4 0;
#X connect 27 0 4 2;
#X connect 29 0 30 0;
#X connect 30 0 0 0;
#X connect 30 1 19 0;
#X connect 31 0 2 0;
#X coords 0 0 1 1 1113 599 1 161 436;
