#N canvas 827 239 527 327 12;
#X obj 35 42 inlet;
#X obj 705 516 outlet~;
#X obj 35 78 unpack f f;
#X obj 35 118 mtof;
#X obj 810 279 adsr~, f 27;
#X obj 882 87 vsl 17 128 10 1000 1 0 empty empty empty 0 -9 0 10 #e4e4e4 #4d4d4d #373737 0 1;
#X floatatom 878 232 5 0 0 0 - - - 12;
#X obj 943 87 vsl 17 128 10 1000 1 0 empty empty empty 0 -9 0 10 #e4e4e4 #4d4d4d #373737 0 1;
#X floatatom 939 232 5 0 0 0 - - - 12;
#X obj 1000 87 vsl 17 128 0 1 0 0 empty empty empty 0 -9 0 10 #e4e4e4 #4d4d4d #373737 0 1;
#X floatatom 996 232 5 0 0 0 - - - 12;
#X obj 1053 87 vsl 17 128 10 1000 1 0 empty empty empty 0 -9 0 10 #e4e4e4 #4d4d4d #373737 0 1;
#X floatatom 1049 232 5 0 0 0 - - - 12;
#X msg 1249 85 300;
#X obj 1249 48 loadbang;
#X msg 1210 59 0.7;
#X floatatom 35 155 5 0 0 0 - - - 12;
#X floatatom 810 232 5 0 0 0 - - - 12;
#X text 80 41 List of [MIDI pitch \, MIDI velocity];
#X obj 35 202 bs-fm;
#X obj 35 412 osc~;
#X obj 705 448 *~;
#X obj 157 155 r multiplier;
#X obj 279 155 r depth;
#X obj 844 41 r attack;
#X obj 1080 41 r release;
#X obj 925 41 r decay;
#X obj 996 41 r sustain;
#X connect 0 0 2 0;
#X connect 2 0 3 0;
#X connect 2 1 17 0;
#X connect 3 0 16 0;
#X connect 4 0 21 1;
#X connect 5 0 6 0;
#X connect 6 0 4 2;
#X connect 7 0 8 0;
#X connect 8 0 4 3;
#X connect 9 0 10 0;
#X connect 10 0 4 4;
#X connect 11 0 12 0;
#X connect 12 0 4 5;
#X connect 13 0 11 0;
#X connect 13 0 7 0;
#X connect 13 0 5 0;
#X connect 14 0 13 0;
#X connect 14 0 15 0;
#X connect 15 0 9 0;
#X connect 16 0 19 0;
#X connect 17 0 4 0;
#X connect 19 0 20 0;
#X connect 20 0 21 0;
#X connect 21 0 1 0;
#X connect 22 0 19 1;
#X connect 23 0 19 2;
#X connect 24 0 5 0;
#X connect 25 0 11 0;
#X connect 26 0 7 0;
#X connect 27 0 9 0;
