#N canvas 827 239 527 327 12;
#X obj 16 13 inlet;
#X obj 254 388 outlet~;
#X obj 254 338 adsr~, f 27;
#X floatatom 16 46 5 0 0 0 - - - 12;
#X obj 326 146 vsl 17 128 10 1000 1 0 empty empty empty 0 -9 0 10 #e4e4e4 #4d4d4d #373737 0 1;
#X floatatom 322 291 5 0 0 0 - - - 12;
#X obj 387 146 vsl 17 128 10 1000 1 0 empty empty empty 0 -9 0 10 #e4e4e4 #4d4d4d #373737 0 1;
#X floatatom 383 291 5 0 0 0 - - - 12;
#X obj 444 146 vsl 17 128 0 1 0 0 empty empty empty 0 -9 0 10 #e4e4e4 #4d4d4d #373737 0 1;
#X floatatom 440 291 5 0 0 0 - - - 12;
#X obj 497 146 vsl 17 128 10 1000 1 0 empty empty empty 0 -9 0 10 #e4e4e4 #4d4d4d #373737 0 1;
#X floatatom 493 291 5 0 0 0 - - - 12;
#X msg 646 144 300;
#X obj 646 107 loadbang;
#X msg 701 161 0.7;
#X floatatom 421 370 5 0 0 0 - - - 12;
#X text 312 114 Attack;
#X text 373 114 Decay;
#X text 427 114 Sustain;
#X text 479 114 Release;
#X text 146 385 Envelope signal:;
#X text 55 12 Number above zero turns note on with that velocity. Zero turns note off, f 22;
#X obj 322 20 inlet;
#X obj 383 20 inlet;
#X obj 440 20 inlet;
#X obj 493 20 inlet;
#X connect 0 0 3 0;
#X connect 2 0 1 0;
#X connect 2 1 15 0;
#X connect 3 0 2 0;
#X connect 4 0 5 0;
#X connect 5 0 2 2;
#X connect 6 0 7 0;
#X connect 7 0 2 3;
#X connect 8 0 9 0;
#X connect 9 0 2 4;
#X connect 10 0 11 0;
#X connect 11 0 2 5;
#X connect 12 0 10 0;
#X connect 12 0 6 0;
#X connect 12 0 4 0;
#X connect 13 0 12 0;
#X connect 13 0 14 0;
#X connect 14 0 8 0;
#X connect 22 0 4 0;
#X connect 23 0 6 0;
#X connect 24 0 8 0;
#X connect 25 0 10 0;
#X coords 0 0 1 1 287 226 1 285 96;
