#N canvas 827 239 527 327 12;
#X floatatom 316 342 5 0 0 0 - - \$0-p2 0;
#X floatatom 347 320 5 0 0 0 - - \$0-a2 0;
#X floatatom 379 297 5 0 0 0 - - - 0;
#X floatatom 411 275 5 0 0 0 - - - 0;
#X text 347 338 frequency (Hz.);
#X text 379 316 peak amplitude (linear);
#X text 411 293 cosine component;
#X text 13 207 loudest partial;
#X obj 316 249 unpack f f f f;
#X obj 44 150 route 0 1 2 3;
#X text 839 207 quietest partial;
#X obj 44 92 inlet~;
#X text 441 271 sine component;
#X floatatom 45 342 5 0 0 0 - - \$0-p1 0;
#X floatatom 76 320 5 0 0 0 - - \$0-a1 0;
#X floatatom 108 297 5 0 0 0 - - - 0;
#X floatatom 140 275 5 0 0 0 - - - 0;
#X text 76 338 frequency (Hz.);
#X text 108 316 peak amplitude (linear);
#X text 140 293 cosine component;
#X obj 45 249 unpack f f f f;
#X text 170 271 sine component;
#X floatatom 585 342 5 0 0 0 - - \$0-p3 0;
#X floatatom 616 320 5 0 0 0 - - \$0-a3 0;
#X floatatom 648 297 5 0 0 0 - - - 0;
#X floatatom 680 275 5 0 0 0 - - - 0;
#X text 616 338 frequency (Hz.);
#X text 648 316 peak amplitude (linear);
#X text 680 293 cosine component;
#X obj 585 249 unpack f f f f;
#X text 710 271 sine component;
#X floatatom 831 342 5 0 0 0 - - \$0-p4 0;
#X floatatom 862 320 5 0 0 0 - - \$0-a4 0;
#X floatatom 894 297 5 0 0 0 - - - 0;
#X floatatom 926 275 5 0 0 0 - - - 0;
#X text 862 338 frequency (Hz.);
#X text 894 316 peak amplitude (linear);
#X text 926 293 cosine component;
#X obj 831 249 unpack f f f f;
#X text 956 271 sine component;
#X floatatom 13 19 5 0 0 0 - \$0-p1 - 12;
#X floatatom 76 19 5 0 0 0 - \$0-p2 - 12;
#X floatatom 140 19 5 0 0 0 - \$0-p3 - 12;
#X floatatom 202 19 5 0 0 0 - \$0-p4 - 12;
#X floatatom 13 47 5 0 0 0 - \$0-a1 - 12;
#X floatatom 76 47 5 0 0 0 - \$0-a2 - 12;
#X floatatom 140 47 5 0 0 0 - \$0-a3 - 12;
#X floatatom 202 47 5 0 0 0 - \$0-a4 - 12;
#X obj 44 122 sigmund~ -hop 16384 -stabletime 1000 -quality 0.7 -npeak 4 peaks, f 62;
#X obj 281 19 bng 25 250 50 0 empty empty empty 17 7 0 10 #e4e4e4 #4d4d4d #373737;
#X msg 441 12 0;
#X text 273 54 Reset;
#X connect 8 0 0 0;
#X connect 8 1 1 0;
#X connect 8 2 2 0;
#X connect 8 3 3 0;
#X connect 9 0 20 0;
#X connect 9 1 8 0;
#X connect 9 2 29 0;
#X connect 9 3 38 0;
#X connect 11 0 48 0;
#X connect 20 0 13 0;
#X connect 20 1 14 0;
#X connect 20 2 15 0;
#X connect 20 3 16 0;
#X connect 29 0 22 0;
#X connect 29 1 23 0;
#X connect 29 2 24 0;
#X connect 29 3 25 0;
#X connect 38 0 31 0;
#X connect 38 1 32 0;
#X connect 38 2 33 0;
#X connect 38 3 34 0;
#X connect 48 0 9 0;
#X connect 49 0 50 0;
#X connect 50 0 13 0;
#X connect 50 0 0 0;
#X connect 50 0 22 0;
#X connect 50 0 31 0;
#X connect 50 0 14 0;
#X connect 50 0 1 0;
#X connect 50 0 23 0;
#X connect 50 0 32 0;
#X coords 0 0 1 1 340 78 1 0 0;
