#N canvas 827 239 527 327 12;
#X obj 344 740 outlet~;
#X obj 344 476 sig~;
#X obj 344 56 inlet;
#X obj 344 567 +~;
#X obj 394 509 osc~;
#X obj 394 550 *~;
#X text 424 264 Rate;
#X text 417 304 Depth;
#X floatatom 460 268 5 0 0 0 - - - 12;
#X floatatom 460 308 5 0 0 0 - - - 12;
#X obj 686 56 inlet~;
#X obj 511 509 *~;
#X text 424 345 Env;
#X obj 588 476 select~;
#X obj 641 412 sig~ 1;
#X obj 254 223 *;
#X obj 301 223 t b f;
#X obj 460 346 tgl 25 0 empty empty empty 17 7 0 10 #e4e4e4 #4d4d4d #373737 0 1;
#X obj 588 382 + 1;
#X floatatom 516 207 5 0 0 0 - - - 12;
#X floatatom 588 412 5 0 0 0 - - - 12;
#X text 505 264 (= Carrier Frequency X Multiplier);
#X text 396 219 Multiplier;
#X text 305 31 Carrier Frequency;
#X obj 460 207 knob 50 1 12 0 1 empty empty #E4E4E4 #B7B7B7 #4D4D4D 1 0 12 1 1 270 0 0 1;
#X floatatom 576 168 5 0 0 0 - - - 12;
#X floatatom 516 140 5 0 0 0 - - - 12;
#X obj 516 171 *;
#X obj 576 109 loadmess 0.125;
#X obj 250 299 loadmess 50;
#X obj 962 530 *~;
#X obj 886 544 sig~;
#X obj 823 474 *;
#X obj 804 258 knob 50 0 1 2 0 empty empty #E4E4E4 #B7B7B7 #4D4D4D 1 0 0 0 1 270 0 0 0;
#X obj 870 431 t b f;
#X floatatom 823 505 7 0 0 0 - - - 16;
#X obj 953 636 +~;
#X obj 911 258 knob 50 0 30 2 0 empty empty #E4E4E4 #B7B7B7 #4D4D4D 1 0 0 0 1 270 0 0 0;
#X floatatom 911 322 5 0 0 0 - - - 12;
#X floatatom 804 322 5 0 0 0 - - - 12;
#X text 860 219 LFO;
#X obj 973 474 osc~;
#X text 756 273 Width;
#X text 860 273 Speed;
#X text 98 739 Modulated Carrier Frequency as signal:;
#X obj 460 56 inlet;
#X text 447 31 Multiplier;
#X obj 540 56 inlet;
#X text 540 31 Depth;
#X obj 804 56 inlet;
#X obj 911 56 inlet;
#X text 787 31 LFO Width;
#X text 893 31 LFO Speed;
#X obj 576 135 t b f;
#X obj 531 308 s depth-\$0;
#X obj 620 308 s rate-\$0;
#X obj 795 431 r rate-\$0;
#X obj 890 600 r rate-\$0;
#X obj 953 669 s~ rate+LFO-\$0;
#X obj 511 476 r depth-\$0;
#X text 658 31 Envelope;
#X obj 394 476 r rate-\$0;
#X obj 460 85 * 12;
#X obj 540 85 * 1000;
#X obj 250 346 loadmess 0;
#X connect 1 0 3 0;
#X connect 2 0 1 0;
#X connect 2 0 15 0;
#X connect 3 0 0 0;
#X connect 4 0 5 0;
#X connect 5 0 3 1;
#X connect 8 0 55 0;
#X connect 9 0 54 0;
#X connect 10 0 13 1 32.................HF...b2+++OhA...28+++qY....;
#X connect 11 0 5 1;
#X connect 13 0 11 1;
#X connect 14 0 13 0;
#X connect 15 0 8 0;
#X connect 16 0 15 0;
#X connect 16 1 15 1;
#X connect 17 0 18 0;
#X connect 18 0 20 0;
#X connect 19 0 16 0;
#X connect 20 0 13 0;
#X connect 24 0 26 0;
#X connect 25 0 27 1;
#X connect 26 0 27 0;
#X connect 27 0 19 0;
#X connect 28 0 53 0;
#X connect 29 0 9 0;
#X connect 30 0 36 1;
#X connect 31 0 30 0;
#X connect 32 0 35 0;
#X connect 33 0 39 0;
#X connect 34 0 32 0;
#X connect 34 1 32 1;
#X connect 35 0 31 0;
#X connect 36 0 58 0;
#X connect 37 0 38 0;
#X connect 38 0 41 0;
#X connect 39 0 34 0;
#X connect 41 0 30 1;
#X connect 45 0 62 0;
#X connect 47 0 63 0;
#X connect 49 0 33 0;
#X connect 50 0 37 0;
#X connect 53 0 24 0;
#X connect 53 1 25 0;
#X connect 56 0 32 0;
#X connect 57 0 36 0;
#X connect 59 0 11 0;
#X connect 61 0 4 0;
#X connect 62 0 24 0;
#X connect 63 0 9 0;
#X connect 64 0 17 0;
#X coords 0 0 1 1 635 195 1 390 192;
