#N canvas 827 239 527 327 12;
#X obj 262 389 dac~;
#X obj 262 122 notein;
#X floatatom 262 161 5 0 0 0 - - - 12;
#X floatatom 310 161 5 0 0 0 - - - 12;
#X obj 895 106 bs-random-MIDI;
#X obj 581 106 bs-random-MIDI;
#X obj 735 106 bs-random-MIDI;
#X obj 895 341 bs-random-MIDI;
#X obj 581 341 bs-random-MIDI;
#X obj 735 341 bs-random-MIDI;
#X listbox 402 90 20 0 0 0 - - - 0;
#X obj 262 224 pack f f f;
#X obj 182 311 bs-1-voice;
#X obj 262 311 bs-1-voice;
#X obj 341 311 bs-1-voice;
#X obj 431 311 bs-1-voice;
#X obj 262 195 poly 4 1;
#X obj 262 254 route 1 2 3 4;
#X obj 359 254 print;
#X obj 262 356 /~ 4;
#X obj 402 136 clone -s 1 4 bs-1-voice;
#X connect 1 0 2 0;
#X connect 1 1 3 0;
#X connect 2 0 16 0;
#X connect 3 0 16 1;
#X connect 10 0 20 0;
#X connect 11 0 17 0;
#X connect 12 0 19 0;
#X connect 13 0 19 0;
#X connect 14 0 19 0;
#X connect 15 0 19 0;
#X connect 16 0 11 0;
#X connect 16 1 11 1;
#X connect 16 2 11 2;
#X connect 17 0 12 0;
#X connect 17 1 13 0;
#X connect 17 2 14 0;
#X connect 17 3 15 0;
#X connect 17 4 18 0;
#X connect 19 0 0 0;
#X connect 19 0 0 1;
