#N canvas 827 239 527 327 12;
#X obj 212 926 dac~;
#X obj 212 659 notein;
#X floatatom 212 698 5 0 0 0 - - - 12;
#X floatatom 260 698 5 0 0 0 - - - 12;
#X obj 763 109 bs-random-MIDI;
#X obj 449 109 bs-random-MIDI;
#X obj 603 109 bs-random-MIDI;
#X obj 763 344 bs-random-MIDI;
#X obj 449 344 bs-random-MIDI;
#X obj 603 344 bs-random-MIDI;
#X obj 212 761 pack f f f;
#X obj 132 848 bs-1-voice;
#X obj 212 848 bs-1-voice;
#X obj 291 848 bs-1-voice;
#X obj 381 848 bs-1-voice;
#X obj 212 732 poly 4 1;
#X obj 212 791 route 1 2 3 4;
#X obj 309 791 print;
#X obj 212 893 /~ 4;
#X obj 64 568 s multiplier;
#X obj 179 568 s depth;
#X obj 68 108 vsl 17 128 10 1000 1 0 empty empty empty 0 -9 0 10 #e4e4e4 #4d4d4d #373737 0 1;
#X obj 183 390 vsl 17 128 0 2 0 0 empty empty empty 0 -9 0 10 #e4e4e4 #4d4d4d #373737 0 1;
#X obj 68 382 vsl 17 128 0.02 2 1 0 empty empty empty 0 -9 0 10 #e4e4e4 #4d4d4d #373737 0 1;
#X floatatom 64 244 5 0 0 0 - - - 12;
#X obj 64 269 s attack;
#X obj 151 108 vsl 17 128 10 1000 1 0 empty empty empty 0 -9 0 10 #e4e4e4 #4d4d4d #373737 0 1;
#X floatatom 147 244 5 0 0 0 - - - 12;
#X obj 243 108 vsl 17 128 0 1 0 0 empty empty empty 0 -9 0 10 #e4e4e4 #4d4d4d #373737 0 1;
#X floatatom 239 244 5 0 0 0 - - - 12;
#X obj 326 108 vsl 17 128 10 1000 1 0 empty empty empty 0 -9 0 10 #e4e4e4 #4d4d4d #373737 0 1;
#X floatatom 322 244 5 0 0 0 - - - 12;
#X obj 147 269 s decay;
#X obj 239 269 s sustain;
#X obj 322 269 s release;
#X floatatom 64 529 5 0 0 0 - - - 12;
#X floatatom 179 533 5 0 0 0 - - - 12;
#X connect 1 0 2 0;
#X connect 1 1 3 0;
#X connect 2 0 15 0;
#X connect 3 0 15 1;
#X connect 10 0 16 0;
#X connect 11 0 18 0;
#X connect 12 0 18 0;
#X connect 13 0 18 0;
#X connect 14 0 18 0;
#X connect 15 0 10 0;
#X connect 15 1 10 1;
#X connect 15 2 10 2;
#X connect 16 0 11 0;
#X connect 16 1 12 0;
#X connect 16 2 13 0;
#X connect 16 3 14 0;
#X connect 16 4 17 0;
#X connect 18 0 0 0;
#X connect 18 0 0 1;
#X connect 21 0 24 0;
#X connect 22 0 36 0;
#X connect 23 0 35 0;
#X connect 24 0 25 0;
#X connect 26 0 27 0;
#X connect 27 0 32 0;
#X connect 28 0 29 0;
#X connect 29 0 33 0;
#X connect 30 0 31 0;
#X connect 31 0 34 0;
#X connect 35 0 19 0;
#X connect 36 0 20 0;
