#N canvas 827 239 527 327 12;
#X obj 564 94 bs-random-MIDI;
#X obj 791 310 keyboard 16 80 4 2 0 0 empty empty;
#X obj 791 588 noteout;
#X obj 846 467 + 4;
#X obj 895 426 unpack;
#X obj 886 467 + 7;
#X obj 895 528 pack;
#X obj 943 528 pack;
#X obj 724 94 bs-random-MIDI;
#X obj 895 94 bs-random-MIDI;
#X obj 187 353 keyboard 16 80 4 2 0 0 empty empty;
#X connect 1 0 4 0;
#X connect 1 0 2 0;
#X connect 3 0 6 0;
#X connect 4 0 3 0;
#X connect 4 0 5 0;
#X connect 4 1 6 1;
#X connect 4 1 7 1;
#X connect 5 0 7 0;
#X connect 6 0 2 0;
#X connect 7 0 2 0;
#X connect 10 0 2 0;
